G04 #@! TF.GenerationSoftware,KiCad,Pcbnew,(5.1.4)-1*
G04 #@! TF.CreationDate,2021-12-24T02:42:09+01:00*
G04 #@! TF.ProjectId,5Plank,35506c61-6e6b-42e6-9b69-6361645f7063,rev?*
G04 #@! TF.SameCoordinates,Original*
G04 #@! TF.FileFunction,Legend,Top*
G04 #@! TF.FilePolarity,Positive*
%FSLAX46Y46*%
G04 Gerber Fmt 4.6, Leading zero omitted, Abs format (unit mm)*
G04 Created by KiCad (PCBNEW (5.1.4)-1) date 2021-12-24 02:42:09*
%MOMM*%
%LPD*%
G04 APERTURE LIST*
%ADD10C,0.150000*%
%ADD11C,0.120000*%
%ADD12C,0.010000*%
%ADD13C,2.202000*%
%ADD14R,2.102000X2.102000*%
%ADD15C,2.102000*%
%ADD16R,2.102000X3.302000*%
%ADD17C,1.802000*%
%ADD18C,4.102000*%
%ADD19C,2.302000*%
%ADD20C,1.702000*%
%ADD21R,1.702000X1.702000*%
G04 APERTURE END LIST*
D10*
X143686785Y-88321130D02*
X143210595Y-88321130D01*
X143162976Y-88797321D01*
X143210595Y-88749702D01*
X143305833Y-88702083D01*
X143543928Y-88702083D01*
X143639166Y-88749702D01*
X143686785Y-88797321D01*
X143734404Y-88892559D01*
X143734404Y-89130654D01*
X143686785Y-89225892D01*
X143639166Y-89273511D01*
X143543928Y-89321130D01*
X143305833Y-89321130D01*
X143210595Y-89273511D01*
X143162976Y-89225892D01*
X144162976Y-89321130D02*
X144162976Y-88321130D01*
X144543928Y-88321130D01*
X144639166Y-88368750D01*
X144686785Y-88416369D01*
X144734404Y-88511607D01*
X144734404Y-88654464D01*
X144686785Y-88749702D01*
X144639166Y-88797321D01*
X144543928Y-88844940D01*
X144162976Y-88844940D01*
X145305833Y-89321130D02*
X145210595Y-89273511D01*
X145162976Y-89178273D01*
X145162976Y-88321130D01*
X146115357Y-89321130D02*
X146115357Y-88797321D01*
X146067738Y-88702083D01*
X145972500Y-88654464D01*
X145782023Y-88654464D01*
X145686785Y-88702083D01*
X146115357Y-89273511D02*
X146020119Y-89321130D01*
X145782023Y-89321130D01*
X145686785Y-89273511D01*
X145639166Y-89178273D01*
X145639166Y-89083035D01*
X145686785Y-88987797D01*
X145782023Y-88940178D01*
X146020119Y-88940178D01*
X146115357Y-88892559D01*
X146591547Y-88654464D02*
X146591547Y-89321130D01*
X146591547Y-88749702D02*
X146639166Y-88702083D01*
X146734404Y-88654464D01*
X146877261Y-88654464D01*
X146972500Y-88702083D01*
X147020119Y-88797321D01*
X147020119Y-89321130D01*
X147496309Y-89321130D02*
X147496309Y-88321130D01*
X147591547Y-88940178D02*
X147877261Y-89321130D01*
X147877261Y-88654464D02*
X147496309Y-89035416D01*
X149067738Y-89321130D02*
X149067738Y-88321130D01*
X149448690Y-88321130D01*
X149543928Y-88368750D01*
X149591547Y-88416369D01*
X149639166Y-88511607D01*
X149639166Y-88654464D01*
X149591547Y-88749702D01*
X149543928Y-88797321D01*
X149448690Y-88844940D01*
X149067738Y-88844940D01*
X150067738Y-89321130D02*
X150067738Y-88654464D01*
X150067738Y-88844940D02*
X150115357Y-88749702D01*
X150162976Y-88702083D01*
X150258214Y-88654464D01*
X150353452Y-88654464D01*
X150829642Y-89321130D02*
X150734404Y-89273511D01*
X150686785Y-89225892D01*
X150639166Y-89130654D01*
X150639166Y-88844940D01*
X150686785Y-88749702D01*
X150734404Y-88702083D01*
X150829642Y-88654464D01*
X150972500Y-88654464D01*
X151067738Y-88702083D01*
X151115357Y-88749702D01*
X151162976Y-88844940D01*
X151162976Y-89130654D01*
X151115357Y-89225892D01*
X151067738Y-89273511D01*
X150972500Y-89321130D01*
X150829642Y-89321130D01*
X143210595Y-90971130D02*
X143210595Y-89971130D01*
X143210595Y-90352083D02*
X143305833Y-90304464D01*
X143496309Y-90304464D01*
X143591547Y-90352083D01*
X143639166Y-90399702D01*
X143686785Y-90494940D01*
X143686785Y-90780654D01*
X143639166Y-90875892D01*
X143591547Y-90923511D01*
X143496309Y-90971130D01*
X143305833Y-90971130D01*
X143210595Y-90923511D01*
X144020119Y-90304464D02*
X144258214Y-90971130D01*
X144496309Y-90304464D02*
X144258214Y-90971130D01*
X144162976Y-91209226D01*
X144115357Y-91256845D01*
X144020119Y-91304464D01*
X145639166Y-90447321D02*
X145972500Y-90447321D01*
X146115357Y-90971130D02*
X145639166Y-90971130D01*
X145639166Y-89971130D01*
X146115357Y-89971130D01*
X146543928Y-90971130D02*
X146543928Y-89971130D01*
X146877261Y-90685416D01*
X147210595Y-89971130D01*
X147210595Y-90971130D01*
X148115357Y-90304464D02*
X148115357Y-90971130D01*
X147877261Y-89923511D02*
X147639166Y-90637797D01*
X148258214Y-90637797D01*
X148496309Y-89971130D02*
X148829642Y-90971130D01*
X149162976Y-89971130D01*
D11*
X238700000Y-85368750D02*
G75*
G03X238700000Y-85368750I-3000000J0D01*
G01*
X229800000Y-83368750D02*
X229800000Y-79268750D01*
X241600000Y-79268750D02*
X241600000Y-83368750D01*
X241600000Y-87368750D02*
X241600000Y-91468750D01*
X229800000Y-87368750D02*
X229800000Y-91468750D01*
X229800000Y-91468750D02*
X241600000Y-91468750D01*
X231900000Y-92868750D02*
X231600000Y-93168750D01*
X231600000Y-93168750D02*
X231600000Y-92568750D01*
X231600000Y-92568750D02*
X231900000Y-92868750D01*
X229800000Y-79268750D02*
X232200000Y-79268750D01*
X234400000Y-79268750D02*
X237000000Y-79268750D01*
X239200000Y-79268750D02*
X241600000Y-79268750D01*
X235200000Y-85368750D02*
X236200000Y-85368750D01*
X235700000Y-85868750D02*
X235700000Y-84868750D01*
D12*
G36*
X152604421Y-83318749D02*
G01*
X152678550Y-83493704D01*
X152718667Y-83774990D01*
X152735216Y-84160665D01*
X152738638Y-84648784D01*
X152738666Y-84772500D01*
X152735428Y-85316567D01*
X152721871Y-85714031D01*
X152692229Y-85987559D01*
X152640738Y-86159821D01*
X152561633Y-86253485D01*
X152449150Y-86291220D01*
X152351100Y-86296500D01*
X152191242Y-86268539D01*
X152082130Y-86167390D01*
X152013282Y-85967159D01*
X151974218Y-85641951D01*
X151959040Y-85327885D01*
X151934333Y-84579755D01*
X150761127Y-85819128D01*
X149587922Y-87058500D01*
X151061694Y-87058500D01*
X151672806Y-87063180D01*
X152125801Y-87077692D01*
X152431652Y-87102743D01*
X152601327Y-87139041D01*
X152637066Y-87160100D01*
X152679370Y-87271289D01*
X152709808Y-87515066D01*
X152729084Y-87902165D01*
X152737906Y-88443319D01*
X152738666Y-88704409D01*
X152738666Y-90147117D01*
X154284669Y-88602809D01*
X154820473Y-88074492D01*
X155264625Y-87651165D01*
X155611711Y-87337691D01*
X155856318Y-87138937D01*
X155993031Y-87059765D01*
X156003402Y-87058500D01*
X156235144Y-87130238D01*
X156364186Y-87321679D01*
X156379333Y-87437757D01*
X156320390Y-87546332D01*
X156155482Y-87752559D01*
X155902487Y-88038609D01*
X155579283Y-88386651D01*
X155203748Y-88778854D01*
X154793762Y-89197388D01*
X154367203Y-89624422D01*
X153941948Y-90042126D01*
X153535878Y-90432670D01*
X153166869Y-90778223D01*
X152852802Y-91060954D01*
X152611554Y-91263033D01*
X152461003Y-91366630D01*
X152429981Y-91376500D01*
X152238941Y-91316403D01*
X152116788Y-91221667D01*
X152067173Y-91145986D01*
X152030579Y-91028478D01*
X152005128Y-90845317D01*
X151988944Y-90572675D01*
X151980148Y-90186724D01*
X151976862Y-89663635D01*
X151976666Y-89443667D01*
X151976666Y-87820500D01*
X150320100Y-87820500D01*
X149740661Y-87815994D01*
X149245578Y-87803196D01*
X148857277Y-87783185D01*
X148598181Y-87757042D01*
X148499767Y-87732855D01*
X148395763Y-87664133D01*
X148336704Y-87581974D01*
X148331303Y-87473988D01*
X148388269Y-87327781D01*
X148516315Y-87130964D01*
X148724153Y-86871144D01*
X149020492Y-86535930D01*
X149414046Y-86112931D01*
X149913524Y-85589754D01*
X150256033Y-85234655D01*
X150860630Y-84610855D01*
X151358119Y-84106995D01*
X151758941Y-83721130D01*
X152073540Y-83451317D01*
X152312358Y-83295612D01*
X152485838Y-83252071D01*
X152604421Y-83318749D01*
X152604421Y-83318749D01*
G37*
X152604421Y-83318749D02*
X152678550Y-83493704D01*
X152718667Y-83774990D01*
X152735216Y-84160665D01*
X152738638Y-84648784D01*
X152738666Y-84772500D01*
X152735428Y-85316567D01*
X152721871Y-85714031D01*
X152692229Y-85987559D01*
X152640738Y-86159821D01*
X152561633Y-86253485D01*
X152449150Y-86291220D01*
X152351100Y-86296500D01*
X152191242Y-86268539D01*
X152082130Y-86167390D01*
X152013282Y-85967159D01*
X151974218Y-85641951D01*
X151959040Y-85327885D01*
X151934333Y-84579755D01*
X150761127Y-85819128D01*
X149587922Y-87058500D01*
X151061694Y-87058500D01*
X151672806Y-87063180D01*
X152125801Y-87077692D01*
X152431652Y-87102743D01*
X152601327Y-87139041D01*
X152637066Y-87160100D01*
X152679370Y-87271289D01*
X152709808Y-87515066D01*
X152729084Y-87902165D01*
X152737906Y-88443319D01*
X152738666Y-88704409D01*
X152738666Y-90147117D01*
X154284669Y-88602809D01*
X154820473Y-88074492D01*
X155264625Y-87651165D01*
X155611711Y-87337691D01*
X155856318Y-87138937D01*
X155993031Y-87059765D01*
X156003402Y-87058500D01*
X156235144Y-87130238D01*
X156364186Y-87321679D01*
X156379333Y-87437757D01*
X156320390Y-87546332D01*
X156155482Y-87752559D01*
X155902487Y-88038609D01*
X155579283Y-88386651D01*
X155203748Y-88778854D01*
X154793762Y-89197388D01*
X154367203Y-89624422D01*
X153941948Y-90042126D01*
X153535878Y-90432670D01*
X153166869Y-90778223D01*
X152852802Y-91060954D01*
X152611554Y-91263033D01*
X152461003Y-91366630D01*
X152429981Y-91376500D01*
X152238941Y-91316403D01*
X152116788Y-91221667D01*
X152067173Y-91145986D01*
X152030579Y-91028478D01*
X152005128Y-90845317D01*
X151988944Y-90572675D01*
X151980148Y-90186724D01*
X151976862Y-89663635D01*
X151976666Y-89443667D01*
X151976666Y-87820500D01*
X150320100Y-87820500D01*
X149740661Y-87815994D01*
X149245578Y-87803196D01*
X148857277Y-87783185D01*
X148598181Y-87757042D01*
X148499767Y-87732855D01*
X148395763Y-87664133D01*
X148336704Y-87581974D01*
X148331303Y-87473988D01*
X148388269Y-87327781D01*
X148516315Y-87130964D01*
X148724153Y-86871144D01*
X149020492Y-86535930D01*
X149414046Y-86112931D01*
X149913524Y-85589754D01*
X150256033Y-85234655D01*
X150860630Y-84610855D01*
X151358119Y-84106995D01*
X151758941Y-83721130D01*
X152073540Y-83451317D01*
X152312358Y-83295612D01*
X152485838Y-83252071D01*
X152604421Y-83318749D01*
D11*
X173196250Y-92710000D02*
X173196250Y-78740000D01*
X187166250Y-92710000D02*
X173196250Y-92710000D01*
X187166250Y-78740000D02*
X187166250Y-92710000D01*
X173196250Y-78740000D02*
X187166250Y-78740000D01*
D10*
X162877500Y-76835000D02*
X162877500Y-94615000D01*
X132397500Y-76835000D02*
X162877500Y-76835000D01*
X132397500Y-81915000D02*
X132397500Y-76835000D01*
X129857500Y-81915000D02*
X132397500Y-81915000D01*
X129857500Y-89535000D02*
X129857500Y-81915000D01*
X132397500Y-89535000D02*
X129857500Y-89535000D01*
X132397500Y-94615000D02*
X132397500Y-89535000D01*
X132397500Y-94615000D02*
X162877500Y-94615000D01*
D11*
X211296250Y-92710000D02*
X211296250Y-78740000D01*
X225266250Y-92710000D02*
X211296250Y-92710000D01*
X225266250Y-78740000D02*
X225266250Y-92710000D01*
X211296250Y-78740000D02*
X225266250Y-78740000D01*
X192246250Y-92710000D02*
X192246250Y-78740000D01*
X206216250Y-92710000D02*
X192246250Y-92710000D01*
X206216250Y-78740000D02*
X206216250Y-92710000D01*
X192246250Y-78740000D02*
X206216250Y-78740000D01*
X154146250Y-92710000D02*
X154146250Y-78740000D01*
X168116250Y-92710000D02*
X154146250Y-92710000D01*
X168116250Y-78740000D02*
X168116250Y-92710000D01*
X154146250Y-78740000D02*
X168116250Y-78740000D01*
X134937500Y-92710000D02*
X134937500Y-78740000D01*
X148907500Y-92710000D02*
X134937500Y-92710000D01*
X148907500Y-78740000D02*
X148907500Y-92710000D01*
X134937500Y-78740000D02*
X148907500Y-78740000D01*
D10*
X126460416Y-93296130D02*
X126127083Y-92819940D01*
X125888988Y-93296130D02*
X125888988Y-92296130D01*
X126269940Y-92296130D01*
X126365178Y-92343750D01*
X126412797Y-92391369D01*
X126460416Y-92486607D01*
X126460416Y-92629464D01*
X126412797Y-92724702D01*
X126365178Y-92772321D01*
X126269940Y-92819940D01*
X125888988Y-92819940D01*
X126888988Y-92772321D02*
X127222321Y-92772321D01*
X127365178Y-93296130D02*
X126888988Y-93296130D01*
X126888988Y-92296130D01*
X127365178Y-92296130D01*
X128127083Y-92772321D02*
X127793750Y-92772321D01*
X127793750Y-93296130D02*
X127793750Y-92296130D01*
X128269940Y-92296130D01*
X128793750Y-92296130D02*
X128793750Y-92534226D01*
X128555654Y-92438988D02*
X128793750Y-92534226D01*
X129031845Y-92438988D01*
X128650892Y-92724702D02*
X128793750Y-92534226D01*
X128936607Y-92724702D01*
X129555654Y-92296130D02*
X129555654Y-92534226D01*
X129317559Y-92438988D02*
X129555654Y-92534226D01*
X129793750Y-92438988D01*
X129412797Y-92724702D02*
X129555654Y-92534226D01*
X129698511Y-92724702D01*
X126460416Y-72658630D02*
X126127083Y-72182440D01*
X125888988Y-72658630D02*
X125888988Y-71658630D01*
X126269940Y-71658630D01*
X126365178Y-71706250D01*
X126412797Y-71753869D01*
X126460416Y-71849107D01*
X126460416Y-71991964D01*
X126412797Y-72087202D01*
X126365178Y-72134821D01*
X126269940Y-72182440D01*
X125888988Y-72182440D01*
X126888988Y-72134821D02*
X127222321Y-72134821D01*
X127365178Y-72658630D02*
X126888988Y-72658630D01*
X126888988Y-71658630D01*
X127365178Y-71658630D01*
X128127083Y-72134821D02*
X127793750Y-72134821D01*
X127793750Y-72658630D02*
X127793750Y-71658630D01*
X128269940Y-71658630D01*
X128793750Y-71658630D02*
X128793750Y-71896726D01*
X128555654Y-71801488D02*
X128793750Y-71896726D01*
X129031845Y-71801488D01*
X128650892Y-72087202D02*
X128793750Y-71896726D01*
X128936607Y-72087202D01*
X129555654Y-71658630D02*
X129555654Y-71896726D01*
X129317559Y-71801488D02*
X129555654Y-71896726D01*
X129793750Y-71801488D01*
X129412797Y-72087202D02*
X129555654Y-71896726D01*
X129698511Y-72087202D01*
X228904761Y-91402083D02*
X228952380Y-91259226D01*
X228952380Y-91021130D01*
X228904761Y-90925892D01*
X228857142Y-90878273D01*
X228761904Y-90830654D01*
X228666666Y-90830654D01*
X228571428Y-90878273D01*
X228523809Y-90925892D01*
X228476190Y-91021130D01*
X228428571Y-91211607D01*
X228380952Y-91306845D01*
X228333333Y-91354464D01*
X228238095Y-91402083D01*
X228142857Y-91402083D01*
X228047619Y-91354464D01*
X228000000Y-91306845D01*
X227952380Y-91211607D01*
X227952380Y-90973511D01*
X228000000Y-90830654D01*
X227952380Y-90497321D02*
X228952380Y-90259226D01*
X228238095Y-90068750D01*
X228952380Y-89878273D01*
X227952380Y-89640178D01*
X228047619Y-89306845D02*
X228000000Y-89259226D01*
X227952380Y-89163988D01*
X227952380Y-88925892D01*
X228000000Y-88830654D01*
X228047619Y-88783035D01*
X228142857Y-88735416D01*
X228238095Y-88735416D01*
X228380952Y-88783035D01*
X228952380Y-89354464D01*
X228952380Y-88735416D01*
X212979166Y-93296130D02*
X212645833Y-92819940D01*
X212407738Y-93296130D02*
X212407738Y-92296130D01*
X212788690Y-92296130D01*
X212883928Y-92343750D01*
X212931547Y-92391369D01*
X212979166Y-92486607D01*
X212979166Y-92629464D01*
X212931547Y-92724702D01*
X212883928Y-92772321D01*
X212788690Y-92819940D01*
X212407738Y-92819940D01*
X213407738Y-92772321D02*
X213741071Y-92772321D01*
X213883928Y-93296130D02*
X213407738Y-93296130D01*
X213407738Y-92296130D01*
X213883928Y-92296130D01*
X214645833Y-92772321D02*
X214312500Y-92772321D01*
X214312500Y-93296130D02*
X214312500Y-92296130D01*
X214788690Y-92296130D01*
X215312500Y-92296130D02*
X215312500Y-92534226D01*
X215074404Y-92438988D02*
X215312500Y-92534226D01*
X215550595Y-92438988D01*
X215169642Y-92724702D02*
X215312500Y-92534226D01*
X215455357Y-92724702D01*
X216074404Y-92296130D02*
X216074404Y-92534226D01*
X215836309Y-92438988D02*
X216074404Y-92534226D01*
X216312500Y-92438988D01*
X215931547Y-92724702D02*
X216074404Y-92534226D01*
X216217261Y-92724702D01*
X212979166Y-72658630D02*
X212645833Y-72182440D01*
X212407738Y-72658630D02*
X212407738Y-71658630D01*
X212788690Y-71658630D01*
X212883928Y-71706250D01*
X212931547Y-71753869D01*
X212979166Y-71849107D01*
X212979166Y-71991964D01*
X212931547Y-72087202D01*
X212883928Y-72134821D01*
X212788690Y-72182440D01*
X212407738Y-72182440D01*
X213407738Y-72134821D02*
X213741071Y-72134821D01*
X213883928Y-72658630D02*
X213407738Y-72658630D01*
X213407738Y-71658630D01*
X213883928Y-71658630D01*
X214645833Y-72134821D02*
X214312500Y-72134821D01*
X214312500Y-72658630D02*
X214312500Y-71658630D01*
X214788690Y-71658630D01*
X215312500Y-71658630D02*
X215312500Y-71896726D01*
X215074404Y-71801488D02*
X215312500Y-71896726D01*
X215550595Y-71801488D01*
X215169642Y-72087202D02*
X215312500Y-71896726D01*
X215455357Y-72087202D01*
X216074404Y-71658630D02*
X216074404Y-71896726D01*
X215836309Y-71801488D02*
X216074404Y-71896726D01*
X216312500Y-71801488D01*
X215931547Y-72087202D02*
X216074404Y-71896726D01*
X216217261Y-72087202D01*
X178895535Y-78303380D02*
X178895535Y-77303380D01*
X179228869Y-78017666D01*
X179562202Y-77303380D01*
X179562202Y-78303380D01*
X179943154Y-77303380D02*
X180609821Y-78303380D01*
X180609821Y-77303380D02*
X179943154Y-78303380D01*
X180895535Y-77303380D02*
X181514583Y-77303380D01*
X181181250Y-77684333D01*
X181324107Y-77684333D01*
X181419345Y-77731952D01*
X181466964Y-77779571D01*
X181514583Y-77874809D01*
X181514583Y-78112904D01*
X181466964Y-78208142D01*
X181419345Y-78255761D01*
X181324107Y-78303380D01*
X181038392Y-78303380D01*
X180943154Y-78255761D01*
X180895535Y-78208142D01*
X168529166Y-72658630D02*
X168195833Y-72182440D01*
X167957738Y-72658630D02*
X167957738Y-71658630D01*
X168338690Y-71658630D01*
X168433928Y-71706250D01*
X168481547Y-71753869D01*
X168529166Y-71849107D01*
X168529166Y-71991964D01*
X168481547Y-72087202D01*
X168433928Y-72134821D01*
X168338690Y-72182440D01*
X167957738Y-72182440D01*
X168957738Y-72134821D02*
X169291071Y-72134821D01*
X169433928Y-72658630D02*
X168957738Y-72658630D01*
X168957738Y-71658630D01*
X169433928Y-71658630D01*
X170195833Y-72134821D02*
X169862500Y-72134821D01*
X169862500Y-72658630D02*
X169862500Y-71658630D01*
X170338690Y-71658630D01*
X170862500Y-71658630D02*
X170862500Y-71896726D01*
X170624404Y-71801488D02*
X170862500Y-71896726D01*
X171100595Y-71801488D01*
X170719642Y-72087202D02*
X170862500Y-71896726D01*
X171005357Y-72087202D01*
X171624404Y-71658630D02*
X171624404Y-71896726D01*
X171386309Y-71801488D02*
X171624404Y-71896726D01*
X171862500Y-71801488D01*
X171481547Y-72087202D02*
X171624404Y-71896726D01*
X171767261Y-72087202D01*
X168529166Y-93296130D02*
X168195833Y-92819940D01*
X167957738Y-93296130D02*
X167957738Y-92296130D01*
X168338690Y-92296130D01*
X168433928Y-92343750D01*
X168481547Y-92391369D01*
X168529166Y-92486607D01*
X168529166Y-92629464D01*
X168481547Y-92724702D01*
X168433928Y-92772321D01*
X168338690Y-92819940D01*
X167957738Y-92819940D01*
X168957738Y-92772321D02*
X169291071Y-92772321D01*
X169433928Y-93296130D02*
X168957738Y-93296130D01*
X168957738Y-92296130D01*
X169433928Y-92296130D01*
X170195833Y-92772321D02*
X169862500Y-92772321D01*
X169862500Y-93296130D02*
X169862500Y-92296130D01*
X170338690Y-92296130D01*
X170862500Y-92296130D02*
X170862500Y-92534226D01*
X170624404Y-92438988D02*
X170862500Y-92534226D01*
X171100595Y-92438988D01*
X170719642Y-92724702D02*
X170862500Y-92534226D01*
X171005357Y-92724702D01*
X171624404Y-92296130D02*
X171624404Y-92534226D01*
X171386309Y-92438988D02*
X171624404Y-92534226D01*
X171862500Y-92438988D01*
X171481547Y-92724702D02*
X171624404Y-92534226D01*
X171767261Y-92724702D01*
X239966666Y-72658630D02*
X239633333Y-72182440D01*
X239395238Y-72658630D02*
X239395238Y-71658630D01*
X239776190Y-71658630D01*
X239871428Y-71706250D01*
X239919047Y-71753869D01*
X239966666Y-71849107D01*
X239966666Y-71991964D01*
X239919047Y-72087202D01*
X239871428Y-72134821D01*
X239776190Y-72182440D01*
X239395238Y-72182440D01*
X240395238Y-72134821D02*
X240728571Y-72134821D01*
X240871428Y-72658630D02*
X240395238Y-72658630D01*
X240395238Y-71658630D01*
X240871428Y-71658630D01*
X241633333Y-72134821D02*
X241300000Y-72134821D01*
X241300000Y-72658630D02*
X241300000Y-71658630D01*
X241776190Y-71658630D01*
X242300000Y-71658630D02*
X242300000Y-71896726D01*
X242061904Y-71801488D02*
X242300000Y-71896726D01*
X242538095Y-71801488D01*
X242157142Y-72087202D02*
X242300000Y-71896726D01*
X242442857Y-72087202D01*
X243061904Y-71658630D02*
X243061904Y-71896726D01*
X242823809Y-71801488D02*
X243061904Y-71896726D01*
X243300000Y-71801488D01*
X242919047Y-72087202D02*
X243061904Y-71896726D01*
X243204761Y-72087202D01*
X239966666Y-93296130D02*
X239633333Y-92819940D01*
X239395238Y-93296130D02*
X239395238Y-92296130D01*
X239776190Y-92296130D01*
X239871428Y-92343750D01*
X239919047Y-92391369D01*
X239966666Y-92486607D01*
X239966666Y-92629464D01*
X239919047Y-92724702D01*
X239871428Y-92772321D01*
X239776190Y-92819940D01*
X239395238Y-92819940D01*
X240395238Y-92772321D02*
X240728571Y-92772321D01*
X240871428Y-93296130D02*
X240395238Y-93296130D01*
X240395238Y-92296130D01*
X240871428Y-92296130D01*
X241633333Y-92772321D02*
X241300000Y-92772321D01*
X241300000Y-93296130D02*
X241300000Y-92296130D01*
X241776190Y-92296130D01*
X242300000Y-92296130D02*
X242300000Y-92534226D01*
X242061904Y-92438988D02*
X242300000Y-92534226D01*
X242538095Y-92438988D01*
X242157142Y-92724702D02*
X242300000Y-92534226D01*
X242442857Y-92724702D01*
X243061904Y-92296130D02*
X243061904Y-92534226D01*
X242823809Y-92438988D02*
X243061904Y-92534226D01*
X243300000Y-92438988D01*
X242919047Y-92724702D02*
X243061904Y-92534226D01*
X243204761Y-92724702D01*
X132016666Y-82977380D02*
X131683333Y-82501190D01*
X131445238Y-82977380D02*
X131445238Y-81977380D01*
X131826190Y-81977380D01*
X131921428Y-82025000D01*
X131969047Y-82072619D01*
X132016666Y-82167857D01*
X132016666Y-82310714D01*
X131969047Y-82405952D01*
X131921428Y-82453571D01*
X131826190Y-82501190D01*
X131445238Y-82501190D01*
X132445238Y-82453571D02*
X132778571Y-82453571D01*
X132921428Y-82977380D02*
X132445238Y-82977380D01*
X132445238Y-81977380D01*
X132921428Y-81977380D01*
X133683333Y-82453571D02*
X133350000Y-82453571D01*
X133350000Y-82977380D02*
X133350000Y-81977380D01*
X133826190Y-81977380D01*
X134350000Y-81977380D02*
X134350000Y-82215476D01*
X134111904Y-82120238D02*
X134350000Y-82215476D01*
X134588095Y-82120238D01*
X134207142Y-82405952D02*
X134350000Y-82215476D01*
X134492857Y-82405952D01*
X135111904Y-81977380D02*
X135111904Y-82215476D01*
X134873809Y-82120238D02*
X135111904Y-82215476D01*
X135350000Y-82120238D01*
X134969047Y-82405952D02*
X135111904Y-82215476D01*
X135254761Y-82405952D01*
X216995535Y-78303380D02*
X216995535Y-77303380D01*
X217328869Y-78017666D01*
X217662202Y-77303380D01*
X217662202Y-78303380D01*
X218043154Y-77303380D02*
X218709821Y-78303380D01*
X218709821Y-77303380D02*
X218043154Y-78303380D01*
X219566964Y-77303380D02*
X219090773Y-77303380D01*
X219043154Y-77779571D01*
X219090773Y-77731952D01*
X219186011Y-77684333D01*
X219424107Y-77684333D01*
X219519345Y-77731952D01*
X219566964Y-77779571D01*
X219614583Y-77874809D01*
X219614583Y-78112904D01*
X219566964Y-78208142D01*
X219519345Y-78255761D01*
X219424107Y-78303380D01*
X219186011Y-78303380D01*
X219090773Y-78255761D01*
X219043154Y-78208142D01*
X197945535Y-78303380D02*
X197945535Y-77303380D01*
X198278869Y-78017666D01*
X198612202Y-77303380D01*
X198612202Y-78303380D01*
X198993154Y-77303380D02*
X199659821Y-78303380D01*
X199659821Y-77303380D02*
X198993154Y-78303380D01*
X200469345Y-77636714D02*
X200469345Y-78303380D01*
X200231250Y-77255761D02*
X199993154Y-77970047D01*
X200612202Y-77970047D01*
X159845535Y-78303380D02*
X159845535Y-77303380D01*
X160178869Y-78017666D01*
X160512202Y-77303380D01*
X160512202Y-78303380D01*
X160893154Y-77303380D02*
X161559821Y-78303380D01*
X161559821Y-77303380D02*
X160893154Y-78303380D01*
X161893154Y-77398619D02*
X161940773Y-77351000D01*
X162036011Y-77303380D01*
X162274107Y-77303380D01*
X162369345Y-77351000D01*
X162416964Y-77398619D01*
X162464583Y-77493857D01*
X162464583Y-77589095D01*
X162416964Y-77731952D01*
X161845535Y-78303380D01*
X162464583Y-78303380D01*
X140636785Y-78303380D02*
X140636785Y-77303380D01*
X140970119Y-78017666D01*
X141303452Y-77303380D01*
X141303452Y-78303380D01*
X141684404Y-77303380D02*
X142351071Y-78303380D01*
X142351071Y-77303380D02*
X141684404Y-78303380D01*
X143255833Y-78303380D02*
X142684404Y-78303380D01*
X142970119Y-78303380D02*
X142970119Y-77303380D01*
X142874880Y-77446238D01*
X142779642Y-77541476D01*
X142684404Y-77589095D01*
%LPC*%
D13*
X127793750Y-96043750D03*
X127793750Y-75406250D03*
D14*
X233200000Y-92868750D03*
D15*
X235700000Y-92868750D03*
X238200000Y-92868750D03*
D16*
X230100000Y-85368750D03*
X241300000Y-85368750D03*
D15*
X233200000Y-78368750D03*
X238200000Y-78368750D03*
D13*
X214312500Y-96043750D03*
X214312500Y-75406250D03*
D17*
X185261250Y-85725000D03*
X175101250Y-85725000D03*
D18*
X180181250Y-85725000D03*
D19*
X176371250Y-83185000D03*
X182721250Y-80645000D03*
D13*
X169862500Y-75406250D03*
X169862500Y-96043750D03*
X241300000Y-75406250D03*
X241300000Y-96043750D03*
X133350000Y-85725000D03*
D20*
X133667500Y-78105000D03*
X136207500Y-78105000D03*
X138747500Y-78105000D03*
X141287500Y-78105000D03*
X143827500Y-78105000D03*
X146367500Y-78105000D03*
X148907500Y-78105000D03*
X151447500Y-78105000D03*
X153987500Y-78105000D03*
X156527500Y-78105000D03*
X159067500Y-78105000D03*
X161607500Y-78105000D03*
X161607500Y-93345000D03*
X159067500Y-93345000D03*
X156527500Y-93345000D03*
X153987500Y-93345000D03*
X151447500Y-93345000D03*
X148907500Y-93345000D03*
X146367500Y-93345000D03*
X143827500Y-93345000D03*
X141287500Y-93345000D03*
X138747500Y-93345000D03*
X136207500Y-93345000D03*
D21*
X133667500Y-93345000D03*
D17*
X223361250Y-85725000D03*
X213201250Y-85725000D03*
D18*
X218281250Y-85725000D03*
D19*
X214471250Y-83185000D03*
X220821250Y-80645000D03*
D17*
X204311250Y-85725000D03*
X194151250Y-85725000D03*
D18*
X199231250Y-85725000D03*
D19*
X195421250Y-83185000D03*
X201771250Y-80645000D03*
D17*
X166211250Y-85725000D03*
X156051250Y-85725000D03*
D18*
X161131250Y-85725000D03*
D19*
X157321250Y-83185000D03*
X163671250Y-80645000D03*
D17*
X147002500Y-85725000D03*
X136842500Y-85725000D03*
D18*
X141922500Y-85725000D03*
D19*
X138112500Y-83185000D03*
X144462500Y-80645000D03*
M02*
