G04 #@! TF.GenerationSoftware,KiCad,Pcbnew,(5.1.4)-1*
G04 #@! TF.CreationDate,2021-12-24T02:42:09+01:00*
G04 #@! TF.ProjectId,5Plank,35506c61-6e6b-42e6-9b69-6361645f7063,rev?*
G04 #@! TF.SameCoordinates,Original*
G04 #@! TF.FileFunction,Profile,NP*
%FSLAX46Y46*%
G04 Gerber Fmt 4.6, Leading zero omitted, Abs format (unit mm)*
G04 Created by KiCad (PCBNEW (5.1.4)-1) date 2021-12-24 02:42:09*
%MOMM*%
%LPD*%
G04 APERTURE LIST*
%ADD10C,0.050000*%
G04 APERTURE END LIST*
D10*
X128587500Y-93662500D02*
X130968750Y-91281250D01*
X127793750Y-93662500D02*
X128587500Y-93662500D01*
X125412500Y-96043750D02*
G75*
G02X127793750Y-93662500I2381250J0D01*
G01*
X127793750Y-98425000D02*
G75*
G02X125412500Y-96043750I0J2381250D01*
G01*
X129381250Y-98425000D02*
X127793750Y-98425000D01*
X130175000Y-97631250D02*
X129381250Y-98425000D01*
X132556250Y-97631250D02*
X130175000Y-97631250D01*
X130968750Y-80168750D02*
X130968750Y-91281250D01*
X129381250Y-78581250D02*
X130968750Y-80168750D01*
X128587500Y-77787500D02*
X129381250Y-78581250D01*
X127793750Y-77787500D02*
X128587500Y-77787500D01*
X127793750Y-77787500D02*
G75*
G02X125412500Y-75406250I0J2381250D01*
G01*
X127793750Y-73025000D02*
X129381250Y-73025000D01*
X125412500Y-75406250D02*
G75*
G02X127793750Y-73025000I2381250J0D01*
G01*
X130175000Y-73818750D02*
X129381250Y-73025000D01*
X132556250Y-73818750D02*
X130175000Y-73818750D01*
X228600000Y-74612500D02*
X228600000Y-75406250D01*
X227806250Y-74612500D02*
X228600000Y-74612500D01*
X227806250Y-75406250D02*
X227806250Y-74612500D01*
X228600000Y-95250000D02*
X228600000Y-75406250D01*
X227806250Y-75406250D02*
X227806250Y-95250000D01*
X227806250Y-95250000D02*
X228600000Y-95250000D01*
X243681250Y-75406250D02*
X243681250Y-96043750D01*
X133350000Y-73818750D02*
X132556250Y-73818750D01*
X142875000Y-73818750D02*
X133350000Y-73818750D01*
X143668750Y-73025000D02*
X142875000Y-73818750D01*
X151606250Y-73025000D02*
X143668750Y-73025000D01*
X152400000Y-73818750D02*
X151606250Y-73025000D01*
X165100000Y-73818750D02*
X152400000Y-73818750D01*
X165893750Y-73025000D02*
X165100000Y-73818750D01*
X167481250Y-73025000D02*
X165893750Y-73025000D01*
X173831250Y-73025000D02*
X167481250Y-73025000D01*
X174625000Y-73818750D02*
X173831250Y-73025000D01*
X187325000Y-73818750D02*
X174625000Y-73818750D01*
X188118750Y-73025000D02*
X187325000Y-73818750D01*
X196056250Y-73025000D02*
X188118750Y-73025000D01*
X196850000Y-73818750D02*
X196056250Y-73025000D01*
X209550000Y-73818750D02*
X196850000Y-73818750D01*
X210343750Y-73025000D02*
X209550000Y-73818750D01*
X218281250Y-73025000D02*
X210343750Y-73025000D01*
X219075000Y-73818750D02*
X218281250Y-73025000D01*
X230981250Y-73818750D02*
X219075000Y-73818750D01*
X231775000Y-73025000D02*
X230981250Y-73818750D01*
X240506250Y-73025000D02*
X231775000Y-73025000D01*
X142875000Y-97631250D02*
X132556250Y-97631250D01*
X163512500Y-97631250D02*
X153987500Y-97631250D01*
X185737500Y-97631250D02*
X176212500Y-97631250D01*
X207962500Y-97631250D02*
X198437500Y-97631250D01*
X230187500Y-97631250D02*
X220662500Y-97631250D01*
X151606250Y-98425000D02*
X143668750Y-98425000D01*
X152400000Y-97631250D02*
X151606250Y-98425000D01*
X153987500Y-97631250D02*
X152400000Y-97631250D01*
X165100000Y-97631250D02*
X163512500Y-97631250D01*
X165893750Y-98425000D02*
X165100000Y-97631250D01*
X173831250Y-98425000D02*
X165893750Y-98425000D01*
X174625000Y-97631250D02*
X173831250Y-98425000D01*
X176212500Y-97631250D02*
X174625000Y-97631250D01*
X187325000Y-97631250D02*
X185737500Y-97631250D01*
X188118750Y-98425000D02*
X187325000Y-97631250D01*
X196056250Y-98425000D02*
X188118750Y-98425000D01*
X196850000Y-97631250D02*
X196056250Y-98425000D01*
X198437500Y-97631250D02*
X196850000Y-97631250D01*
X209550000Y-97631250D02*
X207962500Y-97631250D01*
X210343750Y-98425000D02*
X209550000Y-97631250D01*
X218281250Y-98425000D02*
X210343750Y-98425000D01*
X219075000Y-97631250D02*
X218281250Y-98425000D01*
X220662500Y-97631250D02*
X219075000Y-97631250D01*
X231775000Y-97631250D02*
X230187500Y-97631250D01*
X232568750Y-98425000D02*
X231775000Y-97631250D01*
X240506250Y-98425000D02*
X232568750Y-98425000D01*
X143668750Y-98425000D02*
X142875000Y-97631250D01*
X241300000Y-73025000D02*
X240506250Y-73025000D01*
X241300000Y-98425000D02*
X240506250Y-98425000D01*
X241300000Y-73025000D02*
G75*
G02X243681250Y-75406250I0J-2381250D01*
G01*
X243681250Y-96043750D02*
G75*
G02X241300000Y-98425000I-2381250J0D01*
G01*
M02*
