G04 #@! TF.GenerationSoftware,KiCad,Pcbnew,(5.1.4)-1*
G04 #@! TF.CreationDate,2021-12-24T02:42:09+01:00*
G04 #@! TF.ProjectId,5Plank,35506c61-6e6b-42e6-9b69-6361645f7063,rev?*
G04 #@! TF.SameCoordinates,Original*
G04 #@! TF.FileFunction,Copper,L2,Bot*
G04 #@! TF.FilePolarity,Positive*
%FSLAX46Y46*%
G04 Gerber Fmt 4.6, Leading zero omitted, Abs format (unit mm)*
G04 Created by KiCad (PCBNEW (5.1.4)-1) date 2021-12-24 02:42:09*
%MOMM*%
%LPD*%
G04 APERTURE LIST*
%ADD10R,2.000000X2.000000*%
%ADD11C,2.000000*%
%ADD12R,2.000000X3.200000*%
%ADD13C,2.200000*%
%ADD14C,1.600000*%
%ADD15R,1.600000X1.600000*%
%ADD16C,0.381000*%
%ADD17C,0.254000*%
G04 APERTURE END LIST*
D10*
X233200000Y-92868750D03*
D11*
X235700000Y-92868750D03*
X238200000Y-92868750D03*
D12*
X230100000Y-85368750D03*
X241300000Y-85368750D03*
D11*
X233200000Y-78368750D03*
X238200000Y-78368750D03*
D13*
X176371250Y-83185000D03*
X182721250Y-80645000D03*
D14*
X133667500Y-78105000D03*
X136207500Y-78105000D03*
X138747500Y-78105000D03*
X141287500Y-78105000D03*
X143827500Y-78105000D03*
X146367500Y-78105000D03*
X148907500Y-78105000D03*
X151447500Y-78105000D03*
X153987500Y-78105000D03*
X156527500Y-78105000D03*
X159067500Y-78105000D03*
X161607500Y-78105000D03*
X161607500Y-93345000D03*
X159067500Y-93345000D03*
X156527500Y-93345000D03*
X153987500Y-93345000D03*
X151447500Y-93345000D03*
X148907500Y-93345000D03*
X146367500Y-93345000D03*
X143827500Y-93345000D03*
X141287500Y-93345000D03*
X138747500Y-93345000D03*
X136207500Y-93345000D03*
D15*
X133667500Y-93345000D03*
D13*
X214471250Y-83185000D03*
X220821250Y-80645000D03*
X195421250Y-83185000D03*
X201771250Y-80645000D03*
X157321250Y-83185000D03*
X163671250Y-80645000D03*
X138112500Y-83185000D03*
X144462500Y-80645000D03*
D16*
X138747500Y-93345000D02*
X141287500Y-93345000D01*
X137947501Y-92545001D02*
X138747500Y-93345000D01*
X135407501Y-90005001D02*
X137947501Y-92545001D01*
X136207500Y-78105000D02*
X135407501Y-78904999D01*
X136207500Y-81280000D02*
X138112500Y-83185000D01*
X136207500Y-78105000D02*
X136207500Y-81280000D01*
X136207500Y-82220002D02*
X135407501Y-83020001D01*
X136207500Y-81280000D02*
X136207500Y-82220002D01*
X135407501Y-78904999D02*
X135407501Y-83020001D01*
X135407501Y-87465001D02*
X141287500Y-93345000D01*
X135407501Y-86842499D02*
X135407501Y-87465001D01*
X135407501Y-86842499D02*
X135407501Y-90005001D01*
X135407501Y-83020001D02*
X135407501Y-86842499D01*
X155765616Y-83185000D02*
X149256866Y-89693750D01*
X157321250Y-83185000D02*
X155765616Y-83185000D01*
X144938750Y-89693750D02*
X141287500Y-93345000D01*
X149256866Y-89693750D02*
X144938750Y-89693750D01*
X176371250Y-83185000D02*
X157321250Y-83185000D01*
X195421250Y-83185000D02*
X176371250Y-83185000D01*
X205740000Y-83185000D02*
X195421250Y-83185000D01*
X214471250Y-83185000D02*
X206533750Y-83185000D01*
X206533750Y-83185000D02*
X205740000Y-83185000D01*
X238200000Y-78368750D02*
X238200000Y-86443750D01*
X235700000Y-88943750D02*
X235700000Y-92868750D01*
X238200000Y-86443750D02*
X235700000Y-88943750D01*
X218598750Y-95250000D02*
X216852500Y-93503750D01*
X216852500Y-93503750D02*
X206533750Y-83185000D01*
X138906250Y-90963750D02*
X141287500Y-93345000D01*
X138906250Y-84931250D02*
X138906250Y-90963750D01*
X136207500Y-78105000D02*
X136207500Y-79236370D01*
X136207500Y-79236370D02*
X137139880Y-80168750D01*
X137139880Y-80168750D02*
X138906250Y-80168750D01*
X138906250Y-80168750D02*
X140493750Y-81756250D01*
X140493750Y-81756250D02*
X140493750Y-83343750D01*
X140493750Y-83343750D02*
X138906250Y-84931250D01*
X235700000Y-92868750D02*
X235700000Y-95206250D01*
X235700000Y-95206250D02*
X234068750Y-96837500D01*
X220186250Y-96837500D02*
X218440000Y-95091250D01*
X234068750Y-96837500D02*
X220186250Y-96837500D01*
X219392500Y-96043750D02*
X218440000Y-95091250D01*
X218440000Y-95091250D02*
X216852500Y-93503750D01*
D17*
X161871250Y-78368750D02*
X161607500Y-78105000D01*
X161607500Y-75723750D02*
X161607500Y-78105000D01*
X165100000Y-74612500D02*
X162718750Y-74612500D01*
X169068750Y-78581250D02*
X165100000Y-74612500D01*
X170656250Y-78581250D02*
X169068750Y-78581250D01*
X212725000Y-78581250D02*
X208756250Y-74612500D01*
X208756250Y-74612500D02*
X174625000Y-74612500D01*
X162718750Y-74612500D02*
X161607500Y-75723750D01*
X174625000Y-74612500D02*
X170656250Y-78581250D01*
X220869462Y-78581250D02*
X220662500Y-78581250D01*
X220662500Y-78581250D02*
X212725000Y-78581250D01*
X223837500Y-78581250D02*
X220662500Y-78581250D01*
X225425000Y-94456250D02*
X225425000Y-80168750D01*
X227012500Y-96043750D02*
X225425000Y-94456250D01*
X228600000Y-96043750D02*
X227012500Y-96043750D01*
X233200000Y-78368750D02*
X233200000Y-80006250D01*
X233200000Y-80006250D02*
X231775000Y-81431250D01*
X231775000Y-81431250D02*
X231775000Y-90487500D01*
X225425000Y-80168750D02*
X223837500Y-78581250D01*
X231775000Y-90487500D02*
X230981250Y-91281250D01*
X230981250Y-91281250D02*
X230981250Y-93662500D01*
X230981250Y-93662500D02*
X228600000Y-96043750D01*
G36*
X130085197Y-74702303D02*
G01*
X130104443Y-74718097D01*
X130126399Y-74729833D01*
X130150224Y-74737060D01*
X130175000Y-74739500D01*
X142875000Y-74739500D01*
X142899776Y-74737060D01*
X142923601Y-74729833D01*
X142945557Y-74718097D01*
X142964803Y-74702303D01*
X143721356Y-73945750D01*
X151553644Y-73945750D01*
X152310197Y-74702303D01*
X152329443Y-74718097D01*
X152351399Y-74729833D01*
X152375224Y-74737060D01*
X152400000Y-74739500D01*
X161514119Y-74739500D01*
X161095154Y-75158466D01*
X161066078Y-75182328D01*
X161018509Y-75240292D01*
X160970855Y-75298358D01*
X160947611Y-75341845D01*
X160900098Y-75430736D01*
X160856526Y-75574373D01*
X160845500Y-75686324D01*
X160841814Y-75723750D01*
X160845500Y-75761173D01*
X160845500Y-76888293D01*
X160692741Y-76990363D01*
X160492863Y-77190241D01*
X160337500Y-77422759D01*
X160182137Y-77190241D01*
X159982259Y-76990363D01*
X159747227Y-76833320D01*
X159486074Y-76725147D01*
X159208835Y-76670000D01*
X158926165Y-76670000D01*
X158648926Y-76725147D01*
X158387773Y-76833320D01*
X158152741Y-76990363D01*
X157952863Y-77190241D01*
X157797500Y-77422759D01*
X157642137Y-77190241D01*
X157442259Y-76990363D01*
X157207227Y-76833320D01*
X156946074Y-76725147D01*
X156668835Y-76670000D01*
X156386165Y-76670000D01*
X156108926Y-76725147D01*
X155847773Y-76833320D01*
X155612741Y-76990363D01*
X155412863Y-77190241D01*
X155257500Y-77422759D01*
X155102137Y-77190241D01*
X154902259Y-76990363D01*
X154667227Y-76833320D01*
X154406074Y-76725147D01*
X154128835Y-76670000D01*
X153846165Y-76670000D01*
X153568926Y-76725147D01*
X153307773Y-76833320D01*
X153072741Y-76990363D01*
X152872863Y-77190241D01*
X152717500Y-77422759D01*
X152562137Y-77190241D01*
X152362259Y-76990363D01*
X152127227Y-76833320D01*
X151866074Y-76725147D01*
X151588835Y-76670000D01*
X151306165Y-76670000D01*
X151028926Y-76725147D01*
X150767773Y-76833320D01*
X150532741Y-76990363D01*
X150332863Y-77190241D01*
X150177500Y-77422759D01*
X150022137Y-77190241D01*
X149822259Y-76990363D01*
X149587227Y-76833320D01*
X149326074Y-76725147D01*
X149048835Y-76670000D01*
X148766165Y-76670000D01*
X148488926Y-76725147D01*
X148227773Y-76833320D01*
X147992741Y-76990363D01*
X147792863Y-77190241D01*
X147637500Y-77422759D01*
X147482137Y-77190241D01*
X147282259Y-76990363D01*
X147047227Y-76833320D01*
X146786074Y-76725147D01*
X146508835Y-76670000D01*
X146226165Y-76670000D01*
X145948926Y-76725147D01*
X145687773Y-76833320D01*
X145452741Y-76990363D01*
X145252863Y-77190241D01*
X145097500Y-77422759D01*
X144942137Y-77190241D01*
X144742259Y-76990363D01*
X144507227Y-76833320D01*
X144246074Y-76725147D01*
X143968835Y-76670000D01*
X143686165Y-76670000D01*
X143408926Y-76725147D01*
X143147773Y-76833320D01*
X142912741Y-76990363D01*
X142712863Y-77190241D01*
X142557500Y-77422759D01*
X142402137Y-77190241D01*
X142202259Y-76990363D01*
X141967227Y-76833320D01*
X141706074Y-76725147D01*
X141428835Y-76670000D01*
X141146165Y-76670000D01*
X140868926Y-76725147D01*
X140607773Y-76833320D01*
X140372741Y-76990363D01*
X140172863Y-77190241D01*
X140017500Y-77422759D01*
X139862137Y-77190241D01*
X139662259Y-76990363D01*
X139427227Y-76833320D01*
X139166074Y-76725147D01*
X138888835Y-76670000D01*
X138606165Y-76670000D01*
X138328926Y-76725147D01*
X138067773Y-76833320D01*
X137832741Y-76990363D01*
X137632863Y-77190241D01*
X137476585Y-77424128D01*
X137444171Y-77363486D01*
X137200202Y-77291903D01*
X136387105Y-78105000D01*
X137200202Y-78918097D01*
X137444171Y-78846514D01*
X137474694Y-78782008D01*
X137475820Y-78784727D01*
X137632863Y-79019759D01*
X137832741Y-79219637D01*
X138067773Y-79376680D01*
X138328926Y-79484853D01*
X138606165Y-79540000D01*
X138888835Y-79540000D01*
X139166074Y-79484853D01*
X139427227Y-79376680D01*
X139662259Y-79219637D01*
X139862137Y-79019759D01*
X140017500Y-78787241D01*
X140172863Y-79019759D01*
X140372741Y-79219637D01*
X140607773Y-79376680D01*
X140868926Y-79484853D01*
X141146165Y-79540000D01*
X141428835Y-79540000D01*
X141706074Y-79484853D01*
X141967227Y-79376680D01*
X142202259Y-79219637D01*
X142402137Y-79019759D01*
X142557500Y-78787241D01*
X142712863Y-79019759D01*
X142912741Y-79219637D01*
X143147773Y-79376680D01*
X143239263Y-79414576D01*
X143114837Y-79539002D01*
X142924963Y-79823169D01*
X142794175Y-80138919D01*
X142727500Y-80474117D01*
X142727500Y-80815883D01*
X142794175Y-81151081D01*
X142924963Y-81466831D01*
X143114837Y-81750998D01*
X143356502Y-81992663D01*
X143640669Y-82182537D01*
X143956419Y-82313325D01*
X144291617Y-82380000D01*
X144633383Y-82380000D01*
X144968581Y-82313325D01*
X145284331Y-82182537D01*
X145568498Y-81992663D01*
X145582873Y-81978288D01*
X156294143Y-81978288D01*
X157321250Y-83005395D01*
X158348357Y-81978288D01*
X158240524Y-81703662D01*
X157933866Y-81552784D01*
X157603665Y-81464631D01*
X157262611Y-81442591D01*
X156923811Y-81487511D01*
X156600284Y-81597664D01*
X156401976Y-81703662D01*
X156294143Y-81978288D01*
X145582873Y-81978288D01*
X145810163Y-81750998D01*
X146000037Y-81466831D01*
X146130825Y-81151081D01*
X146197500Y-80815883D01*
X146197500Y-80474117D01*
X161936250Y-80474117D01*
X161936250Y-80815883D01*
X162002925Y-81151081D01*
X162133713Y-81466831D01*
X162323587Y-81750998D01*
X162565252Y-81992663D01*
X162849419Y-82182537D01*
X163165169Y-82313325D01*
X163500367Y-82380000D01*
X163842133Y-82380000D01*
X164177331Y-82313325D01*
X164493081Y-82182537D01*
X164777248Y-81992663D01*
X164791623Y-81978288D01*
X175344143Y-81978288D01*
X176371250Y-83005395D01*
X177398357Y-81978288D01*
X177290524Y-81703662D01*
X176983866Y-81552784D01*
X176653665Y-81464631D01*
X176312611Y-81442591D01*
X175973811Y-81487511D01*
X175650284Y-81597664D01*
X175451976Y-81703662D01*
X175344143Y-81978288D01*
X164791623Y-81978288D01*
X165018913Y-81750998D01*
X165208787Y-81466831D01*
X165339575Y-81151081D01*
X165406250Y-80815883D01*
X165406250Y-80474117D01*
X180986250Y-80474117D01*
X180986250Y-80815883D01*
X181052925Y-81151081D01*
X181183713Y-81466831D01*
X181373587Y-81750998D01*
X181615252Y-81992663D01*
X181899419Y-82182537D01*
X182215169Y-82313325D01*
X182550367Y-82380000D01*
X182892133Y-82380000D01*
X183227331Y-82313325D01*
X183543081Y-82182537D01*
X183827248Y-81992663D01*
X183841623Y-81978288D01*
X194394143Y-81978288D01*
X195421250Y-83005395D01*
X196448357Y-81978288D01*
X196340524Y-81703662D01*
X196033866Y-81552784D01*
X195703665Y-81464631D01*
X195362611Y-81442591D01*
X195023811Y-81487511D01*
X194700284Y-81597664D01*
X194501976Y-81703662D01*
X194394143Y-81978288D01*
X183841623Y-81978288D01*
X184068913Y-81750998D01*
X184258787Y-81466831D01*
X184389575Y-81151081D01*
X184456250Y-80815883D01*
X184456250Y-80474117D01*
X200036250Y-80474117D01*
X200036250Y-80815883D01*
X200102925Y-81151081D01*
X200233713Y-81466831D01*
X200423587Y-81750998D01*
X200665252Y-81992663D01*
X200949419Y-82182537D01*
X201265169Y-82313325D01*
X201600367Y-82380000D01*
X201942133Y-82380000D01*
X202277331Y-82313325D01*
X202593081Y-82182537D01*
X202877248Y-81992663D01*
X202891623Y-81978288D01*
X213444143Y-81978288D01*
X214471250Y-83005395D01*
X215498357Y-81978288D01*
X215390524Y-81703662D01*
X215083866Y-81552784D01*
X214753665Y-81464631D01*
X214412611Y-81442591D01*
X214073811Y-81487511D01*
X213750284Y-81597664D01*
X213551976Y-81703662D01*
X213444143Y-81978288D01*
X202891623Y-81978288D01*
X203118913Y-81750998D01*
X203308787Y-81466831D01*
X203439575Y-81151081D01*
X203506250Y-80815883D01*
X203506250Y-80474117D01*
X203439575Y-80138919D01*
X203308787Y-79823169D01*
X203118913Y-79539002D01*
X202877248Y-79297337D01*
X202593081Y-79107463D01*
X202277331Y-78976675D01*
X201942133Y-78910000D01*
X201600367Y-78910000D01*
X201265169Y-78976675D01*
X200949419Y-79107463D01*
X200665252Y-79297337D01*
X200423587Y-79539002D01*
X200233713Y-79823169D01*
X200102925Y-80138919D01*
X200036250Y-80474117D01*
X184456250Y-80474117D01*
X184389575Y-80138919D01*
X184258787Y-79823169D01*
X184068913Y-79539002D01*
X183827248Y-79297337D01*
X183543081Y-79107463D01*
X183227331Y-78976675D01*
X182892133Y-78910000D01*
X182550367Y-78910000D01*
X182215169Y-78976675D01*
X181899419Y-79107463D01*
X181615252Y-79297337D01*
X181373587Y-79539002D01*
X181183713Y-79823169D01*
X181052925Y-80138919D01*
X180986250Y-80474117D01*
X165406250Y-80474117D01*
X165339575Y-80138919D01*
X165208787Y-79823169D01*
X165018913Y-79539002D01*
X164777248Y-79297337D01*
X164493081Y-79107463D01*
X164177331Y-78976675D01*
X163842133Y-78910000D01*
X163500367Y-78910000D01*
X163165169Y-78976675D01*
X162849419Y-79107463D01*
X162565252Y-79297337D01*
X162323587Y-79539002D01*
X162133713Y-79823169D01*
X162002925Y-80138919D01*
X161936250Y-80474117D01*
X146197500Y-80474117D01*
X146130825Y-80138919D01*
X146000037Y-79823169D01*
X145810163Y-79539002D01*
X145568498Y-79297337D01*
X145284331Y-79107463D01*
X144970417Y-78977435D01*
X145097500Y-78787241D01*
X145252863Y-79019759D01*
X145452741Y-79219637D01*
X145687773Y-79376680D01*
X145948926Y-79484853D01*
X146226165Y-79540000D01*
X146508835Y-79540000D01*
X146786074Y-79484853D01*
X147047227Y-79376680D01*
X147282259Y-79219637D01*
X147482137Y-79019759D01*
X147637500Y-78787241D01*
X147792863Y-79019759D01*
X147992741Y-79219637D01*
X148227773Y-79376680D01*
X148488926Y-79484853D01*
X148766165Y-79540000D01*
X149048835Y-79540000D01*
X149326074Y-79484853D01*
X149587227Y-79376680D01*
X149822259Y-79219637D01*
X150022137Y-79019759D01*
X150177500Y-78787241D01*
X150332863Y-79019759D01*
X150532741Y-79219637D01*
X150767773Y-79376680D01*
X151028926Y-79484853D01*
X151306165Y-79540000D01*
X151588835Y-79540000D01*
X151866074Y-79484853D01*
X152127227Y-79376680D01*
X152362259Y-79219637D01*
X152562137Y-79019759D01*
X152717500Y-78787241D01*
X152872863Y-79019759D01*
X153072741Y-79219637D01*
X153307773Y-79376680D01*
X153568926Y-79484853D01*
X153846165Y-79540000D01*
X154128835Y-79540000D01*
X154406074Y-79484853D01*
X154667227Y-79376680D01*
X154902259Y-79219637D01*
X155102137Y-79019759D01*
X155257500Y-78787241D01*
X155412863Y-79019759D01*
X155612741Y-79219637D01*
X155847773Y-79376680D01*
X156108926Y-79484853D01*
X156386165Y-79540000D01*
X156668835Y-79540000D01*
X156946074Y-79484853D01*
X157207227Y-79376680D01*
X157442259Y-79219637D01*
X157642137Y-79019759D01*
X157797500Y-78787241D01*
X157952863Y-79019759D01*
X158152741Y-79219637D01*
X158387773Y-79376680D01*
X158648926Y-79484853D01*
X158926165Y-79540000D01*
X159208835Y-79540000D01*
X159486074Y-79484853D01*
X159747227Y-79376680D01*
X159982259Y-79219637D01*
X160182137Y-79019759D01*
X160337500Y-78787241D01*
X160492863Y-79019759D01*
X160692741Y-79219637D01*
X160927773Y-79376680D01*
X161188926Y-79484853D01*
X161466165Y-79540000D01*
X161748835Y-79540000D01*
X162026074Y-79484853D01*
X162287227Y-79376680D01*
X162522259Y-79219637D01*
X162722137Y-79019759D01*
X162879180Y-78784727D01*
X162987353Y-78523574D01*
X163042500Y-78246335D01*
X163042500Y-77963665D01*
X162987353Y-77686426D01*
X162879180Y-77425273D01*
X162722137Y-77190241D01*
X162522259Y-76990363D01*
X162369500Y-76888293D01*
X162369500Y-76039380D01*
X163034381Y-75374500D01*
X164784370Y-75374500D01*
X168503470Y-79093601D01*
X168527328Y-79122672D01*
X168643358Y-79217895D01*
X168775735Y-79288652D01*
X168919372Y-79332224D01*
X169031324Y-79343250D01*
X169031326Y-79343250D01*
X169068749Y-79346936D01*
X169106172Y-79343250D01*
X170618827Y-79343250D01*
X170656250Y-79346936D01*
X170693673Y-79343250D01*
X170693676Y-79343250D01*
X170805628Y-79332224D01*
X170949265Y-79288652D01*
X171081642Y-79217895D01*
X171197672Y-79122672D01*
X171221534Y-79093596D01*
X174940631Y-75374500D01*
X208440620Y-75374500D01*
X212159720Y-79093601D01*
X212183578Y-79122672D01*
X212299608Y-79217895D01*
X212431985Y-79288652D01*
X212575622Y-79332224D01*
X212687574Y-79343250D01*
X212687576Y-79343250D01*
X212724999Y-79346936D01*
X212762422Y-79343250D01*
X219669339Y-79343250D01*
X219473587Y-79539002D01*
X219283713Y-79823169D01*
X219152925Y-80138919D01*
X219086250Y-80474117D01*
X219086250Y-80815883D01*
X219152925Y-81151081D01*
X219283713Y-81466831D01*
X219473587Y-81750998D01*
X219715252Y-81992663D01*
X219999419Y-82182537D01*
X220315169Y-82313325D01*
X220650367Y-82380000D01*
X220992133Y-82380000D01*
X221327331Y-82313325D01*
X221643081Y-82182537D01*
X221927248Y-81992663D01*
X222168913Y-81750998D01*
X222358787Y-81466831D01*
X222489575Y-81151081D01*
X222556250Y-80815883D01*
X222556250Y-80474117D01*
X222489575Y-80138919D01*
X222358787Y-79823169D01*
X222168913Y-79539002D01*
X221973161Y-79343250D01*
X223521870Y-79343250D01*
X224663001Y-80484382D01*
X224663001Y-85000278D01*
X224514725Y-84778368D01*
X224307882Y-84571525D01*
X224064661Y-84409010D01*
X223794408Y-84297068D01*
X223507510Y-84240000D01*
X223214990Y-84240000D01*
X222928092Y-84297068D01*
X222657839Y-84409010D01*
X222414618Y-84571525D01*
X222207775Y-84778368D01*
X222045260Y-85021589D01*
X221933318Y-85291842D01*
X221876250Y-85578740D01*
X221876250Y-85871260D01*
X221933318Y-86158158D01*
X222045260Y-86428411D01*
X222207775Y-86671632D01*
X222414618Y-86878475D01*
X222657839Y-87040990D01*
X222928092Y-87152932D01*
X223214990Y-87210000D01*
X223507510Y-87210000D01*
X223794408Y-87152932D01*
X224064661Y-87040990D01*
X224307882Y-86878475D01*
X224514725Y-86671632D01*
X224663001Y-86449722D01*
X224663000Y-94418827D01*
X224659314Y-94456250D01*
X224663000Y-94493673D01*
X224663000Y-94493675D01*
X224674026Y-94605627D01*
X224717598Y-94749264D01*
X224734027Y-94780000D01*
X224788355Y-94881642D01*
X224823811Y-94924845D01*
X224883578Y-94997672D01*
X224912654Y-95021534D01*
X226447221Y-96556102D01*
X226471078Y-96585172D01*
X226587108Y-96680395D01*
X226643430Y-96710500D01*
X219075000Y-96710500D01*
X219050224Y-96712940D01*
X219026399Y-96720167D01*
X219004443Y-96731903D01*
X218985197Y-96747697D01*
X218228644Y-97504250D01*
X215159628Y-97504250D01*
X215386625Y-97352575D01*
X215621325Y-97117875D01*
X215805728Y-96841897D01*
X215932746Y-96535246D01*
X215997500Y-96209708D01*
X215997500Y-95877792D01*
X215932746Y-95552254D01*
X215805728Y-95245603D01*
X215621325Y-94969625D01*
X215386625Y-94734925D01*
X215110647Y-94550522D01*
X214803996Y-94423504D01*
X214478458Y-94358750D01*
X214146542Y-94358750D01*
X213821004Y-94423504D01*
X213514353Y-94550522D01*
X213238375Y-94734925D01*
X213003675Y-94969625D01*
X212819272Y-95245603D01*
X212692254Y-95552254D01*
X212627500Y-95877792D01*
X212627500Y-96209708D01*
X212692254Y-96535246D01*
X212819272Y-96841897D01*
X213003675Y-97117875D01*
X213238375Y-97352575D01*
X213465372Y-97504250D01*
X210396356Y-97504250D01*
X209639803Y-96747697D01*
X209620557Y-96731903D01*
X209598601Y-96720167D01*
X209574776Y-96712940D01*
X209550000Y-96710500D01*
X196850000Y-96710500D01*
X196825224Y-96712940D01*
X196801399Y-96720167D01*
X196779443Y-96731903D01*
X196760197Y-96747697D01*
X196003644Y-97504250D01*
X188171356Y-97504250D01*
X187414803Y-96747697D01*
X187395557Y-96731903D01*
X187373601Y-96720167D01*
X187349776Y-96712940D01*
X187325000Y-96710500D01*
X174625000Y-96710500D01*
X174600224Y-96712940D01*
X174576399Y-96720167D01*
X174554443Y-96731903D01*
X174535197Y-96747697D01*
X173778644Y-97504250D01*
X170709628Y-97504250D01*
X170936625Y-97352575D01*
X171171325Y-97117875D01*
X171355728Y-96841897D01*
X171482746Y-96535246D01*
X171547500Y-96209708D01*
X171547500Y-95877792D01*
X171482746Y-95552254D01*
X171355728Y-95245603D01*
X171171325Y-94969625D01*
X170936625Y-94734925D01*
X170660647Y-94550522D01*
X170353996Y-94423504D01*
X170028458Y-94358750D01*
X169696542Y-94358750D01*
X169371004Y-94423504D01*
X169064353Y-94550522D01*
X168788375Y-94734925D01*
X168553675Y-94969625D01*
X168369272Y-95245603D01*
X168242254Y-95552254D01*
X168177500Y-95877792D01*
X168177500Y-96209708D01*
X168242254Y-96535246D01*
X168369272Y-96841897D01*
X168553675Y-97117875D01*
X168788375Y-97352575D01*
X169015372Y-97504250D01*
X165946356Y-97504250D01*
X165189803Y-96747697D01*
X165170557Y-96731903D01*
X165148601Y-96720167D01*
X165124776Y-96712940D01*
X165100000Y-96710500D01*
X152400000Y-96710500D01*
X152375224Y-96712940D01*
X152351399Y-96720167D01*
X152329443Y-96731903D01*
X152310197Y-96747697D01*
X151553644Y-97504250D01*
X143721356Y-97504250D01*
X142964803Y-96747697D01*
X142945557Y-96731903D01*
X142923601Y-96720167D01*
X142899776Y-96712940D01*
X142875000Y-96710500D01*
X130175000Y-96710500D01*
X130150224Y-96712940D01*
X130126399Y-96720167D01*
X130104443Y-96731903D01*
X130085197Y-96747697D01*
X129328644Y-97504250D01*
X128640878Y-97504250D01*
X128867875Y-97352575D01*
X129102575Y-97117875D01*
X129286978Y-96841897D01*
X129413996Y-96535246D01*
X129478750Y-96209708D01*
X129478750Y-95877792D01*
X129413996Y-95552254D01*
X129286978Y-95245603D01*
X129102575Y-94969625D01*
X128867875Y-94734925D01*
X128629436Y-94575605D01*
X128636101Y-94573583D01*
X128658057Y-94561847D01*
X128677303Y-94546053D01*
X130678356Y-92545000D01*
X132229428Y-92545000D01*
X132229428Y-94145000D01*
X132241688Y-94269482D01*
X132277998Y-94389180D01*
X132336963Y-94499494D01*
X132416315Y-94596185D01*
X132513006Y-94675537D01*
X132623320Y-94734502D01*
X132743018Y-94770812D01*
X132867500Y-94783072D01*
X134467500Y-94783072D01*
X134591982Y-94770812D01*
X134711680Y-94734502D01*
X134821994Y-94675537D01*
X134918685Y-94596185D01*
X134998037Y-94499494D01*
X135057002Y-94389180D01*
X135093312Y-94269482D01*
X135094143Y-94261039D01*
X135292741Y-94459637D01*
X135527773Y-94616680D01*
X135788926Y-94724853D01*
X136066165Y-94780000D01*
X136348835Y-94780000D01*
X136626074Y-94724853D01*
X136887227Y-94616680D01*
X137122259Y-94459637D01*
X137244194Y-94337702D01*
X137934403Y-94337702D01*
X138005986Y-94581671D01*
X138261496Y-94702571D01*
X138535684Y-94771300D01*
X138818012Y-94785217D01*
X139097630Y-94743787D01*
X139363792Y-94648603D01*
X139489014Y-94581671D01*
X139560597Y-94337702D01*
X140474403Y-94337702D01*
X140545986Y-94581671D01*
X140801496Y-94702571D01*
X141075684Y-94771300D01*
X141358012Y-94785217D01*
X141637630Y-94743787D01*
X141903792Y-94648603D01*
X142029014Y-94581671D01*
X142100597Y-94337702D01*
X141287500Y-93524605D01*
X140474403Y-94337702D01*
X139560597Y-94337702D01*
X138747500Y-93524605D01*
X137934403Y-94337702D01*
X137244194Y-94337702D01*
X137322137Y-94259759D01*
X137478415Y-94025872D01*
X137510829Y-94086514D01*
X137754798Y-94158097D01*
X138567895Y-93345000D01*
X138927105Y-93345000D01*
X139740202Y-94158097D01*
X139984171Y-94086514D01*
X140015471Y-94020364D01*
X140050829Y-94086514D01*
X140294798Y-94158097D01*
X141107895Y-93345000D01*
X141467105Y-93345000D01*
X142280202Y-94158097D01*
X142524171Y-94086514D01*
X142554694Y-94022008D01*
X142555820Y-94024727D01*
X142712863Y-94259759D01*
X142912741Y-94459637D01*
X143147773Y-94616680D01*
X143408926Y-94724853D01*
X143686165Y-94780000D01*
X143968835Y-94780000D01*
X144246074Y-94724853D01*
X144507227Y-94616680D01*
X144742259Y-94459637D01*
X144942137Y-94259759D01*
X145097500Y-94027241D01*
X145252863Y-94259759D01*
X145452741Y-94459637D01*
X145687773Y-94616680D01*
X145948926Y-94724853D01*
X146226165Y-94780000D01*
X146508835Y-94780000D01*
X146786074Y-94724853D01*
X147047227Y-94616680D01*
X147282259Y-94459637D01*
X147482137Y-94259759D01*
X147637500Y-94027241D01*
X147792863Y-94259759D01*
X147992741Y-94459637D01*
X148227773Y-94616680D01*
X148488926Y-94724853D01*
X148766165Y-94780000D01*
X149048835Y-94780000D01*
X149326074Y-94724853D01*
X149587227Y-94616680D01*
X149822259Y-94459637D01*
X150022137Y-94259759D01*
X150177500Y-94027241D01*
X150332863Y-94259759D01*
X150532741Y-94459637D01*
X150767773Y-94616680D01*
X151028926Y-94724853D01*
X151306165Y-94780000D01*
X151588835Y-94780000D01*
X151866074Y-94724853D01*
X152127227Y-94616680D01*
X152362259Y-94459637D01*
X152562137Y-94259759D01*
X152717500Y-94027241D01*
X152872863Y-94259759D01*
X153072741Y-94459637D01*
X153307773Y-94616680D01*
X153568926Y-94724853D01*
X153846165Y-94780000D01*
X154128835Y-94780000D01*
X154406074Y-94724853D01*
X154667227Y-94616680D01*
X154902259Y-94459637D01*
X155102137Y-94259759D01*
X155257500Y-94027241D01*
X155412863Y-94259759D01*
X155612741Y-94459637D01*
X155847773Y-94616680D01*
X156108926Y-94724853D01*
X156386165Y-94780000D01*
X156668835Y-94780000D01*
X156946074Y-94724853D01*
X157207227Y-94616680D01*
X157442259Y-94459637D01*
X157642137Y-94259759D01*
X157797500Y-94027241D01*
X157952863Y-94259759D01*
X158152741Y-94459637D01*
X158387773Y-94616680D01*
X158648926Y-94724853D01*
X158926165Y-94780000D01*
X159208835Y-94780000D01*
X159486074Y-94724853D01*
X159747227Y-94616680D01*
X159982259Y-94459637D01*
X160182137Y-94259759D01*
X160337500Y-94027241D01*
X160492863Y-94259759D01*
X160692741Y-94459637D01*
X160927773Y-94616680D01*
X161188926Y-94724853D01*
X161466165Y-94780000D01*
X161748835Y-94780000D01*
X162026074Y-94724853D01*
X162287227Y-94616680D01*
X162522259Y-94459637D01*
X162722137Y-94259759D01*
X162879180Y-94024727D01*
X162987353Y-93763574D01*
X163042500Y-93486335D01*
X163042500Y-93203665D01*
X162987353Y-92926426D01*
X162879180Y-92665273D01*
X162722137Y-92430241D01*
X162522259Y-92230363D01*
X162287227Y-92073320D01*
X162026074Y-91965147D01*
X161748835Y-91910000D01*
X161466165Y-91910000D01*
X161188926Y-91965147D01*
X160927773Y-92073320D01*
X160692741Y-92230363D01*
X160492863Y-92430241D01*
X160337500Y-92662759D01*
X160182137Y-92430241D01*
X159982259Y-92230363D01*
X159747227Y-92073320D01*
X159486074Y-91965147D01*
X159208835Y-91910000D01*
X158926165Y-91910000D01*
X158648926Y-91965147D01*
X158387773Y-92073320D01*
X158152741Y-92230363D01*
X157952863Y-92430241D01*
X157797500Y-92662759D01*
X157642137Y-92430241D01*
X157442259Y-92230363D01*
X157207227Y-92073320D01*
X156946074Y-91965147D01*
X156668835Y-91910000D01*
X156386165Y-91910000D01*
X156108926Y-91965147D01*
X155847773Y-92073320D01*
X155612741Y-92230363D01*
X155412863Y-92430241D01*
X155257500Y-92662759D01*
X155102137Y-92430241D01*
X154902259Y-92230363D01*
X154667227Y-92073320D01*
X154406074Y-91965147D01*
X154128835Y-91910000D01*
X153846165Y-91910000D01*
X153568926Y-91965147D01*
X153307773Y-92073320D01*
X153072741Y-92230363D01*
X152872863Y-92430241D01*
X152717500Y-92662759D01*
X152562137Y-92430241D01*
X152362259Y-92230363D01*
X152127227Y-92073320D01*
X151866074Y-91965147D01*
X151588835Y-91910000D01*
X151306165Y-91910000D01*
X151028926Y-91965147D01*
X150767773Y-92073320D01*
X150532741Y-92230363D01*
X150332863Y-92430241D01*
X150177500Y-92662759D01*
X150022137Y-92430241D01*
X149822259Y-92230363D01*
X149587227Y-92073320D01*
X149326074Y-91965147D01*
X149048835Y-91910000D01*
X148766165Y-91910000D01*
X148488926Y-91965147D01*
X148227773Y-92073320D01*
X147992741Y-92230363D01*
X147792863Y-92430241D01*
X147637500Y-92662759D01*
X147482137Y-92430241D01*
X147282259Y-92230363D01*
X147047227Y-92073320D01*
X146786074Y-91965147D01*
X146508835Y-91910000D01*
X146226165Y-91910000D01*
X145948926Y-91965147D01*
X145687773Y-92073320D01*
X145452741Y-92230363D01*
X145252863Y-92430241D01*
X145097500Y-92662759D01*
X144942137Y-92430241D01*
X144742259Y-92230363D01*
X144507227Y-92073320D01*
X144246074Y-91965147D01*
X143968835Y-91910000D01*
X143686165Y-91910000D01*
X143408926Y-91965147D01*
X143147773Y-92073320D01*
X142912741Y-92230363D01*
X142712863Y-92430241D01*
X142556585Y-92664128D01*
X142524171Y-92603486D01*
X142280202Y-92531903D01*
X141467105Y-93345000D01*
X141107895Y-93345000D01*
X140294798Y-92531903D01*
X140050829Y-92603486D01*
X140019529Y-92669636D01*
X139984171Y-92603486D01*
X139740202Y-92531903D01*
X138927105Y-93345000D01*
X138567895Y-93345000D01*
X137754798Y-92531903D01*
X137510829Y-92603486D01*
X137480306Y-92667992D01*
X137479180Y-92665273D01*
X137322137Y-92430241D01*
X137244194Y-92352298D01*
X137934403Y-92352298D01*
X138747500Y-93165395D01*
X139560597Y-92352298D01*
X140474403Y-92352298D01*
X141287500Y-93165395D01*
X142100597Y-92352298D01*
X142029014Y-92108329D01*
X141773504Y-91987429D01*
X141499316Y-91918700D01*
X141216988Y-91904783D01*
X140937370Y-91946213D01*
X140671208Y-92041397D01*
X140545986Y-92108329D01*
X140474403Y-92352298D01*
X139560597Y-92352298D01*
X139489014Y-92108329D01*
X139233504Y-91987429D01*
X138959316Y-91918700D01*
X138676988Y-91904783D01*
X138397370Y-91946213D01*
X138131208Y-92041397D01*
X138005986Y-92108329D01*
X137934403Y-92352298D01*
X137244194Y-92352298D01*
X137122259Y-92230363D01*
X136887227Y-92073320D01*
X136626074Y-91965147D01*
X136348835Y-91910000D01*
X136066165Y-91910000D01*
X135788926Y-91965147D01*
X135527773Y-92073320D01*
X135292741Y-92230363D01*
X135094143Y-92428961D01*
X135093312Y-92420518D01*
X135057002Y-92300820D01*
X134998037Y-92190506D01*
X134918685Y-92093815D01*
X134821994Y-92014463D01*
X134711680Y-91955498D01*
X134591982Y-91919188D01*
X134467500Y-91906928D01*
X132867500Y-91906928D01*
X132743018Y-91919188D01*
X132623320Y-91955498D01*
X132513006Y-92014463D01*
X132416315Y-92093815D01*
X132336963Y-92190506D01*
X132277998Y-92300820D01*
X132241688Y-92420518D01*
X132229428Y-92545000D01*
X130678356Y-92545000D01*
X131852303Y-91371053D01*
X131868097Y-91351807D01*
X131879833Y-91329851D01*
X131887060Y-91306026D01*
X131889500Y-91281250D01*
X131889500Y-86572128D01*
X132041175Y-86799125D01*
X132275875Y-87033825D01*
X132551853Y-87218228D01*
X132858504Y-87345246D01*
X133184042Y-87410000D01*
X133515958Y-87410000D01*
X133841496Y-87345246D01*
X134148147Y-87218228D01*
X134424125Y-87033825D01*
X134658825Y-86799125D01*
X134843228Y-86523147D01*
X134970246Y-86216496D01*
X135035000Y-85890958D01*
X135035000Y-85578740D01*
X135357500Y-85578740D01*
X135357500Y-85871260D01*
X135414568Y-86158158D01*
X135526510Y-86428411D01*
X135689025Y-86671632D01*
X135895868Y-86878475D01*
X136139089Y-87040990D01*
X136409342Y-87152932D01*
X136696240Y-87210000D01*
X136988760Y-87210000D01*
X137275658Y-87152932D01*
X137545911Y-87040990D01*
X137789132Y-86878475D01*
X137995975Y-86671632D01*
X138158490Y-86428411D01*
X138270432Y-86158158D01*
X138327500Y-85871260D01*
X138327500Y-85578740D01*
X138304971Y-85465475D01*
X139287500Y-85465475D01*
X139287500Y-85984525D01*
X139388761Y-86493601D01*
X139587393Y-86973141D01*
X139875762Y-87404715D01*
X140242785Y-87771738D01*
X140674359Y-88060107D01*
X141153899Y-88258739D01*
X141662975Y-88360000D01*
X142182025Y-88360000D01*
X142691101Y-88258739D01*
X143170641Y-88060107D01*
X143602215Y-87771738D01*
X143969238Y-87404715D01*
X144257607Y-86973141D01*
X144456239Y-86493601D01*
X144557500Y-85984525D01*
X144557500Y-85578740D01*
X145517500Y-85578740D01*
X145517500Y-85871260D01*
X145574568Y-86158158D01*
X145686510Y-86428411D01*
X145849025Y-86671632D01*
X146055868Y-86878475D01*
X146299089Y-87040990D01*
X146569342Y-87152932D01*
X146856240Y-87210000D01*
X147148760Y-87210000D01*
X147435658Y-87152932D01*
X147705911Y-87040990D01*
X147949132Y-86878475D01*
X148155975Y-86671632D01*
X148318490Y-86428411D01*
X148430432Y-86158158D01*
X148487500Y-85871260D01*
X148487500Y-85578740D01*
X154566250Y-85578740D01*
X154566250Y-85871260D01*
X154623318Y-86158158D01*
X154735260Y-86428411D01*
X154897775Y-86671632D01*
X155104618Y-86878475D01*
X155347839Y-87040990D01*
X155618092Y-87152932D01*
X155904990Y-87210000D01*
X156197510Y-87210000D01*
X156484408Y-87152932D01*
X156754661Y-87040990D01*
X156997882Y-86878475D01*
X157204725Y-86671632D01*
X157367240Y-86428411D01*
X157479182Y-86158158D01*
X157536250Y-85871260D01*
X157536250Y-85578740D01*
X157513721Y-85465475D01*
X158496250Y-85465475D01*
X158496250Y-85984525D01*
X158597511Y-86493601D01*
X158796143Y-86973141D01*
X159084512Y-87404715D01*
X159451535Y-87771738D01*
X159883109Y-88060107D01*
X160362649Y-88258739D01*
X160871725Y-88360000D01*
X161390775Y-88360000D01*
X161899851Y-88258739D01*
X162379391Y-88060107D01*
X162810965Y-87771738D01*
X163177988Y-87404715D01*
X163466357Y-86973141D01*
X163664989Y-86493601D01*
X163766250Y-85984525D01*
X163766250Y-85578740D01*
X164726250Y-85578740D01*
X164726250Y-85871260D01*
X164783318Y-86158158D01*
X164895260Y-86428411D01*
X165057775Y-86671632D01*
X165264618Y-86878475D01*
X165507839Y-87040990D01*
X165778092Y-87152932D01*
X166064990Y-87210000D01*
X166357510Y-87210000D01*
X166644408Y-87152932D01*
X166914661Y-87040990D01*
X167157882Y-86878475D01*
X167364725Y-86671632D01*
X167527240Y-86428411D01*
X167639182Y-86158158D01*
X167696250Y-85871260D01*
X167696250Y-85578740D01*
X173616250Y-85578740D01*
X173616250Y-85871260D01*
X173673318Y-86158158D01*
X173785260Y-86428411D01*
X173947775Y-86671632D01*
X174154618Y-86878475D01*
X174397839Y-87040990D01*
X174668092Y-87152932D01*
X174954990Y-87210000D01*
X175247510Y-87210000D01*
X175534408Y-87152932D01*
X175804661Y-87040990D01*
X176047882Y-86878475D01*
X176254725Y-86671632D01*
X176417240Y-86428411D01*
X176529182Y-86158158D01*
X176586250Y-85871260D01*
X176586250Y-85578740D01*
X176563721Y-85465475D01*
X177546250Y-85465475D01*
X177546250Y-85984525D01*
X177647511Y-86493601D01*
X177846143Y-86973141D01*
X178134512Y-87404715D01*
X178501535Y-87771738D01*
X178933109Y-88060107D01*
X179412649Y-88258739D01*
X179921725Y-88360000D01*
X180440775Y-88360000D01*
X180949851Y-88258739D01*
X181429391Y-88060107D01*
X181860965Y-87771738D01*
X182227988Y-87404715D01*
X182516357Y-86973141D01*
X182714989Y-86493601D01*
X182816250Y-85984525D01*
X182816250Y-85578740D01*
X183776250Y-85578740D01*
X183776250Y-85871260D01*
X183833318Y-86158158D01*
X183945260Y-86428411D01*
X184107775Y-86671632D01*
X184314618Y-86878475D01*
X184557839Y-87040990D01*
X184828092Y-87152932D01*
X185114990Y-87210000D01*
X185407510Y-87210000D01*
X185694408Y-87152932D01*
X185964661Y-87040990D01*
X186207882Y-86878475D01*
X186414725Y-86671632D01*
X186577240Y-86428411D01*
X186689182Y-86158158D01*
X186746250Y-85871260D01*
X186746250Y-85578740D01*
X192666250Y-85578740D01*
X192666250Y-85871260D01*
X192723318Y-86158158D01*
X192835260Y-86428411D01*
X192997775Y-86671632D01*
X193204618Y-86878475D01*
X193447839Y-87040990D01*
X193718092Y-87152932D01*
X194004990Y-87210000D01*
X194297510Y-87210000D01*
X194584408Y-87152932D01*
X194854661Y-87040990D01*
X195097882Y-86878475D01*
X195304725Y-86671632D01*
X195467240Y-86428411D01*
X195579182Y-86158158D01*
X195636250Y-85871260D01*
X195636250Y-85578740D01*
X195613721Y-85465475D01*
X196596250Y-85465475D01*
X196596250Y-85984525D01*
X196697511Y-86493601D01*
X196896143Y-86973141D01*
X197184512Y-87404715D01*
X197551535Y-87771738D01*
X197983109Y-88060107D01*
X198462649Y-88258739D01*
X198971725Y-88360000D01*
X199490775Y-88360000D01*
X199999851Y-88258739D01*
X200479391Y-88060107D01*
X200910965Y-87771738D01*
X201277988Y-87404715D01*
X201566357Y-86973141D01*
X201764989Y-86493601D01*
X201866250Y-85984525D01*
X201866250Y-85578740D01*
X202826250Y-85578740D01*
X202826250Y-85871260D01*
X202883318Y-86158158D01*
X202995260Y-86428411D01*
X203157775Y-86671632D01*
X203364618Y-86878475D01*
X203607839Y-87040990D01*
X203878092Y-87152932D01*
X204164990Y-87210000D01*
X204457510Y-87210000D01*
X204744408Y-87152932D01*
X205014661Y-87040990D01*
X205257882Y-86878475D01*
X205464725Y-86671632D01*
X205627240Y-86428411D01*
X205739182Y-86158158D01*
X205796250Y-85871260D01*
X205796250Y-85578740D01*
X211716250Y-85578740D01*
X211716250Y-85871260D01*
X211773318Y-86158158D01*
X211885260Y-86428411D01*
X212047775Y-86671632D01*
X212254618Y-86878475D01*
X212497839Y-87040990D01*
X212768092Y-87152932D01*
X213054990Y-87210000D01*
X213347510Y-87210000D01*
X213634408Y-87152932D01*
X213904661Y-87040990D01*
X214147882Y-86878475D01*
X214354725Y-86671632D01*
X214517240Y-86428411D01*
X214629182Y-86158158D01*
X214686250Y-85871260D01*
X214686250Y-85578740D01*
X214663721Y-85465475D01*
X215646250Y-85465475D01*
X215646250Y-85984525D01*
X215747511Y-86493601D01*
X215946143Y-86973141D01*
X216234512Y-87404715D01*
X216601535Y-87771738D01*
X217033109Y-88060107D01*
X217512649Y-88258739D01*
X218021725Y-88360000D01*
X218540775Y-88360000D01*
X219049851Y-88258739D01*
X219529391Y-88060107D01*
X219960965Y-87771738D01*
X220327988Y-87404715D01*
X220616357Y-86973141D01*
X220814989Y-86493601D01*
X220916250Y-85984525D01*
X220916250Y-85465475D01*
X220814989Y-84956399D01*
X220616357Y-84476859D01*
X220327988Y-84045285D01*
X219960965Y-83678262D01*
X219529391Y-83389893D01*
X219049851Y-83191261D01*
X218540775Y-83090000D01*
X218021725Y-83090000D01*
X217512649Y-83191261D01*
X217033109Y-83389893D01*
X216601535Y-83678262D01*
X216234512Y-84045285D01*
X215946143Y-84476859D01*
X215747511Y-84956399D01*
X215646250Y-85465475D01*
X214663721Y-85465475D01*
X214629182Y-85291842D01*
X214517240Y-85021589D01*
X214450900Y-84922304D01*
X214529889Y-84927409D01*
X214868689Y-84882489D01*
X215192216Y-84772336D01*
X215390524Y-84666338D01*
X215498357Y-84391712D01*
X214471250Y-83364605D01*
X214457108Y-83378748D01*
X214277503Y-83199143D01*
X214291645Y-83185000D01*
X214650855Y-83185000D01*
X215677962Y-84212107D01*
X215952588Y-84104274D01*
X216103466Y-83797616D01*
X216191619Y-83467415D01*
X216213659Y-83126361D01*
X216168739Y-82787561D01*
X216058586Y-82464034D01*
X215952588Y-82265726D01*
X215677962Y-82157893D01*
X214650855Y-83185000D01*
X214291645Y-83185000D01*
X213264538Y-82157893D01*
X212989912Y-82265726D01*
X212839034Y-82572384D01*
X212750881Y-82902585D01*
X212728841Y-83243639D01*
X212773761Y-83582439D01*
X212883914Y-83905966D01*
X212989912Y-84104274D01*
X213264536Y-84212106D01*
X213236642Y-84240000D01*
X213054990Y-84240000D01*
X212768092Y-84297068D01*
X212497839Y-84409010D01*
X212254618Y-84571525D01*
X212047775Y-84778368D01*
X211885260Y-85021589D01*
X211773318Y-85291842D01*
X211716250Y-85578740D01*
X205796250Y-85578740D01*
X205739182Y-85291842D01*
X205627240Y-85021589D01*
X205464725Y-84778368D01*
X205257882Y-84571525D01*
X205014661Y-84409010D01*
X204744408Y-84297068D01*
X204457510Y-84240000D01*
X204164990Y-84240000D01*
X203878092Y-84297068D01*
X203607839Y-84409010D01*
X203364618Y-84571525D01*
X203157775Y-84778368D01*
X202995260Y-85021589D01*
X202883318Y-85291842D01*
X202826250Y-85578740D01*
X201866250Y-85578740D01*
X201866250Y-85465475D01*
X201764989Y-84956399D01*
X201566357Y-84476859D01*
X201277988Y-84045285D01*
X200910965Y-83678262D01*
X200479391Y-83389893D01*
X199999851Y-83191261D01*
X199490775Y-83090000D01*
X198971725Y-83090000D01*
X198462649Y-83191261D01*
X197983109Y-83389893D01*
X197551535Y-83678262D01*
X197184512Y-84045285D01*
X196896143Y-84476859D01*
X196697511Y-84956399D01*
X196596250Y-85465475D01*
X195613721Y-85465475D01*
X195579182Y-85291842D01*
X195467240Y-85021589D01*
X195400900Y-84922304D01*
X195479889Y-84927409D01*
X195818689Y-84882489D01*
X196142216Y-84772336D01*
X196340524Y-84666338D01*
X196448357Y-84391712D01*
X195421250Y-83364605D01*
X195407108Y-83378748D01*
X195227503Y-83199143D01*
X195241645Y-83185000D01*
X195600855Y-83185000D01*
X196627962Y-84212107D01*
X196902588Y-84104274D01*
X197053466Y-83797616D01*
X197141619Y-83467415D01*
X197163659Y-83126361D01*
X197118739Y-82787561D01*
X197008586Y-82464034D01*
X196902588Y-82265726D01*
X196627962Y-82157893D01*
X195600855Y-83185000D01*
X195241645Y-83185000D01*
X194214538Y-82157893D01*
X193939912Y-82265726D01*
X193789034Y-82572384D01*
X193700881Y-82902585D01*
X193678841Y-83243639D01*
X193723761Y-83582439D01*
X193833914Y-83905966D01*
X193939912Y-84104274D01*
X194214536Y-84212106D01*
X194186642Y-84240000D01*
X194004990Y-84240000D01*
X193718092Y-84297068D01*
X193447839Y-84409010D01*
X193204618Y-84571525D01*
X192997775Y-84778368D01*
X192835260Y-85021589D01*
X192723318Y-85291842D01*
X192666250Y-85578740D01*
X186746250Y-85578740D01*
X186689182Y-85291842D01*
X186577240Y-85021589D01*
X186414725Y-84778368D01*
X186207882Y-84571525D01*
X185964661Y-84409010D01*
X185694408Y-84297068D01*
X185407510Y-84240000D01*
X185114990Y-84240000D01*
X184828092Y-84297068D01*
X184557839Y-84409010D01*
X184314618Y-84571525D01*
X184107775Y-84778368D01*
X183945260Y-85021589D01*
X183833318Y-85291842D01*
X183776250Y-85578740D01*
X182816250Y-85578740D01*
X182816250Y-85465475D01*
X182714989Y-84956399D01*
X182516357Y-84476859D01*
X182227988Y-84045285D01*
X181860965Y-83678262D01*
X181429391Y-83389893D01*
X180949851Y-83191261D01*
X180440775Y-83090000D01*
X179921725Y-83090000D01*
X179412649Y-83191261D01*
X178933109Y-83389893D01*
X178501535Y-83678262D01*
X178134512Y-84045285D01*
X177846143Y-84476859D01*
X177647511Y-84956399D01*
X177546250Y-85465475D01*
X176563721Y-85465475D01*
X176529182Y-85291842D01*
X176417240Y-85021589D01*
X176350900Y-84922304D01*
X176429889Y-84927409D01*
X176768689Y-84882489D01*
X177092216Y-84772336D01*
X177290524Y-84666338D01*
X177398357Y-84391712D01*
X176371250Y-83364605D01*
X176357108Y-83378748D01*
X176177503Y-83199143D01*
X176191645Y-83185000D01*
X176550855Y-83185000D01*
X177577962Y-84212107D01*
X177852588Y-84104274D01*
X178003466Y-83797616D01*
X178091619Y-83467415D01*
X178113659Y-83126361D01*
X178068739Y-82787561D01*
X177958586Y-82464034D01*
X177852588Y-82265726D01*
X177577962Y-82157893D01*
X176550855Y-83185000D01*
X176191645Y-83185000D01*
X175164538Y-82157893D01*
X174889912Y-82265726D01*
X174739034Y-82572384D01*
X174650881Y-82902585D01*
X174628841Y-83243639D01*
X174673761Y-83582439D01*
X174783914Y-83905966D01*
X174889912Y-84104274D01*
X175164536Y-84212106D01*
X175136642Y-84240000D01*
X174954990Y-84240000D01*
X174668092Y-84297068D01*
X174397839Y-84409010D01*
X174154618Y-84571525D01*
X173947775Y-84778368D01*
X173785260Y-85021589D01*
X173673318Y-85291842D01*
X173616250Y-85578740D01*
X167696250Y-85578740D01*
X167639182Y-85291842D01*
X167527240Y-85021589D01*
X167364725Y-84778368D01*
X167157882Y-84571525D01*
X166914661Y-84409010D01*
X166644408Y-84297068D01*
X166357510Y-84240000D01*
X166064990Y-84240000D01*
X165778092Y-84297068D01*
X165507839Y-84409010D01*
X165264618Y-84571525D01*
X165057775Y-84778368D01*
X164895260Y-85021589D01*
X164783318Y-85291842D01*
X164726250Y-85578740D01*
X163766250Y-85578740D01*
X163766250Y-85465475D01*
X163664989Y-84956399D01*
X163466357Y-84476859D01*
X163177988Y-84045285D01*
X162810965Y-83678262D01*
X162379391Y-83389893D01*
X161899851Y-83191261D01*
X161390775Y-83090000D01*
X160871725Y-83090000D01*
X160362649Y-83191261D01*
X159883109Y-83389893D01*
X159451535Y-83678262D01*
X159084512Y-84045285D01*
X158796143Y-84476859D01*
X158597511Y-84956399D01*
X158496250Y-85465475D01*
X157513721Y-85465475D01*
X157479182Y-85291842D01*
X157367240Y-85021589D01*
X157300900Y-84922304D01*
X157379889Y-84927409D01*
X157718689Y-84882489D01*
X158042216Y-84772336D01*
X158240524Y-84666338D01*
X158348357Y-84391712D01*
X157321250Y-83364605D01*
X157307108Y-83378748D01*
X157127503Y-83199143D01*
X157141645Y-83185000D01*
X157500855Y-83185000D01*
X158527962Y-84212107D01*
X158802588Y-84104274D01*
X158953466Y-83797616D01*
X159041619Y-83467415D01*
X159063659Y-83126361D01*
X159018739Y-82787561D01*
X158908586Y-82464034D01*
X158802588Y-82265726D01*
X158527962Y-82157893D01*
X157500855Y-83185000D01*
X157141645Y-83185000D01*
X156114538Y-82157893D01*
X155839912Y-82265726D01*
X155689034Y-82572384D01*
X155600881Y-82902585D01*
X155578841Y-83243639D01*
X155623761Y-83582439D01*
X155733914Y-83905966D01*
X155839912Y-84104274D01*
X156114536Y-84212106D01*
X156086642Y-84240000D01*
X155904990Y-84240000D01*
X155618092Y-84297068D01*
X155347839Y-84409010D01*
X155104618Y-84571525D01*
X154897775Y-84778368D01*
X154735260Y-85021589D01*
X154623318Y-85291842D01*
X154566250Y-85578740D01*
X148487500Y-85578740D01*
X148430432Y-85291842D01*
X148318490Y-85021589D01*
X148155975Y-84778368D01*
X147949132Y-84571525D01*
X147705911Y-84409010D01*
X147435658Y-84297068D01*
X147148760Y-84240000D01*
X146856240Y-84240000D01*
X146569342Y-84297068D01*
X146299089Y-84409010D01*
X146055868Y-84571525D01*
X145849025Y-84778368D01*
X145686510Y-85021589D01*
X145574568Y-85291842D01*
X145517500Y-85578740D01*
X144557500Y-85578740D01*
X144557500Y-85465475D01*
X144456239Y-84956399D01*
X144257607Y-84476859D01*
X143969238Y-84045285D01*
X143602215Y-83678262D01*
X143170641Y-83389893D01*
X142691101Y-83191261D01*
X142182025Y-83090000D01*
X141662975Y-83090000D01*
X141153899Y-83191261D01*
X140674359Y-83389893D01*
X140242785Y-83678262D01*
X139875762Y-84045285D01*
X139587393Y-84476859D01*
X139388761Y-84956399D01*
X139287500Y-85465475D01*
X138304971Y-85465475D01*
X138270432Y-85291842D01*
X138158490Y-85021589D01*
X138092150Y-84922304D01*
X138171139Y-84927409D01*
X138509939Y-84882489D01*
X138833466Y-84772336D01*
X139031774Y-84666338D01*
X139139607Y-84391712D01*
X138112500Y-83364605D01*
X138098358Y-83378748D01*
X137918753Y-83199143D01*
X137932895Y-83185000D01*
X138292105Y-83185000D01*
X139319212Y-84212107D01*
X139593838Y-84104274D01*
X139744716Y-83797616D01*
X139832869Y-83467415D01*
X139854909Y-83126361D01*
X139809989Y-82787561D01*
X139699836Y-82464034D01*
X139593838Y-82265726D01*
X139319212Y-82157893D01*
X138292105Y-83185000D01*
X137932895Y-83185000D01*
X136905788Y-82157893D01*
X136631162Y-82265726D01*
X136480284Y-82572384D01*
X136392131Y-82902585D01*
X136370091Y-83243639D01*
X136415011Y-83582439D01*
X136525164Y-83905966D01*
X136631162Y-84104274D01*
X136905786Y-84212106D01*
X136877892Y-84240000D01*
X136696240Y-84240000D01*
X136409342Y-84297068D01*
X136139089Y-84409010D01*
X135895868Y-84571525D01*
X135689025Y-84778368D01*
X135526510Y-85021589D01*
X135414568Y-85291842D01*
X135357500Y-85578740D01*
X135035000Y-85578740D01*
X135035000Y-85559042D01*
X134970246Y-85233504D01*
X134843228Y-84926853D01*
X134658825Y-84650875D01*
X134424125Y-84416175D01*
X134148147Y-84231772D01*
X133841496Y-84104754D01*
X133515958Y-84040000D01*
X133184042Y-84040000D01*
X132858504Y-84104754D01*
X132551853Y-84231772D01*
X132275875Y-84416175D01*
X132041175Y-84650875D01*
X131889500Y-84877872D01*
X131889500Y-81978288D01*
X137085393Y-81978288D01*
X138112500Y-83005395D01*
X139139607Y-81978288D01*
X139031774Y-81703662D01*
X138725116Y-81552784D01*
X138394915Y-81464631D01*
X138053861Y-81442591D01*
X137715061Y-81487511D01*
X137391534Y-81597664D01*
X137193226Y-81703662D01*
X137085393Y-81978288D01*
X131889500Y-81978288D01*
X131889500Y-80168750D01*
X131887060Y-80143974D01*
X131879833Y-80120149D01*
X131868097Y-80098193D01*
X131852303Y-80078947D01*
X129737021Y-77963665D01*
X132232500Y-77963665D01*
X132232500Y-78246335D01*
X132287647Y-78523574D01*
X132395820Y-78784727D01*
X132552863Y-79019759D01*
X132752741Y-79219637D01*
X132987773Y-79376680D01*
X133248926Y-79484853D01*
X133526165Y-79540000D01*
X133808835Y-79540000D01*
X134086074Y-79484853D01*
X134347227Y-79376680D01*
X134582259Y-79219637D01*
X134704194Y-79097702D01*
X135394403Y-79097702D01*
X135465986Y-79341671D01*
X135721496Y-79462571D01*
X135995684Y-79531300D01*
X136278012Y-79545217D01*
X136557630Y-79503787D01*
X136823792Y-79408603D01*
X136949014Y-79341671D01*
X137020597Y-79097702D01*
X136207500Y-78284605D01*
X135394403Y-79097702D01*
X134704194Y-79097702D01*
X134782137Y-79019759D01*
X134938415Y-78785872D01*
X134970829Y-78846514D01*
X135214798Y-78918097D01*
X136027895Y-78105000D01*
X135214798Y-77291903D01*
X134970829Y-77363486D01*
X134940306Y-77427992D01*
X134939180Y-77425273D01*
X134782137Y-77190241D01*
X134704194Y-77112298D01*
X135394403Y-77112298D01*
X136207500Y-77925395D01*
X137020597Y-77112298D01*
X136949014Y-76868329D01*
X136693504Y-76747429D01*
X136419316Y-76678700D01*
X136136988Y-76664783D01*
X135857370Y-76706213D01*
X135591208Y-76801397D01*
X135465986Y-76868329D01*
X135394403Y-77112298D01*
X134704194Y-77112298D01*
X134582259Y-76990363D01*
X134347227Y-76833320D01*
X134086074Y-76725147D01*
X133808835Y-76670000D01*
X133526165Y-76670000D01*
X133248926Y-76725147D01*
X132987773Y-76833320D01*
X132752741Y-76990363D01*
X132552863Y-77190241D01*
X132395820Y-77425273D01*
X132287647Y-77686426D01*
X132232500Y-77963665D01*
X129737021Y-77963665D01*
X128677303Y-76903947D01*
X128658057Y-76888153D01*
X128636101Y-76876417D01*
X128629436Y-76874395D01*
X128867875Y-76715075D01*
X129102575Y-76480375D01*
X129286978Y-76204397D01*
X129413996Y-75897746D01*
X129478750Y-75572208D01*
X129478750Y-75240292D01*
X129413996Y-74914754D01*
X129286978Y-74608103D01*
X129102575Y-74332125D01*
X128867875Y-74097425D01*
X128640878Y-73945750D01*
X129328644Y-73945750D01*
X130085197Y-74702303D01*
X130085197Y-74702303D01*
G37*
X130085197Y-74702303D02*
X130104443Y-74718097D01*
X130126399Y-74729833D01*
X130150224Y-74737060D01*
X130175000Y-74739500D01*
X142875000Y-74739500D01*
X142899776Y-74737060D01*
X142923601Y-74729833D01*
X142945557Y-74718097D01*
X142964803Y-74702303D01*
X143721356Y-73945750D01*
X151553644Y-73945750D01*
X152310197Y-74702303D01*
X152329443Y-74718097D01*
X152351399Y-74729833D01*
X152375224Y-74737060D01*
X152400000Y-74739500D01*
X161514119Y-74739500D01*
X161095154Y-75158466D01*
X161066078Y-75182328D01*
X161018509Y-75240292D01*
X160970855Y-75298358D01*
X160947611Y-75341845D01*
X160900098Y-75430736D01*
X160856526Y-75574373D01*
X160845500Y-75686324D01*
X160841814Y-75723750D01*
X160845500Y-75761173D01*
X160845500Y-76888293D01*
X160692741Y-76990363D01*
X160492863Y-77190241D01*
X160337500Y-77422759D01*
X160182137Y-77190241D01*
X159982259Y-76990363D01*
X159747227Y-76833320D01*
X159486074Y-76725147D01*
X159208835Y-76670000D01*
X158926165Y-76670000D01*
X158648926Y-76725147D01*
X158387773Y-76833320D01*
X158152741Y-76990363D01*
X157952863Y-77190241D01*
X157797500Y-77422759D01*
X157642137Y-77190241D01*
X157442259Y-76990363D01*
X157207227Y-76833320D01*
X156946074Y-76725147D01*
X156668835Y-76670000D01*
X156386165Y-76670000D01*
X156108926Y-76725147D01*
X155847773Y-76833320D01*
X155612741Y-76990363D01*
X155412863Y-77190241D01*
X155257500Y-77422759D01*
X155102137Y-77190241D01*
X154902259Y-76990363D01*
X154667227Y-76833320D01*
X154406074Y-76725147D01*
X154128835Y-76670000D01*
X153846165Y-76670000D01*
X153568926Y-76725147D01*
X153307773Y-76833320D01*
X153072741Y-76990363D01*
X152872863Y-77190241D01*
X152717500Y-77422759D01*
X152562137Y-77190241D01*
X152362259Y-76990363D01*
X152127227Y-76833320D01*
X151866074Y-76725147D01*
X151588835Y-76670000D01*
X151306165Y-76670000D01*
X151028926Y-76725147D01*
X150767773Y-76833320D01*
X150532741Y-76990363D01*
X150332863Y-77190241D01*
X150177500Y-77422759D01*
X150022137Y-77190241D01*
X149822259Y-76990363D01*
X149587227Y-76833320D01*
X149326074Y-76725147D01*
X149048835Y-76670000D01*
X148766165Y-76670000D01*
X148488926Y-76725147D01*
X148227773Y-76833320D01*
X147992741Y-76990363D01*
X147792863Y-77190241D01*
X147637500Y-77422759D01*
X147482137Y-77190241D01*
X147282259Y-76990363D01*
X147047227Y-76833320D01*
X146786074Y-76725147D01*
X146508835Y-76670000D01*
X146226165Y-76670000D01*
X145948926Y-76725147D01*
X145687773Y-76833320D01*
X145452741Y-76990363D01*
X145252863Y-77190241D01*
X145097500Y-77422759D01*
X144942137Y-77190241D01*
X144742259Y-76990363D01*
X144507227Y-76833320D01*
X144246074Y-76725147D01*
X143968835Y-76670000D01*
X143686165Y-76670000D01*
X143408926Y-76725147D01*
X143147773Y-76833320D01*
X142912741Y-76990363D01*
X142712863Y-77190241D01*
X142557500Y-77422759D01*
X142402137Y-77190241D01*
X142202259Y-76990363D01*
X141967227Y-76833320D01*
X141706074Y-76725147D01*
X141428835Y-76670000D01*
X141146165Y-76670000D01*
X140868926Y-76725147D01*
X140607773Y-76833320D01*
X140372741Y-76990363D01*
X140172863Y-77190241D01*
X140017500Y-77422759D01*
X139862137Y-77190241D01*
X139662259Y-76990363D01*
X139427227Y-76833320D01*
X139166074Y-76725147D01*
X138888835Y-76670000D01*
X138606165Y-76670000D01*
X138328926Y-76725147D01*
X138067773Y-76833320D01*
X137832741Y-76990363D01*
X137632863Y-77190241D01*
X137476585Y-77424128D01*
X137444171Y-77363486D01*
X137200202Y-77291903D01*
X136387105Y-78105000D01*
X137200202Y-78918097D01*
X137444171Y-78846514D01*
X137474694Y-78782008D01*
X137475820Y-78784727D01*
X137632863Y-79019759D01*
X137832741Y-79219637D01*
X138067773Y-79376680D01*
X138328926Y-79484853D01*
X138606165Y-79540000D01*
X138888835Y-79540000D01*
X139166074Y-79484853D01*
X139427227Y-79376680D01*
X139662259Y-79219637D01*
X139862137Y-79019759D01*
X140017500Y-78787241D01*
X140172863Y-79019759D01*
X140372741Y-79219637D01*
X140607773Y-79376680D01*
X140868926Y-79484853D01*
X141146165Y-79540000D01*
X141428835Y-79540000D01*
X141706074Y-79484853D01*
X141967227Y-79376680D01*
X142202259Y-79219637D01*
X142402137Y-79019759D01*
X142557500Y-78787241D01*
X142712863Y-79019759D01*
X142912741Y-79219637D01*
X143147773Y-79376680D01*
X143239263Y-79414576D01*
X143114837Y-79539002D01*
X142924963Y-79823169D01*
X142794175Y-80138919D01*
X142727500Y-80474117D01*
X142727500Y-80815883D01*
X142794175Y-81151081D01*
X142924963Y-81466831D01*
X143114837Y-81750998D01*
X143356502Y-81992663D01*
X143640669Y-82182537D01*
X143956419Y-82313325D01*
X144291617Y-82380000D01*
X144633383Y-82380000D01*
X144968581Y-82313325D01*
X145284331Y-82182537D01*
X145568498Y-81992663D01*
X145582873Y-81978288D01*
X156294143Y-81978288D01*
X157321250Y-83005395D01*
X158348357Y-81978288D01*
X158240524Y-81703662D01*
X157933866Y-81552784D01*
X157603665Y-81464631D01*
X157262611Y-81442591D01*
X156923811Y-81487511D01*
X156600284Y-81597664D01*
X156401976Y-81703662D01*
X156294143Y-81978288D01*
X145582873Y-81978288D01*
X145810163Y-81750998D01*
X146000037Y-81466831D01*
X146130825Y-81151081D01*
X146197500Y-80815883D01*
X146197500Y-80474117D01*
X161936250Y-80474117D01*
X161936250Y-80815883D01*
X162002925Y-81151081D01*
X162133713Y-81466831D01*
X162323587Y-81750998D01*
X162565252Y-81992663D01*
X162849419Y-82182537D01*
X163165169Y-82313325D01*
X163500367Y-82380000D01*
X163842133Y-82380000D01*
X164177331Y-82313325D01*
X164493081Y-82182537D01*
X164777248Y-81992663D01*
X164791623Y-81978288D01*
X175344143Y-81978288D01*
X176371250Y-83005395D01*
X177398357Y-81978288D01*
X177290524Y-81703662D01*
X176983866Y-81552784D01*
X176653665Y-81464631D01*
X176312611Y-81442591D01*
X175973811Y-81487511D01*
X175650284Y-81597664D01*
X175451976Y-81703662D01*
X175344143Y-81978288D01*
X164791623Y-81978288D01*
X165018913Y-81750998D01*
X165208787Y-81466831D01*
X165339575Y-81151081D01*
X165406250Y-80815883D01*
X165406250Y-80474117D01*
X180986250Y-80474117D01*
X180986250Y-80815883D01*
X181052925Y-81151081D01*
X181183713Y-81466831D01*
X181373587Y-81750998D01*
X181615252Y-81992663D01*
X181899419Y-82182537D01*
X182215169Y-82313325D01*
X182550367Y-82380000D01*
X182892133Y-82380000D01*
X183227331Y-82313325D01*
X183543081Y-82182537D01*
X183827248Y-81992663D01*
X183841623Y-81978288D01*
X194394143Y-81978288D01*
X195421250Y-83005395D01*
X196448357Y-81978288D01*
X196340524Y-81703662D01*
X196033866Y-81552784D01*
X195703665Y-81464631D01*
X195362611Y-81442591D01*
X195023811Y-81487511D01*
X194700284Y-81597664D01*
X194501976Y-81703662D01*
X194394143Y-81978288D01*
X183841623Y-81978288D01*
X184068913Y-81750998D01*
X184258787Y-81466831D01*
X184389575Y-81151081D01*
X184456250Y-80815883D01*
X184456250Y-80474117D01*
X200036250Y-80474117D01*
X200036250Y-80815883D01*
X200102925Y-81151081D01*
X200233713Y-81466831D01*
X200423587Y-81750998D01*
X200665252Y-81992663D01*
X200949419Y-82182537D01*
X201265169Y-82313325D01*
X201600367Y-82380000D01*
X201942133Y-82380000D01*
X202277331Y-82313325D01*
X202593081Y-82182537D01*
X202877248Y-81992663D01*
X202891623Y-81978288D01*
X213444143Y-81978288D01*
X214471250Y-83005395D01*
X215498357Y-81978288D01*
X215390524Y-81703662D01*
X215083866Y-81552784D01*
X214753665Y-81464631D01*
X214412611Y-81442591D01*
X214073811Y-81487511D01*
X213750284Y-81597664D01*
X213551976Y-81703662D01*
X213444143Y-81978288D01*
X202891623Y-81978288D01*
X203118913Y-81750998D01*
X203308787Y-81466831D01*
X203439575Y-81151081D01*
X203506250Y-80815883D01*
X203506250Y-80474117D01*
X203439575Y-80138919D01*
X203308787Y-79823169D01*
X203118913Y-79539002D01*
X202877248Y-79297337D01*
X202593081Y-79107463D01*
X202277331Y-78976675D01*
X201942133Y-78910000D01*
X201600367Y-78910000D01*
X201265169Y-78976675D01*
X200949419Y-79107463D01*
X200665252Y-79297337D01*
X200423587Y-79539002D01*
X200233713Y-79823169D01*
X200102925Y-80138919D01*
X200036250Y-80474117D01*
X184456250Y-80474117D01*
X184389575Y-80138919D01*
X184258787Y-79823169D01*
X184068913Y-79539002D01*
X183827248Y-79297337D01*
X183543081Y-79107463D01*
X183227331Y-78976675D01*
X182892133Y-78910000D01*
X182550367Y-78910000D01*
X182215169Y-78976675D01*
X181899419Y-79107463D01*
X181615252Y-79297337D01*
X181373587Y-79539002D01*
X181183713Y-79823169D01*
X181052925Y-80138919D01*
X180986250Y-80474117D01*
X165406250Y-80474117D01*
X165339575Y-80138919D01*
X165208787Y-79823169D01*
X165018913Y-79539002D01*
X164777248Y-79297337D01*
X164493081Y-79107463D01*
X164177331Y-78976675D01*
X163842133Y-78910000D01*
X163500367Y-78910000D01*
X163165169Y-78976675D01*
X162849419Y-79107463D01*
X162565252Y-79297337D01*
X162323587Y-79539002D01*
X162133713Y-79823169D01*
X162002925Y-80138919D01*
X161936250Y-80474117D01*
X146197500Y-80474117D01*
X146130825Y-80138919D01*
X146000037Y-79823169D01*
X145810163Y-79539002D01*
X145568498Y-79297337D01*
X145284331Y-79107463D01*
X144970417Y-78977435D01*
X145097500Y-78787241D01*
X145252863Y-79019759D01*
X145452741Y-79219637D01*
X145687773Y-79376680D01*
X145948926Y-79484853D01*
X146226165Y-79540000D01*
X146508835Y-79540000D01*
X146786074Y-79484853D01*
X147047227Y-79376680D01*
X147282259Y-79219637D01*
X147482137Y-79019759D01*
X147637500Y-78787241D01*
X147792863Y-79019759D01*
X147992741Y-79219637D01*
X148227773Y-79376680D01*
X148488926Y-79484853D01*
X148766165Y-79540000D01*
X149048835Y-79540000D01*
X149326074Y-79484853D01*
X149587227Y-79376680D01*
X149822259Y-79219637D01*
X150022137Y-79019759D01*
X150177500Y-78787241D01*
X150332863Y-79019759D01*
X150532741Y-79219637D01*
X150767773Y-79376680D01*
X151028926Y-79484853D01*
X151306165Y-79540000D01*
X151588835Y-79540000D01*
X151866074Y-79484853D01*
X152127227Y-79376680D01*
X152362259Y-79219637D01*
X152562137Y-79019759D01*
X152717500Y-78787241D01*
X152872863Y-79019759D01*
X153072741Y-79219637D01*
X153307773Y-79376680D01*
X153568926Y-79484853D01*
X153846165Y-79540000D01*
X154128835Y-79540000D01*
X154406074Y-79484853D01*
X154667227Y-79376680D01*
X154902259Y-79219637D01*
X155102137Y-79019759D01*
X155257500Y-78787241D01*
X155412863Y-79019759D01*
X155612741Y-79219637D01*
X155847773Y-79376680D01*
X156108926Y-79484853D01*
X156386165Y-79540000D01*
X156668835Y-79540000D01*
X156946074Y-79484853D01*
X157207227Y-79376680D01*
X157442259Y-79219637D01*
X157642137Y-79019759D01*
X157797500Y-78787241D01*
X157952863Y-79019759D01*
X158152741Y-79219637D01*
X158387773Y-79376680D01*
X158648926Y-79484853D01*
X158926165Y-79540000D01*
X159208835Y-79540000D01*
X159486074Y-79484853D01*
X159747227Y-79376680D01*
X159982259Y-79219637D01*
X160182137Y-79019759D01*
X160337500Y-78787241D01*
X160492863Y-79019759D01*
X160692741Y-79219637D01*
X160927773Y-79376680D01*
X161188926Y-79484853D01*
X161466165Y-79540000D01*
X161748835Y-79540000D01*
X162026074Y-79484853D01*
X162287227Y-79376680D01*
X162522259Y-79219637D01*
X162722137Y-79019759D01*
X162879180Y-78784727D01*
X162987353Y-78523574D01*
X163042500Y-78246335D01*
X163042500Y-77963665D01*
X162987353Y-77686426D01*
X162879180Y-77425273D01*
X162722137Y-77190241D01*
X162522259Y-76990363D01*
X162369500Y-76888293D01*
X162369500Y-76039380D01*
X163034381Y-75374500D01*
X164784370Y-75374500D01*
X168503470Y-79093601D01*
X168527328Y-79122672D01*
X168643358Y-79217895D01*
X168775735Y-79288652D01*
X168919372Y-79332224D01*
X169031324Y-79343250D01*
X169031326Y-79343250D01*
X169068749Y-79346936D01*
X169106172Y-79343250D01*
X170618827Y-79343250D01*
X170656250Y-79346936D01*
X170693673Y-79343250D01*
X170693676Y-79343250D01*
X170805628Y-79332224D01*
X170949265Y-79288652D01*
X171081642Y-79217895D01*
X171197672Y-79122672D01*
X171221534Y-79093596D01*
X174940631Y-75374500D01*
X208440620Y-75374500D01*
X212159720Y-79093601D01*
X212183578Y-79122672D01*
X212299608Y-79217895D01*
X212431985Y-79288652D01*
X212575622Y-79332224D01*
X212687574Y-79343250D01*
X212687576Y-79343250D01*
X212724999Y-79346936D01*
X212762422Y-79343250D01*
X219669339Y-79343250D01*
X219473587Y-79539002D01*
X219283713Y-79823169D01*
X219152925Y-80138919D01*
X219086250Y-80474117D01*
X219086250Y-80815883D01*
X219152925Y-81151081D01*
X219283713Y-81466831D01*
X219473587Y-81750998D01*
X219715252Y-81992663D01*
X219999419Y-82182537D01*
X220315169Y-82313325D01*
X220650367Y-82380000D01*
X220992133Y-82380000D01*
X221327331Y-82313325D01*
X221643081Y-82182537D01*
X221927248Y-81992663D01*
X222168913Y-81750998D01*
X222358787Y-81466831D01*
X222489575Y-81151081D01*
X222556250Y-80815883D01*
X222556250Y-80474117D01*
X222489575Y-80138919D01*
X222358787Y-79823169D01*
X222168913Y-79539002D01*
X221973161Y-79343250D01*
X223521870Y-79343250D01*
X224663001Y-80484382D01*
X224663001Y-85000278D01*
X224514725Y-84778368D01*
X224307882Y-84571525D01*
X224064661Y-84409010D01*
X223794408Y-84297068D01*
X223507510Y-84240000D01*
X223214990Y-84240000D01*
X222928092Y-84297068D01*
X222657839Y-84409010D01*
X222414618Y-84571525D01*
X222207775Y-84778368D01*
X222045260Y-85021589D01*
X221933318Y-85291842D01*
X221876250Y-85578740D01*
X221876250Y-85871260D01*
X221933318Y-86158158D01*
X222045260Y-86428411D01*
X222207775Y-86671632D01*
X222414618Y-86878475D01*
X222657839Y-87040990D01*
X222928092Y-87152932D01*
X223214990Y-87210000D01*
X223507510Y-87210000D01*
X223794408Y-87152932D01*
X224064661Y-87040990D01*
X224307882Y-86878475D01*
X224514725Y-86671632D01*
X224663001Y-86449722D01*
X224663000Y-94418827D01*
X224659314Y-94456250D01*
X224663000Y-94493673D01*
X224663000Y-94493675D01*
X224674026Y-94605627D01*
X224717598Y-94749264D01*
X224734027Y-94780000D01*
X224788355Y-94881642D01*
X224823811Y-94924845D01*
X224883578Y-94997672D01*
X224912654Y-95021534D01*
X226447221Y-96556102D01*
X226471078Y-96585172D01*
X226587108Y-96680395D01*
X226643430Y-96710500D01*
X219075000Y-96710500D01*
X219050224Y-96712940D01*
X219026399Y-96720167D01*
X219004443Y-96731903D01*
X218985197Y-96747697D01*
X218228644Y-97504250D01*
X215159628Y-97504250D01*
X215386625Y-97352575D01*
X215621325Y-97117875D01*
X215805728Y-96841897D01*
X215932746Y-96535246D01*
X215997500Y-96209708D01*
X215997500Y-95877792D01*
X215932746Y-95552254D01*
X215805728Y-95245603D01*
X215621325Y-94969625D01*
X215386625Y-94734925D01*
X215110647Y-94550522D01*
X214803996Y-94423504D01*
X214478458Y-94358750D01*
X214146542Y-94358750D01*
X213821004Y-94423504D01*
X213514353Y-94550522D01*
X213238375Y-94734925D01*
X213003675Y-94969625D01*
X212819272Y-95245603D01*
X212692254Y-95552254D01*
X212627500Y-95877792D01*
X212627500Y-96209708D01*
X212692254Y-96535246D01*
X212819272Y-96841897D01*
X213003675Y-97117875D01*
X213238375Y-97352575D01*
X213465372Y-97504250D01*
X210396356Y-97504250D01*
X209639803Y-96747697D01*
X209620557Y-96731903D01*
X209598601Y-96720167D01*
X209574776Y-96712940D01*
X209550000Y-96710500D01*
X196850000Y-96710500D01*
X196825224Y-96712940D01*
X196801399Y-96720167D01*
X196779443Y-96731903D01*
X196760197Y-96747697D01*
X196003644Y-97504250D01*
X188171356Y-97504250D01*
X187414803Y-96747697D01*
X187395557Y-96731903D01*
X187373601Y-96720167D01*
X187349776Y-96712940D01*
X187325000Y-96710500D01*
X174625000Y-96710500D01*
X174600224Y-96712940D01*
X174576399Y-96720167D01*
X174554443Y-96731903D01*
X174535197Y-96747697D01*
X173778644Y-97504250D01*
X170709628Y-97504250D01*
X170936625Y-97352575D01*
X171171325Y-97117875D01*
X171355728Y-96841897D01*
X171482746Y-96535246D01*
X171547500Y-96209708D01*
X171547500Y-95877792D01*
X171482746Y-95552254D01*
X171355728Y-95245603D01*
X171171325Y-94969625D01*
X170936625Y-94734925D01*
X170660647Y-94550522D01*
X170353996Y-94423504D01*
X170028458Y-94358750D01*
X169696542Y-94358750D01*
X169371004Y-94423504D01*
X169064353Y-94550522D01*
X168788375Y-94734925D01*
X168553675Y-94969625D01*
X168369272Y-95245603D01*
X168242254Y-95552254D01*
X168177500Y-95877792D01*
X168177500Y-96209708D01*
X168242254Y-96535246D01*
X168369272Y-96841897D01*
X168553675Y-97117875D01*
X168788375Y-97352575D01*
X169015372Y-97504250D01*
X165946356Y-97504250D01*
X165189803Y-96747697D01*
X165170557Y-96731903D01*
X165148601Y-96720167D01*
X165124776Y-96712940D01*
X165100000Y-96710500D01*
X152400000Y-96710500D01*
X152375224Y-96712940D01*
X152351399Y-96720167D01*
X152329443Y-96731903D01*
X152310197Y-96747697D01*
X151553644Y-97504250D01*
X143721356Y-97504250D01*
X142964803Y-96747697D01*
X142945557Y-96731903D01*
X142923601Y-96720167D01*
X142899776Y-96712940D01*
X142875000Y-96710500D01*
X130175000Y-96710500D01*
X130150224Y-96712940D01*
X130126399Y-96720167D01*
X130104443Y-96731903D01*
X130085197Y-96747697D01*
X129328644Y-97504250D01*
X128640878Y-97504250D01*
X128867875Y-97352575D01*
X129102575Y-97117875D01*
X129286978Y-96841897D01*
X129413996Y-96535246D01*
X129478750Y-96209708D01*
X129478750Y-95877792D01*
X129413996Y-95552254D01*
X129286978Y-95245603D01*
X129102575Y-94969625D01*
X128867875Y-94734925D01*
X128629436Y-94575605D01*
X128636101Y-94573583D01*
X128658057Y-94561847D01*
X128677303Y-94546053D01*
X130678356Y-92545000D01*
X132229428Y-92545000D01*
X132229428Y-94145000D01*
X132241688Y-94269482D01*
X132277998Y-94389180D01*
X132336963Y-94499494D01*
X132416315Y-94596185D01*
X132513006Y-94675537D01*
X132623320Y-94734502D01*
X132743018Y-94770812D01*
X132867500Y-94783072D01*
X134467500Y-94783072D01*
X134591982Y-94770812D01*
X134711680Y-94734502D01*
X134821994Y-94675537D01*
X134918685Y-94596185D01*
X134998037Y-94499494D01*
X135057002Y-94389180D01*
X135093312Y-94269482D01*
X135094143Y-94261039D01*
X135292741Y-94459637D01*
X135527773Y-94616680D01*
X135788926Y-94724853D01*
X136066165Y-94780000D01*
X136348835Y-94780000D01*
X136626074Y-94724853D01*
X136887227Y-94616680D01*
X137122259Y-94459637D01*
X137244194Y-94337702D01*
X137934403Y-94337702D01*
X138005986Y-94581671D01*
X138261496Y-94702571D01*
X138535684Y-94771300D01*
X138818012Y-94785217D01*
X139097630Y-94743787D01*
X139363792Y-94648603D01*
X139489014Y-94581671D01*
X139560597Y-94337702D01*
X140474403Y-94337702D01*
X140545986Y-94581671D01*
X140801496Y-94702571D01*
X141075684Y-94771300D01*
X141358012Y-94785217D01*
X141637630Y-94743787D01*
X141903792Y-94648603D01*
X142029014Y-94581671D01*
X142100597Y-94337702D01*
X141287500Y-93524605D01*
X140474403Y-94337702D01*
X139560597Y-94337702D01*
X138747500Y-93524605D01*
X137934403Y-94337702D01*
X137244194Y-94337702D01*
X137322137Y-94259759D01*
X137478415Y-94025872D01*
X137510829Y-94086514D01*
X137754798Y-94158097D01*
X138567895Y-93345000D01*
X138927105Y-93345000D01*
X139740202Y-94158097D01*
X139984171Y-94086514D01*
X140015471Y-94020364D01*
X140050829Y-94086514D01*
X140294798Y-94158097D01*
X141107895Y-93345000D01*
X141467105Y-93345000D01*
X142280202Y-94158097D01*
X142524171Y-94086514D01*
X142554694Y-94022008D01*
X142555820Y-94024727D01*
X142712863Y-94259759D01*
X142912741Y-94459637D01*
X143147773Y-94616680D01*
X143408926Y-94724853D01*
X143686165Y-94780000D01*
X143968835Y-94780000D01*
X144246074Y-94724853D01*
X144507227Y-94616680D01*
X144742259Y-94459637D01*
X144942137Y-94259759D01*
X145097500Y-94027241D01*
X145252863Y-94259759D01*
X145452741Y-94459637D01*
X145687773Y-94616680D01*
X145948926Y-94724853D01*
X146226165Y-94780000D01*
X146508835Y-94780000D01*
X146786074Y-94724853D01*
X147047227Y-94616680D01*
X147282259Y-94459637D01*
X147482137Y-94259759D01*
X147637500Y-94027241D01*
X147792863Y-94259759D01*
X147992741Y-94459637D01*
X148227773Y-94616680D01*
X148488926Y-94724853D01*
X148766165Y-94780000D01*
X149048835Y-94780000D01*
X149326074Y-94724853D01*
X149587227Y-94616680D01*
X149822259Y-94459637D01*
X150022137Y-94259759D01*
X150177500Y-94027241D01*
X150332863Y-94259759D01*
X150532741Y-94459637D01*
X150767773Y-94616680D01*
X151028926Y-94724853D01*
X151306165Y-94780000D01*
X151588835Y-94780000D01*
X151866074Y-94724853D01*
X152127227Y-94616680D01*
X152362259Y-94459637D01*
X152562137Y-94259759D01*
X152717500Y-94027241D01*
X152872863Y-94259759D01*
X153072741Y-94459637D01*
X153307773Y-94616680D01*
X153568926Y-94724853D01*
X153846165Y-94780000D01*
X154128835Y-94780000D01*
X154406074Y-94724853D01*
X154667227Y-94616680D01*
X154902259Y-94459637D01*
X155102137Y-94259759D01*
X155257500Y-94027241D01*
X155412863Y-94259759D01*
X155612741Y-94459637D01*
X155847773Y-94616680D01*
X156108926Y-94724853D01*
X156386165Y-94780000D01*
X156668835Y-94780000D01*
X156946074Y-94724853D01*
X157207227Y-94616680D01*
X157442259Y-94459637D01*
X157642137Y-94259759D01*
X157797500Y-94027241D01*
X157952863Y-94259759D01*
X158152741Y-94459637D01*
X158387773Y-94616680D01*
X158648926Y-94724853D01*
X158926165Y-94780000D01*
X159208835Y-94780000D01*
X159486074Y-94724853D01*
X159747227Y-94616680D01*
X159982259Y-94459637D01*
X160182137Y-94259759D01*
X160337500Y-94027241D01*
X160492863Y-94259759D01*
X160692741Y-94459637D01*
X160927773Y-94616680D01*
X161188926Y-94724853D01*
X161466165Y-94780000D01*
X161748835Y-94780000D01*
X162026074Y-94724853D01*
X162287227Y-94616680D01*
X162522259Y-94459637D01*
X162722137Y-94259759D01*
X162879180Y-94024727D01*
X162987353Y-93763574D01*
X163042500Y-93486335D01*
X163042500Y-93203665D01*
X162987353Y-92926426D01*
X162879180Y-92665273D01*
X162722137Y-92430241D01*
X162522259Y-92230363D01*
X162287227Y-92073320D01*
X162026074Y-91965147D01*
X161748835Y-91910000D01*
X161466165Y-91910000D01*
X161188926Y-91965147D01*
X160927773Y-92073320D01*
X160692741Y-92230363D01*
X160492863Y-92430241D01*
X160337500Y-92662759D01*
X160182137Y-92430241D01*
X159982259Y-92230363D01*
X159747227Y-92073320D01*
X159486074Y-91965147D01*
X159208835Y-91910000D01*
X158926165Y-91910000D01*
X158648926Y-91965147D01*
X158387773Y-92073320D01*
X158152741Y-92230363D01*
X157952863Y-92430241D01*
X157797500Y-92662759D01*
X157642137Y-92430241D01*
X157442259Y-92230363D01*
X157207227Y-92073320D01*
X156946074Y-91965147D01*
X156668835Y-91910000D01*
X156386165Y-91910000D01*
X156108926Y-91965147D01*
X155847773Y-92073320D01*
X155612741Y-92230363D01*
X155412863Y-92430241D01*
X155257500Y-92662759D01*
X155102137Y-92430241D01*
X154902259Y-92230363D01*
X154667227Y-92073320D01*
X154406074Y-91965147D01*
X154128835Y-91910000D01*
X153846165Y-91910000D01*
X153568926Y-91965147D01*
X153307773Y-92073320D01*
X153072741Y-92230363D01*
X152872863Y-92430241D01*
X152717500Y-92662759D01*
X152562137Y-92430241D01*
X152362259Y-92230363D01*
X152127227Y-92073320D01*
X151866074Y-91965147D01*
X151588835Y-91910000D01*
X151306165Y-91910000D01*
X151028926Y-91965147D01*
X150767773Y-92073320D01*
X150532741Y-92230363D01*
X150332863Y-92430241D01*
X150177500Y-92662759D01*
X150022137Y-92430241D01*
X149822259Y-92230363D01*
X149587227Y-92073320D01*
X149326074Y-91965147D01*
X149048835Y-91910000D01*
X148766165Y-91910000D01*
X148488926Y-91965147D01*
X148227773Y-92073320D01*
X147992741Y-92230363D01*
X147792863Y-92430241D01*
X147637500Y-92662759D01*
X147482137Y-92430241D01*
X147282259Y-92230363D01*
X147047227Y-92073320D01*
X146786074Y-91965147D01*
X146508835Y-91910000D01*
X146226165Y-91910000D01*
X145948926Y-91965147D01*
X145687773Y-92073320D01*
X145452741Y-92230363D01*
X145252863Y-92430241D01*
X145097500Y-92662759D01*
X144942137Y-92430241D01*
X144742259Y-92230363D01*
X144507227Y-92073320D01*
X144246074Y-91965147D01*
X143968835Y-91910000D01*
X143686165Y-91910000D01*
X143408926Y-91965147D01*
X143147773Y-92073320D01*
X142912741Y-92230363D01*
X142712863Y-92430241D01*
X142556585Y-92664128D01*
X142524171Y-92603486D01*
X142280202Y-92531903D01*
X141467105Y-93345000D01*
X141107895Y-93345000D01*
X140294798Y-92531903D01*
X140050829Y-92603486D01*
X140019529Y-92669636D01*
X139984171Y-92603486D01*
X139740202Y-92531903D01*
X138927105Y-93345000D01*
X138567895Y-93345000D01*
X137754798Y-92531903D01*
X137510829Y-92603486D01*
X137480306Y-92667992D01*
X137479180Y-92665273D01*
X137322137Y-92430241D01*
X137244194Y-92352298D01*
X137934403Y-92352298D01*
X138747500Y-93165395D01*
X139560597Y-92352298D01*
X140474403Y-92352298D01*
X141287500Y-93165395D01*
X142100597Y-92352298D01*
X142029014Y-92108329D01*
X141773504Y-91987429D01*
X141499316Y-91918700D01*
X141216988Y-91904783D01*
X140937370Y-91946213D01*
X140671208Y-92041397D01*
X140545986Y-92108329D01*
X140474403Y-92352298D01*
X139560597Y-92352298D01*
X139489014Y-92108329D01*
X139233504Y-91987429D01*
X138959316Y-91918700D01*
X138676988Y-91904783D01*
X138397370Y-91946213D01*
X138131208Y-92041397D01*
X138005986Y-92108329D01*
X137934403Y-92352298D01*
X137244194Y-92352298D01*
X137122259Y-92230363D01*
X136887227Y-92073320D01*
X136626074Y-91965147D01*
X136348835Y-91910000D01*
X136066165Y-91910000D01*
X135788926Y-91965147D01*
X135527773Y-92073320D01*
X135292741Y-92230363D01*
X135094143Y-92428961D01*
X135093312Y-92420518D01*
X135057002Y-92300820D01*
X134998037Y-92190506D01*
X134918685Y-92093815D01*
X134821994Y-92014463D01*
X134711680Y-91955498D01*
X134591982Y-91919188D01*
X134467500Y-91906928D01*
X132867500Y-91906928D01*
X132743018Y-91919188D01*
X132623320Y-91955498D01*
X132513006Y-92014463D01*
X132416315Y-92093815D01*
X132336963Y-92190506D01*
X132277998Y-92300820D01*
X132241688Y-92420518D01*
X132229428Y-92545000D01*
X130678356Y-92545000D01*
X131852303Y-91371053D01*
X131868097Y-91351807D01*
X131879833Y-91329851D01*
X131887060Y-91306026D01*
X131889500Y-91281250D01*
X131889500Y-86572128D01*
X132041175Y-86799125D01*
X132275875Y-87033825D01*
X132551853Y-87218228D01*
X132858504Y-87345246D01*
X133184042Y-87410000D01*
X133515958Y-87410000D01*
X133841496Y-87345246D01*
X134148147Y-87218228D01*
X134424125Y-87033825D01*
X134658825Y-86799125D01*
X134843228Y-86523147D01*
X134970246Y-86216496D01*
X135035000Y-85890958D01*
X135035000Y-85578740D01*
X135357500Y-85578740D01*
X135357500Y-85871260D01*
X135414568Y-86158158D01*
X135526510Y-86428411D01*
X135689025Y-86671632D01*
X135895868Y-86878475D01*
X136139089Y-87040990D01*
X136409342Y-87152932D01*
X136696240Y-87210000D01*
X136988760Y-87210000D01*
X137275658Y-87152932D01*
X137545911Y-87040990D01*
X137789132Y-86878475D01*
X137995975Y-86671632D01*
X138158490Y-86428411D01*
X138270432Y-86158158D01*
X138327500Y-85871260D01*
X138327500Y-85578740D01*
X138304971Y-85465475D01*
X139287500Y-85465475D01*
X139287500Y-85984525D01*
X139388761Y-86493601D01*
X139587393Y-86973141D01*
X139875762Y-87404715D01*
X140242785Y-87771738D01*
X140674359Y-88060107D01*
X141153899Y-88258739D01*
X141662975Y-88360000D01*
X142182025Y-88360000D01*
X142691101Y-88258739D01*
X143170641Y-88060107D01*
X143602215Y-87771738D01*
X143969238Y-87404715D01*
X144257607Y-86973141D01*
X144456239Y-86493601D01*
X144557500Y-85984525D01*
X144557500Y-85578740D01*
X145517500Y-85578740D01*
X145517500Y-85871260D01*
X145574568Y-86158158D01*
X145686510Y-86428411D01*
X145849025Y-86671632D01*
X146055868Y-86878475D01*
X146299089Y-87040990D01*
X146569342Y-87152932D01*
X146856240Y-87210000D01*
X147148760Y-87210000D01*
X147435658Y-87152932D01*
X147705911Y-87040990D01*
X147949132Y-86878475D01*
X148155975Y-86671632D01*
X148318490Y-86428411D01*
X148430432Y-86158158D01*
X148487500Y-85871260D01*
X148487500Y-85578740D01*
X154566250Y-85578740D01*
X154566250Y-85871260D01*
X154623318Y-86158158D01*
X154735260Y-86428411D01*
X154897775Y-86671632D01*
X155104618Y-86878475D01*
X155347839Y-87040990D01*
X155618092Y-87152932D01*
X155904990Y-87210000D01*
X156197510Y-87210000D01*
X156484408Y-87152932D01*
X156754661Y-87040990D01*
X156997882Y-86878475D01*
X157204725Y-86671632D01*
X157367240Y-86428411D01*
X157479182Y-86158158D01*
X157536250Y-85871260D01*
X157536250Y-85578740D01*
X157513721Y-85465475D01*
X158496250Y-85465475D01*
X158496250Y-85984525D01*
X158597511Y-86493601D01*
X158796143Y-86973141D01*
X159084512Y-87404715D01*
X159451535Y-87771738D01*
X159883109Y-88060107D01*
X160362649Y-88258739D01*
X160871725Y-88360000D01*
X161390775Y-88360000D01*
X161899851Y-88258739D01*
X162379391Y-88060107D01*
X162810965Y-87771738D01*
X163177988Y-87404715D01*
X163466357Y-86973141D01*
X163664989Y-86493601D01*
X163766250Y-85984525D01*
X163766250Y-85578740D01*
X164726250Y-85578740D01*
X164726250Y-85871260D01*
X164783318Y-86158158D01*
X164895260Y-86428411D01*
X165057775Y-86671632D01*
X165264618Y-86878475D01*
X165507839Y-87040990D01*
X165778092Y-87152932D01*
X166064990Y-87210000D01*
X166357510Y-87210000D01*
X166644408Y-87152932D01*
X166914661Y-87040990D01*
X167157882Y-86878475D01*
X167364725Y-86671632D01*
X167527240Y-86428411D01*
X167639182Y-86158158D01*
X167696250Y-85871260D01*
X167696250Y-85578740D01*
X173616250Y-85578740D01*
X173616250Y-85871260D01*
X173673318Y-86158158D01*
X173785260Y-86428411D01*
X173947775Y-86671632D01*
X174154618Y-86878475D01*
X174397839Y-87040990D01*
X174668092Y-87152932D01*
X174954990Y-87210000D01*
X175247510Y-87210000D01*
X175534408Y-87152932D01*
X175804661Y-87040990D01*
X176047882Y-86878475D01*
X176254725Y-86671632D01*
X176417240Y-86428411D01*
X176529182Y-86158158D01*
X176586250Y-85871260D01*
X176586250Y-85578740D01*
X176563721Y-85465475D01*
X177546250Y-85465475D01*
X177546250Y-85984525D01*
X177647511Y-86493601D01*
X177846143Y-86973141D01*
X178134512Y-87404715D01*
X178501535Y-87771738D01*
X178933109Y-88060107D01*
X179412649Y-88258739D01*
X179921725Y-88360000D01*
X180440775Y-88360000D01*
X180949851Y-88258739D01*
X181429391Y-88060107D01*
X181860965Y-87771738D01*
X182227988Y-87404715D01*
X182516357Y-86973141D01*
X182714989Y-86493601D01*
X182816250Y-85984525D01*
X182816250Y-85578740D01*
X183776250Y-85578740D01*
X183776250Y-85871260D01*
X183833318Y-86158158D01*
X183945260Y-86428411D01*
X184107775Y-86671632D01*
X184314618Y-86878475D01*
X184557839Y-87040990D01*
X184828092Y-87152932D01*
X185114990Y-87210000D01*
X185407510Y-87210000D01*
X185694408Y-87152932D01*
X185964661Y-87040990D01*
X186207882Y-86878475D01*
X186414725Y-86671632D01*
X186577240Y-86428411D01*
X186689182Y-86158158D01*
X186746250Y-85871260D01*
X186746250Y-85578740D01*
X192666250Y-85578740D01*
X192666250Y-85871260D01*
X192723318Y-86158158D01*
X192835260Y-86428411D01*
X192997775Y-86671632D01*
X193204618Y-86878475D01*
X193447839Y-87040990D01*
X193718092Y-87152932D01*
X194004990Y-87210000D01*
X194297510Y-87210000D01*
X194584408Y-87152932D01*
X194854661Y-87040990D01*
X195097882Y-86878475D01*
X195304725Y-86671632D01*
X195467240Y-86428411D01*
X195579182Y-86158158D01*
X195636250Y-85871260D01*
X195636250Y-85578740D01*
X195613721Y-85465475D01*
X196596250Y-85465475D01*
X196596250Y-85984525D01*
X196697511Y-86493601D01*
X196896143Y-86973141D01*
X197184512Y-87404715D01*
X197551535Y-87771738D01*
X197983109Y-88060107D01*
X198462649Y-88258739D01*
X198971725Y-88360000D01*
X199490775Y-88360000D01*
X199999851Y-88258739D01*
X200479391Y-88060107D01*
X200910965Y-87771738D01*
X201277988Y-87404715D01*
X201566357Y-86973141D01*
X201764989Y-86493601D01*
X201866250Y-85984525D01*
X201866250Y-85578740D01*
X202826250Y-85578740D01*
X202826250Y-85871260D01*
X202883318Y-86158158D01*
X202995260Y-86428411D01*
X203157775Y-86671632D01*
X203364618Y-86878475D01*
X203607839Y-87040990D01*
X203878092Y-87152932D01*
X204164990Y-87210000D01*
X204457510Y-87210000D01*
X204744408Y-87152932D01*
X205014661Y-87040990D01*
X205257882Y-86878475D01*
X205464725Y-86671632D01*
X205627240Y-86428411D01*
X205739182Y-86158158D01*
X205796250Y-85871260D01*
X205796250Y-85578740D01*
X211716250Y-85578740D01*
X211716250Y-85871260D01*
X211773318Y-86158158D01*
X211885260Y-86428411D01*
X212047775Y-86671632D01*
X212254618Y-86878475D01*
X212497839Y-87040990D01*
X212768092Y-87152932D01*
X213054990Y-87210000D01*
X213347510Y-87210000D01*
X213634408Y-87152932D01*
X213904661Y-87040990D01*
X214147882Y-86878475D01*
X214354725Y-86671632D01*
X214517240Y-86428411D01*
X214629182Y-86158158D01*
X214686250Y-85871260D01*
X214686250Y-85578740D01*
X214663721Y-85465475D01*
X215646250Y-85465475D01*
X215646250Y-85984525D01*
X215747511Y-86493601D01*
X215946143Y-86973141D01*
X216234512Y-87404715D01*
X216601535Y-87771738D01*
X217033109Y-88060107D01*
X217512649Y-88258739D01*
X218021725Y-88360000D01*
X218540775Y-88360000D01*
X219049851Y-88258739D01*
X219529391Y-88060107D01*
X219960965Y-87771738D01*
X220327988Y-87404715D01*
X220616357Y-86973141D01*
X220814989Y-86493601D01*
X220916250Y-85984525D01*
X220916250Y-85465475D01*
X220814989Y-84956399D01*
X220616357Y-84476859D01*
X220327988Y-84045285D01*
X219960965Y-83678262D01*
X219529391Y-83389893D01*
X219049851Y-83191261D01*
X218540775Y-83090000D01*
X218021725Y-83090000D01*
X217512649Y-83191261D01*
X217033109Y-83389893D01*
X216601535Y-83678262D01*
X216234512Y-84045285D01*
X215946143Y-84476859D01*
X215747511Y-84956399D01*
X215646250Y-85465475D01*
X214663721Y-85465475D01*
X214629182Y-85291842D01*
X214517240Y-85021589D01*
X214450900Y-84922304D01*
X214529889Y-84927409D01*
X214868689Y-84882489D01*
X215192216Y-84772336D01*
X215390524Y-84666338D01*
X215498357Y-84391712D01*
X214471250Y-83364605D01*
X214457108Y-83378748D01*
X214277503Y-83199143D01*
X214291645Y-83185000D01*
X214650855Y-83185000D01*
X215677962Y-84212107D01*
X215952588Y-84104274D01*
X216103466Y-83797616D01*
X216191619Y-83467415D01*
X216213659Y-83126361D01*
X216168739Y-82787561D01*
X216058586Y-82464034D01*
X215952588Y-82265726D01*
X215677962Y-82157893D01*
X214650855Y-83185000D01*
X214291645Y-83185000D01*
X213264538Y-82157893D01*
X212989912Y-82265726D01*
X212839034Y-82572384D01*
X212750881Y-82902585D01*
X212728841Y-83243639D01*
X212773761Y-83582439D01*
X212883914Y-83905966D01*
X212989912Y-84104274D01*
X213264536Y-84212106D01*
X213236642Y-84240000D01*
X213054990Y-84240000D01*
X212768092Y-84297068D01*
X212497839Y-84409010D01*
X212254618Y-84571525D01*
X212047775Y-84778368D01*
X211885260Y-85021589D01*
X211773318Y-85291842D01*
X211716250Y-85578740D01*
X205796250Y-85578740D01*
X205739182Y-85291842D01*
X205627240Y-85021589D01*
X205464725Y-84778368D01*
X205257882Y-84571525D01*
X205014661Y-84409010D01*
X204744408Y-84297068D01*
X204457510Y-84240000D01*
X204164990Y-84240000D01*
X203878092Y-84297068D01*
X203607839Y-84409010D01*
X203364618Y-84571525D01*
X203157775Y-84778368D01*
X202995260Y-85021589D01*
X202883318Y-85291842D01*
X202826250Y-85578740D01*
X201866250Y-85578740D01*
X201866250Y-85465475D01*
X201764989Y-84956399D01*
X201566357Y-84476859D01*
X201277988Y-84045285D01*
X200910965Y-83678262D01*
X200479391Y-83389893D01*
X199999851Y-83191261D01*
X199490775Y-83090000D01*
X198971725Y-83090000D01*
X198462649Y-83191261D01*
X197983109Y-83389893D01*
X197551535Y-83678262D01*
X197184512Y-84045285D01*
X196896143Y-84476859D01*
X196697511Y-84956399D01*
X196596250Y-85465475D01*
X195613721Y-85465475D01*
X195579182Y-85291842D01*
X195467240Y-85021589D01*
X195400900Y-84922304D01*
X195479889Y-84927409D01*
X195818689Y-84882489D01*
X196142216Y-84772336D01*
X196340524Y-84666338D01*
X196448357Y-84391712D01*
X195421250Y-83364605D01*
X195407108Y-83378748D01*
X195227503Y-83199143D01*
X195241645Y-83185000D01*
X195600855Y-83185000D01*
X196627962Y-84212107D01*
X196902588Y-84104274D01*
X197053466Y-83797616D01*
X197141619Y-83467415D01*
X197163659Y-83126361D01*
X197118739Y-82787561D01*
X197008586Y-82464034D01*
X196902588Y-82265726D01*
X196627962Y-82157893D01*
X195600855Y-83185000D01*
X195241645Y-83185000D01*
X194214538Y-82157893D01*
X193939912Y-82265726D01*
X193789034Y-82572384D01*
X193700881Y-82902585D01*
X193678841Y-83243639D01*
X193723761Y-83582439D01*
X193833914Y-83905966D01*
X193939912Y-84104274D01*
X194214536Y-84212106D01*
X194186642Y-84240000D01*
X194004990Y-84240000D01*
X193718092Y-84297068D01*
X193447839Y-84409010D01*
X193204618Y-84571525D01*
X192997775Y-84778368D01*
X192835260Y-85021589D01*
X192723318Y-85291842D01*
X192666250Y-85578740D01*
X186746250Y-85578740D01*
X186689182Y-85291842D01*
X186577240Y-85021589D01*
X186414725Y-84778368D01*
X186207882Y-84571525D01*
X185964661Y-84409010D01*
X185694408Y-84297068D01*
X185407510Y-84240000D01*
X185114990Y-84240000D01*
X184828092Y-84297068D01*
X184557839Y-84409010D01*
X184314618Y-84571525D01*
X184107775Y-84778368D01*
X183945260Y-85021589D01*
X183833318Y-85291842D01*
X183776250Y-85578740D01*
X182816250Y-85578740D01*
X182816250Y-85465475D01*
X182714989Y-84956399D01*
X182516357Y-84476859D01*
X182227988Y-84045285D01*
X181860965Y-83678262D01*
X181429391Y-83389893D01*
X180949851Y-83191261D01*
X180440775Y-83090000D01*
X179921725Y-83090000D01*
X179412649Y-83191261D01*
X178933109Y-83389893D01*
X178501535Y-83678262D01*
X178134512Y-84045285D01*
X177846143Y-84476859D01*
X177647511Y-84956399D01*
X177546250Y-85465475D01*
X176563721Y-85465475D01*
X176529182Y-85291842D01*
X176417240Y-85021589D01*
X176350900Y-84922304D01*
X176429889Y-84927409D01*
X176768689Y-84882489D01*
X177092216Y-84772336D01*
X177290524Y-84666338D01*
X177398357Y-84391712D01*
X176371250Y-83364605D01*
X176357108Y-83378748D01*
X176177503Y-83199143D01*
X176191645Y-83185000D01*
X176550855Y-83185000D01*
X177577962Y-84212107D01*
X177852588Y-84104274D01*
X178003466Y-83797616D01*
X178091619Y-83467415D01*
X178113659Y-83126361D01*
X178068739Y-82787561D01*
X177958586Y-82464034D01*
X177852588Y-82265726D01*
X177577962Y-82157893D01*
X176550855Y-83185000D01*
X176191645Y-83185000D01*
X175164538Y-82157893D01*
X174889912Y-82265726D01*
X174739034Y-82572384D01*
X174650881Y-82902585D01*
X174628841Y-83243639D01*
X174673761Y-83582439D01*
X174783914Y-83905966D01*
X174889912Y-84104274D01*
X175164536Y-84212106D01*
X175136642Y-84240000D01*
X174954990Y-84240000D01*
X174668092Y-84297068D01*
X174397839Y-84409010D01*
X174154618Y-84571525D01*
X173947775Y-84778368D01*
X173785260Y-85021589D01*
X173673318Y-85291842D01*
X173616250Y-85578740D01*
X167696250Y-85578740D01*
X167639182Y-85291842D01*
X167527240Y-85021589D01*
X167364725Y-84778368D01*
X167157882Y-84571525D01*
X166914661Y-84409010D01*
X166644408Y-84297068D01*
X166357510Y-84240000D01*
X166064990Y-84240000D01*
X165778092Y-84297068D01*
X165507839Y-84409010D01*
X165264618Y-84571525D01*
X165057775Y-84778368D01*
X164895260Y-85021589D01*
X164783318Y-85291842D01*
X164726250Y-85578740D01*
X163766250Y-85578740D01*
X163766250Y-85465475D01*
X163664989Y-84956399D01*
X163466357Y-84476859D01*
X163177988Y-84045285D01*
X162810965Y-83678262D01*
X162379391Y-83389893D01*
X161899851Y-83191261D01*
X161390775Y-83090000D01*
X160871725Y-83090000D01*
X160362649Y-83191261D01*
X159883109Y-83389893D01*
X159451535Y-83678262D01*
X159084512Y-84045285D01*
X158796143Y-84476859D01*
X158597511Y-84956399D01*
X158496250Y-85465475D01*
X157513721Y-85465475D01*
X157479182Y-85291842D01*
X157367240Y-85021589D01*
X157300900Y-84922304D01*
X157379889Y-84927409D01*
X157718689Y-84882489D01*
X158042216Y-84772336D01*
X158240524Y-84666338D01*
X158348357Y-84391712D01*
X157321250Y-83364605D01*
X157307108Y-83378748D01*
X157127503Y-83199143D01*
X157141645Y-83185000D01*
X157500855Y-83185000D01*
X158527962Y-84212107D01*
X158802588Y-84104274D01*
X158953466Y-83797616D01*
X159041619Y-83467415D01*
X159063659Y-83126361D01*
X159018739Y-82787561D01*
X158908586Y-82464034D01*
X158802588Y-82265726D01*
X158527962Y-82157893D01*
X157500855Y-83185000D01*
X157141645Y-83185000D01*
X156114538Y-82157893D01*
X155839912Y-82265726D01*
X155689034Y-82572384D01*
X155600881Y-82902585D01*
X155578841Y-83243639D01*
X155623761Y-83582439D01*
X155733914Y-83905966D01*
X155839912Y-84104274D01*
X156114536Y-84212106D01*
X156086642Y-84240000D01*
X155904990Y-84240000D01*
X155618092Y-84297068D01*
X155347839Y-84409010D01*
X155104618Y-84571525D01*
X154897775Y-84778368D01*
X154735260Y-85021589D01*
X154623318Y-85291842D01*
X154566250Y-85578740D01*
X148487500Y-85578740D01*
X148430432Y-85291842D01*
X148318490Y-85021589D01*
X148155975Y-84778368D01*
X147949132Y-84571525D01*
X147705911Y-84409010D01*
X147435658Y-84297068D01*
X147148760Y-84240000D01*
X146856240Y-84240000D01*
X146569342Y-84297068D01*
X146299089Y-84409010D01*
X146055868Y-84571525D01*
X145849025Y-84778368D01*
X145686510Y-85021589D01*
X145574568Y-85291842D01*
X145517500Y-85578740D01*
X144557500Y-85578740D01*
X144557500Y-85465475D01*
X144456239Y-84956399D01*
X144257607Y-84476859D01*
X143969238Y-84045285D01*
X143602215Y-83678262D01*
X143170641Y-83389893D01*
X142691101Y-83191261D01*
X142182025Y-83090000D01*
X141662975Y-83090000D01*
X141153899Y-83191261D01*
X140674359Y-83389893D01*
X140242785Y-83678262D01*
X139875762Y-84045285D01*
X139587393Y-84476859D01*
X139388761Y-84956399D01*
X139287500Y-85465475D01*
X138304971Y-85465475D01*
X138270432Y-85291842D01*
X138158490Y-85021589D01*
X138092150Y-84922304D01*
X138171139Y-84927409D01*
X138509939Y-84882489D01*
X138833466Y-84772336D01*
X139031774Y-84666338D01*
X139139607Y-84391712D01*
X138112500Y-83364605D01*
X138098358Y-83378748D01*
X137918753Y-83199143D01*
X137932895Y-83185000D01*
X138292105Y-83185000D01*
X139319212Y-84212107D01*
X139593838Y-84104274D01*
X139744716Y-83797616D01*
X139832869Y-83467415D01*
X139854909Y-83126361D01*
X139809989Y-82787561D01*
X139699836Y-82464034D01*
X139593838Y-82265726D01*
X139319212Y-82157893D01*
X138292105Y-83185000D01*
X137932895Y-83185000D01*
X136905788Y-82157893D01*
X136631162Y-82265726D01*
X136480284Y-82572384D01*
X136392131Y-82902585D01*
X136370091Y-83243639D01*
X136415011Y-83582439D01*
X136525164Y-83905966D01*
X136631162Y-84104274D01*
X136905786Y-84212106D01*
X136877892Y-84240000D01*
X136696240Y-84240000D01*
X136409342Y-84297068D01*
X136139089Y-84409010D01*
X135895868Y-84571525D01*
X135689025Y-84778368D01*
X135526510Y-85021589D01*
X135414568Y-85291842D01*
X135357500Y-85578740D01*
X135035000Y-85578740D01*
X135035000Y-85559042D01*
X134970246Y-85233504D01*
X134843228Y-84926853D01*
X134658825Y-84650875D01*
X134424125Y-84416175D01*
X134148147Y-84231772D01*
X133841496Y-84104754D01*
X133515958Y-84040000D01*
X133184042Y-84040000D01*
X132858504Y-84104754D01*
X132551853Y-84231772D01*
X132275875Y-84416175D01*
X132041175Y-84650875D01*
X131889500Y-84877872D01*
X131889500Y-81978288D01*
X137085393Y-81978288D01*
X138112500Y-83005395D01*
X139139607Y-81978288D01*
X139031774Y-81703662D01*
X138725116Y-81552784D01*
X138394915Y-81464631D01*
X138053861Y-81442591D01*
X137715061Y-81487511D01*
X137391534Y-81597664D01*
X137193226Y-81703662D01*
X137085393Y-81978288D01*
X131889500Y-81978288D01*
X131889500Y-80168750D01*
X131887060Y-80143974D01*
X131879833Y-80120149D01*
X131868097Y-80098193D01*
X131852303Y-80078947D01*
X129737021Y-77963665D01*
X132232500Y-77963665D01*
X132232500Y-78246335D01*
X132287647Y-78523574D01*
X132395820Y-78784727D01*
X132552863Y-79019759D01*
X132752741Y-79219637D01*
X132987773Y-79376680D01*
X133248926Y-79484853D01*
X133526165Y-79540000D01*
X133808835Y-79540000D01*
X134086074Y-79484853D01*
X134347227Y-79376680D01*
X134582259Y-79219637D01*
X134704194Y-79097702D01*
X135394403Y-79097702D01*
X135465986Y-79341671D01*
X135721496Y-79462571D01*
X135995684Y-79531300D01*
X136278012Y-79545217D01*
X136557630Y-79503787D01*
X136823792Y-79408603D01*
X136949014Y-79341671D01*
X137020597Y-79097702D01*
X136207500Y-78284605D01*
X135394403Y-79097702D01*
X134704194Y-79097702D01*
X134782137Y-79019759D01*
X134938415Y-78785872D01*
X134970829Y-78846514D01*
X135214798Y-78918097D01*
X136027895Y-78105000D01*
X135214798Y-77291903D01*
X134970829Y-77363486D01*
X134940306Y-77427992D01*
X134939180Y-77425273D01*
X134782137Y-77190241D01*
X134704194Y-77112298D01*
X135394403Y-77112298D01*
X136207500Y-77925395D01*
X137020597Y-77112298D01*
X136949014Y-76868329D01*
X136693504Y-76747429D01*
X136419316Y-76678700D01*
X136136988Y-76664783D01*
X135857370Y-76706213D01*
X135591208Y-76801397D01*
X135465986Y-76868329D01*
X135394403Y-77112298D01*
X134704194Y-77112298D01*
X134582259Y-76990363D01*
X134347227Y-76833320D01*
X134086074Y-76725147D01*
X133808835Y-76670000D01*
X133526165Y-76670000D01*
X133248926Y-76725147D01*
X132987773Y-76833320D01*
X132752741Y-76990363D01*
X132552863Y-77190241D01*
X132395820Y-77425273D01*
X132287647Y-77686426D01*
X132232500Y-77963665D01*
X129737021Y-77963665D01*
X128677303Y-76903947D01*
X128658057Y-76888153D01*
X128636101Y-76876417D01*
X128629436Y-76874395D01*
X128867875Y-76715075D01*
X129102575Y-76480375D01*
X129286978Y-76204397D01*
X129413996Y-75897746D01*
X129478750Y-75572208D01*
X129478750Y-75240292D01*
X129413996Y-74914754D01*
X129286978Y-74608103D01*
X129102575Y-74332125D01*
X128867875Y-74097425D01*
X128640878Y-73945750D01*
X129328644Y-73945750D01*
X130085197Y-74702303D01*
G36*
X240225875Y-74097425D02*
G01*
X239991175Y-74332125D01*
X239806772Y-74608103D01*
X239679754Y-74914754D01*
X239615000Y-75240292D01*
X239615000Y-75572208D01*
X239679754Y-75897746D01*
X239806772Y-76204397D01*
X239991175Y-76480375D01*
X240225875Y-76715075D01*
X240501853Y-76899478D01*
X240808504Y-77026496D01*
X241134042Y-77091250D01*
X241465958Y-77091250D01*
X241791496Y-77026496D01*
X242098147Y-76899478D01*
X242374125Y-76715075D01*
X242608825Y-76480375D01*
X242760500Y-76253378D01*
X242760500Y-83328915D01*
X242751185Y-83317565D01*
X242654494Y-83238213D01*
X242544180Y-83179248D01*
X242424482Y-83142938D01*
X242300000Y-83130678D01*
X240300000Y-83130678D01*
X240175518Y-83142938D01*
X240055820Y-83179248D01*
X239945506Y-83238213D01*
X239848815Y-83317565D01*
X239769463Y-83414256D01*
X239710498Y-83524570D01*
X239674188Y-83644268D01*
X239661928Y-83768750D01*
X239661928Y-86968750D01*
X239674188Y-87093232D01*
X239710498Y-87212930D01*
X239769463Y-87323244D01*
X239848815Y-87419935D01*
X239945506Y-87499287D01*
X240055820Y-87558252D01*
X240175518Y-87594562D01*
X240300000Y-87606822D01*
X242300000Y-87606822D01*
X242424482Y-87594562D01*
X242544180Y-87558252D01*
X242654494Y-87499287D01*
X242751185Y-87419935D01*
X242760500Y-87408585D01*
X242760500Y-95196622D01*
X242608825Y-94969625D01*
X242374125Y-94734925D01*
X242098147Y-94550522D01*
X241791496Y-94423504D01*
X241465958Y-94358750D01*
X241134042Y-94358750D01*
X240808504Y-94423504D01*
X240501853Y-94550522D01*
X240225875Y-94734925D01*
X239991175Y-94969625D01*
X239806772Y-95245603D01*
X239679754Y-95552254D01*
X239615000Y-95877792D01*
X239615000Y-96209708D01*
X239679754Y-96535246D01*
X239806772Y-96841897D01*
X239991175Y-97117875D01*
X240225875Y-97352575D01*
X240452872Y-97504250D01*
X232621356Y-97504250D01*
X231864803Y-96747697D01*
X231845557Y-96731903D01*
X231823601Y-96720167D01*
X231799776Y-96712940D01*
X231775000Y-96710500D01*
X228969070Y-96710500D01*
X229025392Y-96680395D01*
X229141422Y-96585172D01*
X229165284Y-96556096D01*
X231493602Y-94227779D01*
X231522672Y-94203922D01*
X231606949Y-94101230D01*
X231610498Y-94112930D01*
X231669463Y-94223244D01*
X231748815Y-94319935D01*
X231845506Y-94399287D01*
X231955820Y-94458252D01*
X232075518Y-94494562D01*
X232200000Y-94506822D01*
X234200000Y-94506822D01*
X234324482Y-94494562D01*
X234444180Y-94458252D01*
X234554494Y-94399287D01*
X234651185Y-94319935D01*
X234730537Y-94223244D01*
X234785976Y-94119527D01*
X234839956Y-94268564D01*
X235129571Y-94409454D01*
X235441108Y-94491134D01*
X235762595Y-94510468D01*
X236081675Y-94466711D01*
X236386088Y-94361545D01*
X236560044Y-94268564D01*
X236655808Y-94004163D01*
X235700000Y-93048355D01*
X235685858Y-93062498D01*
X235506253Y-92882893D01*
X235520395Y-92868750D01*
X235879605Y-92868750D01*
X236835413Y-93824558D01*
X236865075Y-93813815D01*
X236930013Y-93911002D01*
X237157748Y-94138737D01*
X237425537Y-94317668D01*
X237723088Y-94440918D01*
X238038967Y-94503750D01*
X238361033Y-94503750D01*
X238676912Y-94440918D01*
X238974463Y-94317668D01*
X239242252Y-94138737D01*
X239469987Y-93911002D01*
X239648918Y-93643213D01*
X239772168Y-93345662D01*
X239835000Y-93029783D01*
X239835000Y-92707717D01*
X239772168Y-92391838D01*
X239648918Y-92094287D01*
X239469987Y-91826498D01*
X239242252Y-91598763D01*
X238974463Y-91419832D01*
X238676912Y-91296582D01*
X238361033Y-91233750D01*
X238038967Y-91233750D01*
X237723088Y-91296582D01*
X237425537Y-91419832D01*
X237157748Y-91598763D01*
X236930013Y-91826498D01*
X236865075Y-91923685D01*
X236835413Y-91912942D01*
X235879605Y-92868750D01*
X235520395Y-92868750D01*
X235506253Y-92854608D01*
X235685858Y-92675003D01*
X235700000Y-92689145D01*
X236655808Y-91733337D01*
X236560044Y-91468936D01*
X236270429Y-91328046D01*
X235958892Y-91246366D01*
X235637405Y-91227032D01*
X235318325Y-91270789D01*
X235013912Y-91375955D01*
X234839956Y-91468936D01*
X234785976Y-91617973D01*
X234730537Y-91514256D01*
X234651185Y-91417565D01*
X234554494Y-91338213D01*
X234444180Y-91279248D01*
X234324482Y-91242938D01*
X234200000Y-91230678D01*
X232200000Y-91230678D01*
X232099561Y-91240570D01*
X232287351Y-91052780D01*
X232316422Y-91028922D01*
X232411645Y-90912892D01*
X232482402Y-90780515D01*
X232525974Y-90636878D01*
X232537000Y-90524926D01*
X232537000Y-90524924D01*
X232540686Y-90487501D01*
X232537000Y-90450078D01*
X232537000Y-81746880D01*
X233712352Y-80571529D01*
X233741422Y-80547672D01*
X233836645Y-80431642D01*
X233907402Y-80299265D01*
X233950974Y-80155628D01*
X233962000Y-80043676D01*
X233962000Y-80043674D01*
X233965686Y-80006251D01*
X233962000Y-79968828D01*
X233962000Y-79822830D01*
X233974463Y-79817668D01*
X234242252Y-79638737D01*
X234376826Y-79504163D01*
X237244192Y-79504163D01*
X237339956Y-79768564D01*
X237629571Y-79909454D01*
X237941108Y-79991134D01*
X238262595Y-80010468D01*
X238581675Y-79966711D01*
X238886088Y-79861545D01*
X239060044Y-79768564D01*
X239155808Y-79504163D01*
X238200000Y-78548355D01*
X237244192Y-79504163D01*
X234376826Y-79504163D01*
X234469987Y-79411002D01*
X234648918Y-79143213D01*
X234772168Y-78845662D01*
X234835000Y-78529783D01*
X234835000Y-78431345D01*
X236558282Y-78431345D01*
X236602039Y-78750425D01*
X236707205Y-79054838D01*
X236800186Y-79228794D01*
X237064587Y-79324558D01*
X238020395Y-78368750D01*
X238379605Y-78368750D01*
X239335413Y-79324558D01*
X239599814Y-79228794D01*
X239740704Y-78939179D01*
X239822384Y-78627642D01*
X239841718Y-78306155D01*
X239797961Y-77987075D01*
X239692795Y-77682662D01*
X239599814Y-77508706D01*
X239335413Y-77412942D01*
X238379605Y-78368750D01*
X238020395Y-78368750D01*
X237064587Y-77412942D01*
X236800186Y-77508706D01*
X236659296Y-77798321D01*
X236577616Y-78109858D01*
X236558282Y-78431345D01*
X234835000Y-78431345D01*
X234835000Y-78207717D01*
X234772168Y-77891838D01*
X234648918Y-77594287D01*
X234469987Y-77326498D01*
X234376826Y-77233337D01*
X237244192Y-77233337D01*
X238200000Y-78189145D01*
X239155808Y-77233337D01*
X239060044Y-76968936D01*
X238770429Y-76828046D01*
X238458892Y-76746366D01*
X238137405Y-76727032D01*
X237818325Y-76770789D01*
X237513912Y-76875955D01*
X237339956Y-76968936D01*
X237244192Y-77233337D01*
X234376826Y-77233337D01*
X234242252Y-77098763D01*
X233974463Y-76919832D01*
X233676912Y-76796582D01*
X233361033Y-76733750D01*
X233038967Y-76733750D01*
X232723088Y-76796582D01*
X232425537Y-76919832D01*
X232157748Y-77098763D01*
X231930013Y-77326498D01*
X231751082Y-77594287D01*
X231627832Y-77891838D01*
X231565000Y-78207717D01*
X231565000Y-78529783D01*
X231627832Y-78845662D01*
X231751082Y-79143213D01*
X231930013Y-79411002D01*
X232157748Y-79638737D01*
X232356848Y-79771771D01*
X231262654Y-80865966D01*
X231233578Y-80889828D01*
X231196970Y-80934436D01*
X231138355Y-81005858D01*
X231100535Y-81076615D01*
X231067598Y-81138236D01*
X231024026Y-81281873D01*
X231013000Y-81393824D01*
X231009314Y-81431250D01*
X231013000Y-81468673D01*
X231013000Y-83130678D01*
X229260000Y-83130678D01*
X229260000Y-74739500D01*
X230981250Y-74739500D01*
X231006026Y-74737060D01*
X231029851Y-74729833D01*
X231051807Y-74718097D01*
X231071053Y-74702303D01*
X231827606Y-73945750D01*
X240452872Y-73945750D01*
X240225875Y-74097425D01*
X240225875Y-74097425D01*
G37*
X240225875Y-74097425D02*
X239991175Y-74332125D01*
X239806772Y-74608103D01*
X239679754Y-74914754D01*
X239615000Y-75240292D01*
X239615000Y-75572208D01*
X239679754Y-75897746D01*
X239806772Y-76204397D01*
X239991175Y-76480375D01*
X240225875Y-76715075D01*
X240501853Y-76899478D01*
X240808504Y-77026496D01*
X241134042Y-77091250D01*
X241465958Y-77091250D01*
X241791496Y-77026496D01*
X242098147Y-76899478D01*
X242374125Y-76715075D01*
X242608825Y-76480375D01*
X242760500Y-76253378D01*
X242760500Y-83328915D01*
X242751185Y-83317565D01*
X242654494Y-83238213D01*
X242544180Y-83179248D01*
X242424482Y-83142938D01*
X242300000Y-83130678D01*
X240300000Y-83130678D01*
X240175518Y-83142938D01*
X240055820Y-83179248D01*
X239945506Y-83238213D01*
X239848815Y-83317565D01*
X239769463Y-83414256D01*
X239710498Y-83524570D01*
X239674188Y-83644268D01*
X239661928Y-83768750D01*
X239661928Y-86968750D01*
X239674188Y-87093232D01*
X239710498Y-87212930D01*
X239769463Y-87323244D01*
X239848815Y-87419935D01*
X239945506Y-87499287D01*
X240055820Y-87558252D01*
X240175518Y-87594562D01*
X240300000Y-87606822D01*
X242300000Y-87606822D01*
X242424482Y-87594562D01*
X242544180Y-87558252D01*
X242654494Y-87499287D01*
X242751185Y-87419935D01*
X242760500Y-87408585D01*
X242760500Y-95196622D01*
X242608825Y-94969625D01*
X242374125Y-94734925D01*
X242098147Y-94550522D01*
X241791496Y-94423504D01*
X241465958Y-94358750D01*
X241134042Y-94358750D01*
X240808504Y-94423504D01*
X240501853Y-94550522D01*
X240225875Y-94734925D01*
X239991175Y-94969625D01*
X239806772Y-95245603D01*
X239679754Y-95552254D01*
X239615000Y-95877792D01*
X239615000Y-96209708D01*
X239679754Y-96535246D01*
X239806772Y-96841897D01*
X239991175Y-97117875D01*
X240225875Y-97352575D01*
X240452872Y-97504250D01*
X232621356Y-97504250D01*
X231864803Y-96747697D01*
X231845557Y-96731903D01*
X231823601Y-96720167D01*
X231799776Y-96712940D01*
X231775000Y-96710500D01*
X228969070Y-96710500D01*
X229025392Y-96680395D01*
X229141422Y-96585172D01*
X229165284Y-96556096D01*
X231493602Y-94227779D01*
X231522672Y-94203922D01*
X231606949Y-94101230D01*
X231610498Y-94112930D01*
X231669463Y-94223244D01*
X231748815Y-94319935D01*
X231845506Y-94399287D01*
X231955820Y-94458252D01*
X232075518Y-94494562D01*
X232200000Y-94506822D01*
X234200000Y-94506822D01*
X234324482Y-94494562D01*
X234444180Y-94458252D01*
X234554494Y-94399287D01*
X234651185Y-94319935D01*
X234730537Y-94223244D01*
X234785976Y-94119527D01*
X234839956Y-94268564D01*
X235129571Y-94409454D01*
X235441108Y-94491134D01*
X235762595Y-94510468D01*
X236081675Y-94466711D01*
X236386088Y-94361545D01*
X236560044Y-94268564D01*
X236655808Y-94004163D01*
X235700000Y-93048355D01*
X235685858Y-93062498D01*
X235506253Y-92882893D01*
X235520395Y-92868750D01*
X235879605Y-92868750D01*
X236835413Y-93824558D01*
X236865075Y-93813815D01*
X236930013Y-93911002D01*
X237157748Y-94138737D01*
X237425537Y-94317668D01*
X237723088Y-94440918D01*
X238038967Y-94503750D01*
X238361033Y-94503750D01*
X238676912Y-94440918D01*
X238974463Y-94317668D01*
X239242252Y-94138737D01*
X239469987Y-93911002D01*
X239648918Y-93643213D01*
X239772168Y-93345662D01*
X239835000Y-93029783D01*
X239835000Y-92707717D01*
X239772168Y-92391838D01*
X239648918Y-92094287D01*
X239469987Y-91826498D01*
X239242252Y-91598763D01*
X238974463Y-91419832D01*
X238676912Y-91296582D01*
X238361033Y-91233750D01*
X238038967Y-91233750D01*
X237723088Y-91296582D01*
X237425537Y-91419832D01*
X237157748Y-91598763D01*
X236930013Y-91826498D01*
X236865075Y-91923685D01*
X236835413Y-91912942D01*
X235879605Y-92868750D01*
X235520395Y-92868750D01*
X235506253Y-92854608D01*
X235685858Y-92675003D01*
X235700000Y-92689145D01*
X236655808Y-91733337D01*
X236560044Y-91468936D01*
X236270429Y-91328046D01*
X235958892Y-91246366D01*
X235637405Y-91227032D01*
X235318325Y-91270789D01*
X235013912Y-91375955D01*
X234839956Y-91468936D01*
X234785976Y-91617973D01*
X234730537Y-91514256D01*
X234651185Y-91417565D01*
X234554494Y-91338213D01*
X234444180Y-91279248D01*
X234324482Y-91242938D01*
X234200000Y-91230678D01*
X232200000Y-91230678D01*
X232099561Y-91240570D01*
X232287351Y-91052780D01*
X232316422Y-91028922D01*
X232411645Y-90912892D01*
X232482402Y-90780515D01*
X232525974Y-90636878D01*
X232537000Y-90524926D01*
X232537000Y-90524924D01*
X232540686Y-90487501D01*
X232537000Y-90450078D01*
X232537000Y-81746880D01*
X233712352Y-80571529D01*
X233741422Y-80547672D01*
X233836645Y-80431642D01*
X233907402Y-80299265D01*
X233950974Y-80155628D01*
X233962000Y-80043676D01*
X233962000Y-80043674D01*
X233965686Y-80006251D01*
X233962000Y-79968828D01*
X233962000Y-79822830D01*
X233974463Y-79817668D01*
X234242252Y-79638737D01*
X234376826Y-79504163D01*
X237244192Y-79504163D01*
X237339956Y-79768564D01*
X237629571Y-79909454D01*
X237941108Y-79991134D01*
X238262595Y-80010468D01*
X238581675Y-79966711D01*
X238886088Y-79861545D01*
X239060044Y-79768564D01*
X239155808Y-79504163D01*
X238200000Y-78548355D01*
X237244192Y-79504163D01*
X234376826Y-79504163D01*
X234469987Y-79411002D01*
X234648918Y-79143213D01*
X234772168Y-78845662D01*
X234835000Y-78529783D01*
X234835000Y-78431345D01*
X236558282Y-78431345D01*
X236602039Y-78750425D01*
X236707205Y-79054838D01*
X236800186Y-79228794D01*
X237064587Y-79324558D01*
X238020395Y-78368750D01*
X238379605Y-78368750D01*
X239335413Y-79324558D01*
X239599814Y-79228794D01*
X239740704Y-78939179D01*
X239822384Y-78627642D01*
X239841718Y-78306155D01*
X239797961Y-77987075D01*
X239692795Y-77682662D01*
X239599814Y-77508706D01*
X239335413Y-77412942D01*
X238379605Y-78368750D01*
X238020395Y-78368750D01*
X237064587Y-77412942D01*
X236800186Y-77508706D01*
X236659296Y-77798321D01*
X236577616Y-78109858D01*
X236558282Y-78431345D01*
X234835000Y-78431345D01*
X234835000Y-78207717D01*
X234772168Y-77891838D01*
X234648918Y-77594287D01*
X234469987Y-77326498D01*
X234376826Y-77233337D01*
X237244192Y-77233337D01*
X238200000Y-78189145D01*
X239155808Y-77233337D01*
X239060044Y-76968936D01*
X238770429Y-76828046D01*
X238458892Y-76746366D01*
X238137405Y-76727032D01*
X237818325Y-76770789D01*
X237513912Y-76875955D01*
X237339956Y-76968936D01*
X237244192Y-77233337D01*
X234376826Y-77233337D01*
X234242252Y-77098763D01*
X233974463Y-76919832D01*
X233676912Y-76796582D01*
X233361033Y-76733750D01*
X233038967Y-76733750D01*
X232723088Y-76796582D01*
X232425537Y-76919832D01*
X232157748Y-77098763D01*
X231930013Y-77326498D01*
X231751082Y-77594287D01*
X231627832Y-77891838D01*
X231565000Y-78207717D01*
X231565000Y-78529783D01*
X231627832Y-78845662D01*
X231751082Y-79143213D01*
X231930013Y-79411002D01*
X232157748Y-79638737D01*
X232356848Y-79771771D01*
X231262654Y-80865966D01*
X231233578Y-80889828D01*
X231196970Y-80934436D01*
X231138355Y-81005858D01*
X231100535Y-81076615D01*
X231067598Y-81138236D01*
X231024026Y-81281873D01*
X231013000Y-81393824D01*
X231009314Y-81431250D01*
X231013000Y-81468673D01*
X231013000Y-83130678D01*
X229260000Y-83130678D01*
X229260000Y-74739500D01*
X230981250Y-74739500D01*
X231006026Y-74737060D01*
X231029851Y-74729833D01*
X231051807Y-74718097D01*
X231071053Y-74702303D01*
X231827606Y-73945750D01*
X240452872Y-73945750D01*
X240225875Y-74097425D01*
M02*
