M48
; DRILL file {KiCad (5.1.4)-1} date 12/24/21 02:42:11
; FORMAT={-:-/ absolute / inch / decimal}
; #@! TF.CreationDate,2021-12-24T02:42:11+01:00
; #@! TF.GenerationSoftware,Kicad,Pcbnew,(5.1.4)-1
; #@! TF.FileFunction,NonPlated,1,2,NPTH
FMAT,2
INCH
T1C0.0669
T2C0.0827
T3C0.1575
%
G90
G05
T1
X8.3937Y-3.375
X8.7937Y-3.375
X6.1437Y-3.375
X6.5438Y-3.375
X6.8937Y-3.375
X7.2938Y-3.375
X7.6437Y-3.375
X8.0437Y-3.375
X5.3875Y-3.375
X5.7875Y-3.375
T2
X6.6875Y-3.7812
X9.5Y-3.7812
X5.25Y-3.375
X5.0312Y-3.7812
X5.0312Y-2.9688
X6.6875Y-2.9688
X9.5Y-2.9688
X8.4375Y-3.7812
X8.4375Y-2.9688
T3
X8.5938Y-3.375
X6.3438Y-3.375
X7.0938Y-3.375
X7.8438Y-3.375
X5.5875Y-3.375
T0
M30
