G04 #@! TF.GenerationSoftware,KiCad,Pcbnew,(5.1.4)-1*
G04 #@! TF.CreationDate,2021-12-24T02:42:09+01:00*
G04 #@! TF.ProjectId,5Plank,35506c61-6e6b-42e6-9b69-6361645f7063,rev?*
G04 #@! TF.SameCoordinates,Original*
G04 #@! TF.FileFunction,Legend,Bot*
G04 #@! TF.FilePolarity,Positive*
%FSLAX46Y46*%
G04 Gerber Fmt 4.6, Leading zero omitted, Abs format (unit mm)*
G04 Created by KiCad (PCBNEW (5.1.4)-1) date 2021-12-24 02:42:09*
%MOMM*%
%LPD*%
G04 APERTURE LIST*
%ADD10C,0.150000*%
%ADD11C,2.202000*%
%ADD12R,2.102000X2.102000*%
%ADD13C,2.102000*%
%ADD14R,2.102000X3.302000*%
%ADD15C,1.802000*%
%ADD16C,4.102000*%
%ADD17C,2.302000*%
%ADD18C,1.702000*%
%ADD19R,1.702000X1.702000*%
G04 APERTURE END LIST*
D10*
X132397500Y-76835000D02*
X162877500Y-76835000D01*
X132397500Y-81915000D02*
X132397500Y-76835000D01*
X129857500Y-81915000D02*
X132397500Y-81915000D01*
X129857500Y-89535000D02*
X129857500Y-81915000D01*
X132397500Y-89535000D02*
X129857500Y-89535000D01*
X132397500Y-94615000D02*
X132397500Y-89535000D01*
X162877500Y-94615000D02*
X132397500Y-94615000D01*
X162877500Y-76835000D02*
X162877500Y-94615000D01*
%LPC*%
D11*
X127793750Y-96043750D03*
X127793750Y-75406250D03*
D12*
X233200000Y-92868750D03*
D13*
X235700000Y-92868750D03*
X238200000Y-92868750D03*
D14*
X230100000Y-85368750D03*
X241300000Y-85368750D03*
D13*
X233200000Y-78368750D03*
X238200000Y-78368750D03*
D11*
X214312500Y-96043750D03*
X214312500Y-75406250D03*
D15*
X185261250Y-85725000D03*
X175101250Y-85725000D03*
D16*
X180181250Y-85725000D03*
D17*
X176371250Y-83185000D03*
X182721250Y-80645000D03*
D11*
X169862500Y-75406250D03*
X169862500Y-96043750D03*
X241300000Y-75406250D03*
X241300000Y-96043750D03*
X133350000Y-85725000D03*
D18*
X133667500Y-78105000D03*
X136207500Y-78105000D03*
X138747500Y-78105000D03*
X141287500Y-78105000D03*
X143827500Y-78105000D03*
X146367500Y-78105000D03*
X148907500Y-78105000D03*
X151447500Y-78105000D03*
X153987500Y-78105000D03*
X156527500Y-78105000D03*
X159067500Y-78105000D03*
X161607500Y-78105000D03*
X161607500Y-93345000D03*
X159067500Y-93345000D03*
X156527500Y-93345000D03*
X153987500Y-93345000D03*
X151447500Y-93345000D03*
X148907500Y-93345000D03*
X146367500Y-93345000D03*
X143827500Y-93345000D03*
X141287500Y-93345000D03*
X138747500Y-93345000D03*
X136207500Y-93345000D03*
D19*
X133667500Y-93345000D03*
D15*
X223361250Y-85725000D03*
X213201250Y-85725000D03*
D16*
X218281250Y-85725000D03*
D17*
X214471250Y-83185000D03*
X220821250Y-80645000D03*
D15*
X204311250Y-85725000D03*
X194151250Y-85725000D03*
D16*
X199231250Y-85725000D03*
D17*
X195421250Y-83185000D03*
X201771250Y-80645000D03*
D15*
X166211250Y-85725000D03*
X156051250Y-85725000D03*
D16*
X161131250Y-85725000D03*
D17*
X157321250Y-83185000D03*
X163671250Y-80645000D03*
D15*
X147002500Y-85725000D03*
X136842500Y-85725000D03*
D16*
X141922500Y-85725000D03*
D17*
X138112500Y-83185000D03*
X144462500Y-80645000D03*
M02*
