M48
; DRILL file {KiCad (5.1.4)-1} date 12/24/21 02:42:11
; FORMAT={-:-/ absolute / inch / decimal}
; #@! TF.CreationDate,2021-12-24T02:42:11+01:00
; #@! TF.GenerationSoftware,Kicad,Pcbnew,(5.1.4)-1
; #@! TF.FileFunction,Plated,1,2,PTH
FMAT,2
INCH
T1C0.0394
T2C0.0433
T3C0.0591
%
G90
G05
T1
X9.1811Y-3.0854
X9.1811Y-3.6562
X9.2795Y-3.6562
X9.378Y-3.0854
X9.378Y-3.6562
T2
X5.2625Y-3.075
X5.2625Y-3.675
X5.3625Y-3.075
X5.3625Y-3.675
X5.4625Y-3.075
X5.4625Y-3.675
X5.5625Y-3.075
X5.5625Y-3.675
X5.6625Y-3.075
X5.6625Y-3.675
X5.7625Y-3.075
X5.7625Y-3.675
X5.8625Y-3.075
X5.8625Y-3.675
X5.9625Y-3.075
X5.9625Y-3.675
X6.0625Y-3.075
X6.0625Y-3.675
X6.1625Y-3.075
X6.1625Y-3.675
X6.2625Y-3.075
X6.2625Y-3.675
X6.3625Y-3.075
X6.3625Y-3.675
T3
X8.4437Y-3.275
X8.6937Y-3.175
X6.1937Y-3.275
X6.4437Y-3.175
X6.9437Y-3.275
X7.1937Y-3.175
X7.6937Y-3.275
X7.9437Y-3.175
X5.4375Y-3.275
X5.6875Y-3.175
T3
G00X9.0591Y-3.3866
M15
G01X9.0591Y-3.3354
M16
G05
G00X9.5Y-3.3866
M15
G01X9.5Y-3.3354
M16
G05
T0
M30
