G04 #@! TF.GenerationSoftware,KiCad,Pcbnew,(5.1.4)-1*
G04 #@! TF.CreationDate,2021-12-24T02:42:09+01:00*
G04 #@! TF.ProjectId,5Plank,35506c61-6e6b-42e6-9b69-6361645f7063,rev?*
G04 #@! TF.SameCoordinates,Original*
G04 #@! TF.FileFunction,Soldermask,Top*
G04 #@! TF.FilePolarity,Negative*
%FSLAX46Y46*%
G04 Gerber Fmt 4.6, Leading zero omitted, Abs format (unit mm)*
G04 Created by KiCad (PCBNEW (5.1.4)-1) date 2021-12-24 02:42:09*
%MOMM*%
%LPD*%
G04 APERTURE LIST*
%ADD10C,0.100000*%
G04 APERTURE END LIST*
D10*
G36*
X241514795Y-94963906D02*
G01*
X241621150Y-94985061D01*
X241821520Y-95068057D01*
X242001844Y-95188545D01*
X242155205Y-95341906D01*
X242275693Y-95522230D01*
X242358689Y-95722601D01*
X242401000Y-95935310D01*
X242401000Y-96152190D01*
X242358689Y-96364899D01*
X242275693Y-96565270D01*
X242155205Y-96745594D01*
X242001844Y-96898955D01*
X241821520Y-97019443D01*
X241721334Y-97060941D01*
X241621150Y-97102439D01*
X241514795Y-97123594D01*
X241408440Y-97144750D01*
X241191560Y-97144750D01*
X241085206Y-97123595D01*
X240978850Y-97102439D01*
X240878666Y-97060941D01*
X240778480Y-97019443D01*
X240598156Y-96898955D01*
X240444795Y-96745594D01*
X240324307Y-96565270D01*
X240241311Y-96364899D01*
X240199000Y-96152190D01*
X240199000Y-95935310D01*
X240241311Y-95722601D01*
X240324307Y-95522230D01*
X240444795Y-95341906D01*
X240598156Y-95188545D01*
X240778480Y-95068057D01*
X240978850Y-94985061D01*
X241085206Y-94963905D01*
X241191560Y-94942750D01*
X241408440Y-94942750D01*
X241514795Y-94963906D01*
X241514795Y-94963906D01*
G37*
G36*
X214527295Y-94963906D02*
G01*
X214633650Y-94985061D01*
X214834020Y-95068057D01*
X215014344Y-95188545D01*
X215167705Y-95341906D01*
X215288193Y-95522230D01*
X215371189Y-95722601D01*
X215413500Y-95935310D01*
X215413500Y-96152190D01*
X215371189Y-96364899D01*
X215288193Y-96565270D01*
X215167705Y-96745594D01*
X215014344Y-96898955D01*
X214834020Y-97019443D01*
X214733834Y-97060941D01*
X214633650Y-97102439D01*
X214527295Y-97123594D01*
X214420940Y-97144750D01*
X214204060Y-97144750D01*
X214097706Y-97123595D01*
X213991350Y-97102439D01*
X213891166Y-97060941D01*
X213790980Y-97019443D01*
X213610656Y-96898955D01*
X213457295Y-96745594D01*
X213336807Y-96565270D01*
X213253811Y-96364899D01*
X213211500Y-96152190D01*
X213211500Y-95935310D01*
X213253811Y-95722601D01*
X213336807Y-95522230D01*
X213457295Y-95341906D01*
X213610656Y-95188545D01*
X213790980Y-95068057D01*
X213991350Y-94985061D01*
X214097706Y-94963905D01*
X214204060Y-94942750D01*
X214420940Y-94942750D01*
X214527295Y-94963906D01*
X214527295Y-94963906D01*
G37*
G36*
X128008545Y-94963906D02*
G01*
X128114900Y-94985061D01*
X128315270Y-95068057D01*
X128495594Y-95188545D01*
X128648955Y-95341906D01*
X128769443Y-95522230D01*
X128852439Y-95722601D01*
X128894750Y-95935310D01*
X128894750Y-96152190D01*
X128852439Y-96364899D01*
X128769443Y-96565270D01*
X128648955Y-96745594D01*
X128495594Y-96898955D01*
X128315270Y-97019443D01*
X128215084Y-97060941D01*
X128114900Y-97102439D01*
X128008545Y-97123594D01*
X127902190Y-97144750D01*
X127685310Y-97144750D01*
X127578956Y-97123595D01*
X127472600Y-97102439D01*
X127372416Y-97060941D01*
X127272230Y-97019443D01*
X127091906Y-96898955D01*
X126938545Y-96745594D01*
X126818057Y-96565270D01*
X126735061Y-96364899D01*
X126692750Y-96152190D01*
X126692750Y-95935310D01*
X126735061Y-95722601D01*
X126818057Y-95522230D01*
X126938545Y-95341906D01*
X127091906Y-95188545D01*
X127272230Y-95068057D01*
X127472600Y-94985061D01*
X127578956Y-94963905D01*
X127685310Y-94942750D01*
X127902190Y-94942750D01*
X128008545Y-94963906D01*
X128008545Y-94963906D01*
G37*
G36*
X170077295Y-94963906D02*
G01*
X170183650Y-94985061D01*
X170384020Y-95068057D01*
X170564344Y-95188545D01*
X170717705Y-95341906D01*
X170838193Y-95522230D01*
X170921189Y-95722601D01*
X170963500Y-95935310D01*
X170963500Y-96152190D01*
X170921189Y-96364899D01*
X170838193Y-96565270D01*
X170717705Y-96745594D01*
X170564344Y-96898955D01*
X170384020Y-97019443D01*
X170283834Y-97060941D01*
X170183650Y-97102439D01*
X170077295Y-97123594D01*
X169970940Y-97144750D01*
X169754060Y-97144750D01*
X169647706Y-97123595D01*
X169541350Y-97102439D01*
X169441166Y-97060941D01*
X169340980Y-97019443D01*
X169160656Y-96898955D01*
X169007295Y-96745594D01*
X168886807Y-96565270D01*
X168803811Y-96364899D01*
X168761500Y-96152190D01*
X168761500Y-95935310D01*
X168803811Y-95722601D01*
X168886807Y-95522230D01*
X169007295Y-95341906D01*
X169160656Y-95188545D01*
X169340980Y-95068057D01*
X169541350Y-94985061D01*
X169647706Y-94963905D01*
X169754060Y-94942750D01*
X169970940Y-94942750D01*
X170077295Y-94963906D01*
X170077295Y-94963906D01*
G37*
G36*
X144075728Y-92526703D02*
G01*
X144230600Y-92590853D01*
X144369981Y-92683985D01*
X144488515Y-92802519D01*
X144581647Y-92941900D01*
X144645797Y-93096772D01*
X144678500Y-93261184D01*
X144678500Y-93428816D01*
X144645797Y-93593228D01*
X144581647Y-93748100D01*
X144488515Y-93887481D01*
X144369981Y-94006015D01*
X144230600Y-94099147D01*
X144075728Y-94163297D01*
X143911316Y-94196000D01*
X143743684Y-94196000D01*
X143579272Y-94163297D01*
X143424400Y-94099147D01*
X143285019Y-94006015D01*
X143166485Y-93887481D01*
X143073353Y-93748100D01*
X143009203Y-93593228D01*
X142976500Y-93428816D01*
X142976500Y-93261184D01*
X143009203Y-93096772D01*
X143073353Y-92941900D01*
X143166485Y-92802519D01*
X143285019Y-92683985D01*
X143424400Y-92590853D01*
X143579272Y-92526703D01*
X143743684Y-92494000D01*
X143911316Y-92494000D01*
X144075728Y-92526703D01*
X144075728Y-92526703D01*
G37*
G36*
X161855728Y-92526703D02*
G01*
X162010600Y-92590853D01*
X162149981Y-92683985D01*
X162268515Y-92802519D01*
X162361647Y-92941900D01*
X162425797Y-93096772D01*
X162458500Y-93261184D01*
X162458500Y-93428816D01*
X162425797Y-93593228D01*
X162361647Y-93748100D01*
X162268515Y-93887481D01*
X162149981Y-94006015D01*
X162010600Y-94099147D01*
X161855728Y-94163297D01*
X161691316Y-94196000D01*
X161523684Y-94196000D01*
X161359272Y-94163297D01*
X161204400Y-94099147D01*
X161065019Y-94006015D01*
X160946485Y-93887481D01*
X160853353Y-93748100D01*
X160789203Y-93593228D01*
X160756500Y-93428816D01*
X160756500Y-93261184D01*
X160789203Y-93096772D01*
X160853353Y-92941900D01*
X160946485Y-92802519D01*
X161065019Y-92683985D01*
X161204400Y-92590853D01*
X161359272Y-92526703D01*
X161523684Y-92494000D01*
X161691316Y-92494000D01*
X161855728Y-92526703D01*
X161855728Y-92526703D01*
G37*
G36*
X159315728Y-92526703D02*
G01*
X159470600Y-92590853D01*
X159609981Y-92683985D01*
X159728515Y-92802519D01*
X159821647Y-92941900D01*
X159885797Y-93096772D01*
X159918500Y-93261184D01*
X159918500Y-93428816D01*
X159885797Y-93593228D01*
X159821647Y-93748100D01*
X159728515Y-93887481D01*
X159609981Y-94006015D01*
X159470600Y-94099147D01*
X159315728Y-94163297D01*
X159151316Y-94196000D01*
X158983684Y-94196000D01*
X158819272Y-94163297D01*
X158664400Y-94099147D01*
X158525019Y-94006015D01*
X158406485Y-93887481D01*
X158313353Y-93748100D01*
X158249203Y-93593228D01*
X158216500Y-93428816D01*
X158216500Y-93261184D01*
X158249203Y-93096772D01*
X158313353Y-92941900D01*
X158406485Y-92802519D01*
X158525019Y-92683985D01*
X158664400Y-92590853D01*
X158819272Y-92526703D01*
X158983684Y-92494000D01*
X159151316Y-92494000D01*
X159315728Y-92526703D01*
X159315728Y-92526703D01*
G37*
G36*
X156775728Y-92526703D02*
G01*
X156930600Y-92590853D01*
X157069981Y-92683985D01*
X157188515Y-92802519D01*
X157281647Y-92941900D01*
X157345797Y-93096772D01*
X157378500Y-93261184D01*
X157378500Y-93428816D01*
X157345797Y-93593228D01*
X157281647Y-93748100D01*
X157188515Y-93887481D01*
X157069981Y-94006015D01*
X156930600Y-94099147D01*
X156775728Y-94163297D01*
X156611316Y-94196000D01*
X156443684Y-94196000D01*
X156279272Y-94163297D01*
X156124400Y-94099147D01*
X155985019Y-94006015D01*
X155866485Y-93887481D01*
X155773353Y-93748100D01*
X155709203Y-93593228D01*
X155676500Y-93428816D01*
X155676500Y-93261184D01*
X155709203Y-93096772D01*
X155773353Y-92941900D01*
X155866485Y-92802519D01*
X155985019Y-92683985D01*
X156124400Y-92590853D01*
X156279272Y-92526703D01*
X156443684Y-92494000D01*
X156611316Y-92494000D01*
X156775728Y-92526703D01*
X156775728Y-92526703D01*
G37*
G36*
X154235728Y-92526703D02*
G01*
X154390600Y-92590853D01*
X154529981Y-92683985D01*
X154648515Y-92802519D01*
X154741647Y-92941900D01*
X154805797Y-93096772D01*
X154838500Y-93261184D01*
X154838500Y-93428816D01*
X154805797Y-93593228D01*
X154741647Y-93748100D01*
X154648515Y-93887481D01*
X154529981Y-94006015D01*
X154390600Y-94099147D01*
X154235728Y-94163297D01*
X154071316Y-94196000D01*
X153903684Y-94196000D01*
X153739272Y-94163297D01*
X153584400Y-94099147D01*
X153445019Y-94006015D01*
X153326485Y-93887481D01*
X153233353Y-93748100D01*
X153169203Y-93593228D01*
X153136500Y-93428816D01*
X153136500Y-93261184D01*
X153169203Y-93096772D01*
X153233353Y-92941900D01*
X153326485Y-92802519D01*
X153445019Y-92683985D01*
X153584400Y-92590853D01*
X153739272Y-92526703D01*
X153903684Y-92494000D01*
X154071316Y-92494000D01*
X154235728Y-92526703D01*
X154235728Y-92526703D01*
G37*
G36*
X151695728Y-92526703D02*
G01*
X151850600Y-92590853D01*
X151989981Y-92683985D01*
X152108515Y-92802519D01*
X152201647Y-92941900D01*
X152265797Y-93096772D01*
X152298500Y-93261184D01*
X152298500Y-93428816D01*
X152265797Y-93593228D01*
X152201647Y-93748100D01*
X152108515Y-93887481D01*
X151989981Y-94006015D01*
X151850600Y-94099147D01*
X151695728Y-94163297D01*
X151531316Y-94196000D01*
X151363684Y-94196000D01*
X151199272Y-94163297D01*
X151044400Y-94099147D01*
X150905019Y-94006015D01*
X150786485Y-93887481D01*
X150693353Y-93748100D01*
X150629203Y-93593228D01*
X150596500Y-93428816D01*
X150596500Y-93261184D01*
X150629203Y-93096772D01*
X150693353Y-92941900D01*
X150786485Y-92802519D01*
X150905019Y-92683985D01*
X151044400Y-92590853D01*
X151199272Y-92526703D01*
X151363684Y-92494000D01*
X151531316Y-92494000D01*
X151695728Y-92526703D01*
X151695728Y-92526703D01*
G37*
G36*
X149155728Y-92526703D02*
G01*
X149310600Y-92590853D01*
X149449981Y-92683985D01*
X149568515Y-92802519D01*
X149661647Y-92941900D01*
X149725797Y-93096772D01*
X149758500Y-93261184D01*
X149758500Y-93428816D01*
X149725797Y-93593228D01*
X149661647Y-93748100D01*
X149568515Y-93887481D01*
X149449981Y-94006015D01*
X149310600Y-94099147D01*
X149155728Y-94163297D01*
X148991316Y-94196000D01*
X148823684Y-94196000D01*
X148659272Y-94163297D01*
X148504400Y-94099147D01*
X148365019Y-94006015D01*
X148246485Y-93887481D01*
X148153353Y-93748100D01*
X148089203Y-93593228D01*
X148056500Y-93428816D01*
X148056500Y-93261184D01*
X148089203Y-93096772D01*
X148153353Y-92941900D01*
X148246485Y-92802519D01*
X148365019Y-92683985D01*
X148504400Y-92590853D01*
X148659272Y-92526703D01*
X148823684Y-92494000D01*
X148991316Y-92494000D01*
X149155728Y-92526703D01*
X149155728Y-92526703D01*
G37*
G36*
X146615728Y-92526703D02*
G01*
X146770600Y-92590853D01*
X146909981Y-92683985D01*
X147028515Y-92802519D01*
X147121647Y-92941900D01*
X147185797Y-93096772D01*
X147218500Y-93261184D01*
X147218500Y-93428816D01*
X147185797Y-93593228D01*
X147121647Y-93748100D01*
X147028515Y-93887481D01*
X146909981Y-94006015D01*
X146770600Y-94099147D01*
X146615728Y-94163297D01*
X146451316Y-94196000D01*
X146283684Y-94196000D01*
X146119272Y-94163297D01*
X145964400Y-94099147D01*
X145825019Y-94006015D01*
X145706485Y-93887481D01*
X145613353Y-93748100D01*
X145549203Y-93593228D01*
X145516500Y-93428816D01*
X145516500Y-93261184D01*
X145549203Y-93096772D01*
X145613353Y-92941900D01*
X145706485Y-92802519D01*
X145825019Y-92683985D01*
X145964400Y-92590853D01*
X146119272Y-92526703D01*
X146283684Y-92494000D01*
X146451316Y-92494000D01*
X146615728Y-92526703D01*
X146615728Y-92526703D01*
G37*
G36*
X141535728Y-92526703D02*
G01*
X141690600Y-92590853D01*
X141829981Y-92683985D01*
X141948515Y-92802519D01*
X142041647Y-92941900D01*
X142105797Y-93096772D01*
X142138500Y-93261184D01*
X142138500Y-93428816D01*
X142105797Y-93593228D01*
X142041647Y-93748100D01*
X141948515Y-93887481D01*
X141829981Y-94006015D01*
X141690600Y-94099147D01*
X141535728Y-94163297D01*
X141371316Y-94196000D01*
X141203684Y-94196000D01*
X141039272Y-94163297D01*
X140884400Y-94099147D01*
X140745019Y-94006015D01*
X140626485Y-93887481D01*
X140533353Y-93748100D01*
X140469203Y-93593228D01*
X140436500Y-93428816D01*
X140436500Y-93261184D01*
X140469203Y-93096772D01*
X140533353Y-92941900D01*
X140626485Y-92802519D01*
X140745019Y-92683985D01*
X140884400Y-92590853D01*
X141039272Y-92526703D01*
X141203684Y-92494000D01*
X141371316Y-92494000D01*
X141535728Y-92526703D01*
X141535728Y-92526703D01*
G37*
G36*
X138995728Y-92526703D02*
G01*
X139150600Y-92590853D01*
X139289981Y-92683985D01*
X139408515Y-92802519D01*
X139501647Y-92941900D01*
X139565797Y-93096772D01*
X139598500Y-93261184D01*
X139598500Y-93428816D01*
X139565797Y-93593228D01*
X139501647Y-93748100D01*
X139408515Y-93887481D01*
X139289981Y-94006015D01*
X139150600Y-94099147D01*
X138995728Y-94163297D01*
X138831316Y-94196000D01*
X138663684Y-94196000D01*
X138499272Y-94163297D01*
X138344400Y-94099147D01*
X138205019Y-94006015D01*
X138086485Y-93887481D01*
X137993353Y-93748100D01*
X137929203Y-93593228D01*
X137896500Y-93428816D01*
X137896500Y-93261184D01*
X137929203Y-93096772D01*
X137993353Y-92941900D01*
X138086485Y-92802519D01*
X138205019Y-92683985D01*
X138344400Y-92590853D01*
X138499272Y-92526703D01*
X138663684Y-92494000D01*
X138831316Y-92494000D01*
X138995728Y-92526703D01*
X138995728Y-92526703D01*
G37*
G36*
X136455728Y-92526703D02*
G01*
X136610600Y-92590853D01*
X136749981Y-92683985D01*
X136868515Y-92802519D01*
X136961647Y-92941900D01*
X137025797Y-93096772D01*
X137058500Y-93261184D01*
X137058500Y-93428816D01*
X137025797Y-93593228D01*
X136961647Y-93748100D01*
X136868515Y-93887481D01*
X136749981Y-94006015D01*
X136610600Y-94099147D01*
X136455728Y-94163297D01*
X136291316Y-94196000D01*
X136123684Y-94196000D01*
X135959272Y-94163297D01*
X135804400Y-94099147D01*
X135665019Y-94006015D01*
X135546485Y-93887481D01*
X135453353Y-93748100D01*
X135389203Y-93593228D01*
X135356500Y-93428816D01*
X135356500Y-93261184D01*
X135389203Y-93096772D01*
X135453353Y-92941900D01*
X135546485Y-92802519D01*
X135665019Y-92683985D01*
X135804400Y-92590853D01*
X135959272Y-92526703D01*
X136123684Y-92494000D01*
X136291316Y-92494000D01*
X136455728Y-92526703D01*
X136455728Y-92526703D01*
G37*
G36*
X134518500Y-94196000D02*
G01*
X132816500Y-94196000D01*
X132816500Y-92494000D01*
X134518500Y-92494000D01*
X134518500Y-94196000D01*
X134518500Y-94196000D01*
G37*
G36*
X238506564Y-91858139D02*
G01*
X238697833Y-91937365D01*
X238697835Y-91937366D01*
X238869973Y-92052385D01*
X239016365Y-92198777D01*
X239131385Y-92370917D01*
X239210611Y-92562186D01*
X239251000Y-92765234D01*
X239251000Y-92972266D01*
X239210611Y-93175314D01*
X239175042Y-93261185D01*
X239131384Y-93366585D01*
X239016365Y-93538723D01*
X238869973Y-93685115D01*
X238697835Y-93800134D01*
X238697834Y-93800135D01*
X238697833Y-93800135D01*
X238506564Y-93879361D01*
X238303516Y-93919750D01*
X238096484Y-93919750D01*
X237893436Y-93879361D01*
X237702167Y-93800135D01*
X237702166Y-93800135D01*
X237702165Y-93800134D01*
X237530027Y-93685115D01*
X237383635Y-93538723D01*
X237268616Y-93366585D01*
X237224958Y-93261185D01*
X237189389Y-93175314D01*
X237149000Y-92972266D01*
X237149000Y-92765234D01*
X237189389Y-92562186D01*
X237268615Y-92370917D01*
X237383635Y-92198777D01*
X237530027Y-92052385D01*
X237702165Y-91937366D01*
X237702167Y-91937365D01*
X237893436Y-91858139D01*
X238096484Y-91817750D01*
X238303516Y-91817750D01*
X238506564Y-91858139D01*
X238506564Y-91858139D01*
G37*
G36*
X236006564Y-91858139D02*
G01*
X236197833Y-91937365D01*
X236197835Y-91937366D01*
X236369973Y-92052385D01*
X236516365Y-92198777D01*
X236631385Y-92370917D01*
X236710611Y-92562186D01*
X236751000Y-92765234D01*
X236751000Y-92972266D01*
X236710611Y-93175314D01*
X236675042Y-93261185D01*
X236631384Y-93366585D01*
X236516365Y-93538723D01*
X236369973Y-93685115D01*
X236197835Y-93800134D01*
X236197834Y-93800135D01*
X236197833Y-93800135D01*
X236006564Y-93879361D01*
X235803516Y-93919750D01*
X235596484Y-93919750D01*
X235393436Y-93879361D01*
X235202167Y-93800135D01*
X235202166Y-93800135D01*
X235202165Y-93800134D01*
X235030027Y-93685115D01*
X234883635Y-93538723D01*
X234768616Y-93366585D01*
X234724958Y-93261185D01*
X234689389Y-93175314D01*
X234649000Y-92972266D01*
X234649000Y-92765234D01*
X234689389Y-92562186D01*
X234768615Y-92370917D01*
X234883635Y-92198777D01*
X235030027Y-92052385D01*
X235202165Y-91937366D01*
X235202167Y-91937365D01*
X235393436Y-91858139D01*
X235596484Y-91817750D01*
X235803516Y-91817750D01*
X236006564Y-91858139D01*
X236006564Y-91858139D01*
G37*
G36*
X234251000Y-93919750D02*
G01*
X232149000Y-93919750D01*
X232149000Y-91817750D01*
X234251000Y-91817750D01*
X234251000Y-93919750D01*
X234251000Y-93919750D01*
G37*
G36*
X142520754Y-83752818D02*
G01*
X142894011Y-83907426D01*
X142894013Y-83907427D01*
X143229936Y-84131884D01*
X143515616Y-84417564D01*
X143681824Y-84666311D01*
X143740074Y-84753489D01*
X143894682Y-85126746D01*
X143973500Y-85522993D01*
X143973500Y-85927007D01*
X143894682Y-86323254D01*
X143740074Y-86696511D01*
X143740073Y-86696513D01*
X143515616Y-87032436D01*
X143229936Y-87318116D01*
X142894013Y-87542573D01*
X142894012Y-87542574D01*
X142894011Y-87542574D01*
X142520754Y-87697182D01*
X142124507Y-87776000D01*
X141720493Y-87776000D01*
X141324246Y-87697182D01*
X140950989Y-87542574D01*
X140950988Y-87542574D01*
X140950987Y-87542573D01*
X140615064Y-87318116D01*
X140329384Y-87032436D01*
X140104927Y-86696513D01*
X140104926Y-86696511D01*
X139950318Y-86323254D01*
X139871500Y-85927007D01*
X139871500Y-85522993D01*
X139950318Y-85126746D01*
X140104926Y-84753489D01*
X140163177Y-84666311D01*
X140329384Y-84417564D01*
X140615064Y-84131884D01*
X140950987Y-83907427D01*
X140950989Y-83907426D01*
X141324246Y-83752818D01*
X141720493Y-83674000D01*
X142124507Y-83674000D01*
X142520754Y-83752818D01*
X142520754Y-83752818D01*
G37*
G36*
X180779504Y-83752818D02*
G01*
X181152761Y-83907426D01*
X181152763Y-83907427D01*
X181488686Y-84131884D01*
X181774366Y-84417564D01*
X181940574Y-84666311D01*
X181998824Y-84753489D01*
X182153432Y-85126746D01*
X182232250Y-85522993D01*
X182232250Y-85927007D01*
X182153432Y-86323254D01*
X181998824Y-86696511D01*
X181998823Y-86696513D01*
X181774366Y-87032436D01*
X181488686Y-87318116D01*
X181152763Y-87542573D01*
X181152762Y-87542574D01*
X181152761Y-87542574D01*
X180779504Y-87697182D01*
X180383257Y-87776000D01*
X179979243Y-87776000D01*
X179582996Y-87697182D01*
X179209739Y-87542574D01*
X179209738Y-87542574D01*
X179209737Y-87542573D01*
X178873814Y-87318116D01*
X178588134Y-87032436D01*
X178363677Y-86696513D01*
X178363676Y-86696511D01*
X178209068Y-86323254D01*
X178130250Y-85927007D01*
X178130250Y-85522993D01*
X178209068Y-85126746D01*
X178363676Y-84753489D01*
X178421927Y-84666311D01*
X178588134Y-84417564D01*
X178873814Y-84131884D01*
X179209737Y-83907427D01*
X179209739Y-83907426D01*
X179582996Y-83752818D01*
X179979243Y-83674000D01*
X180383257Y-83674000D01*
X180779504Y-83752818D01*
X180779504Y-83752818D01*
G37*
G36*
X161729504Y-83752818D02*
G01*
X162102761Y-83907426D01*
X162102763Y-83907427D01*
X162438686Y-84131884D01*
X162724366Y-84417564D01*
X162890574Y-84666311D01*
X162948824Y-84753489D01*
X163103432Y-85126746D01*
X163182250Y-85522993D01*
X163182250Y-85927007D01*
X163103432Y-86323254D01*
X162948824Y-86696511D01*
X162948823Y-86696513D01*
X162724366Y-87032436D01*
X162438686Y-87318116D01*
X162102763Y-87542573D01*
X162102762Y-87542574D01*
X162102761Y-87542574D01*
X161729504Y-87697182D01*
X161333257Y-87776000D01*
X160929243Y-87776000D01*
X160532996Y-87697182D01*
X160159739Y-87542574D01*
X160159738Y-87542574D01*
X160159737Y-87542573D01*
X159823814Y-87318116D01*
X159538134Y-87032436D01*
X159313677Y-86696513D01*
X159313676Y-86696511D01*
X159159068Y-86323254D01*
X159080250Y-85927007D01*
X159080250Y-85522993D01*
X159159068Y-85126746D01*
X159313676Y-84753489D01*
X159371927Y-84666311D01*
X159538134Y-84417564D01*
X159823814Y-84131884D01*
X160159737Y-83907427D01*
X160159739Y-83907426D01*
X160532996Y-83752818D01*
X160929243Y-83674000D01*
X161333257Y-83674000D01*
X161729504Y-83752818D01*
X161729504Y-83752818D01*
G37*
G36*
X199829504Y-83752818D02*
G01*
X200202761Y-83907426D01*
X200202763Y-83907427D01*
X200538686Y-84131884D01*
X200824366Y-84417564D01*
X200990574Y-84666311D01*
X201048824Y-84753489D01*
X201203432Y-85126746D01*
X201282250Y-85522993D01*
X201282250Y-85927007D01*
X201203432Y-86323254D01*
X201048824Y-86696511D01*
X201048823Y-86696513D01*
X200824366Y-87032436D01*
X200538686Y-87318116D01*
X200202763Y-87542573D01*
X200202762Y-87542574D01*
X200202761Y-87542574D01*
X199829504Y-87697182D01*
X199433257Y-87776000D01*
X199029243Y-87776000D01*
X198632996Y-87697182D01*
X198259739Y-87542574D01*
X198259738Y-87542574D01*
X198259737Y-87542573D01*
X197923814Y-87318116D01*
X197638134Y-87032436D01*
X197413677Y-86696513D01*
X197413676Y-86696511D01*
X197259068Y-86323254D01*
X197180250Y-85927007D01*
X197180250Y-85522993D01*
X197259068Y-85126746D01*
X197413676Y-84753489D01*
X197471927Y-84666311D01*
X197638134Y-84417564D01*
X197923814Y-84131884D01*
X198259737Y-83907427D01*
X198259739Y-83907426D01*
X198632996Y-83752818D01*
X199029243Y-83674000D01*
X199433257Y-83674000D01*
X199829504Y-83752818D01*
X199829504Y-83752818D01*
G37*
G36*
X218879504Y-83752818D02*
G01*
X219252761Y-83907426D01*
X219252763Y-83907427D01*
X219588686Y-84131884D01*
X219874366Y-84417564D01*
X220040574Y-84666311D01*
X220098824Y-84753489D01*
X220253432Y-85126746D01*
X220332250Y-85522993D01*
X220332250Y-85927007D01*
X220253432Y-86323254D01*
X220098824Y-86696511D01*
X220098823Y-86696513D01*
X219874366Y-87032436D01*
X219588686Y-87318116D01*
X219252763Y-87542573D01*
X219252762Y-87542574D01*
X219252761Y-87542574D01*
X218879504Y-87697182D01*
X218483257Y-87776000D01*
X218079243Y-87776000D01*
X217682996Y-87697182D01*
X217309739Y-87542574D01*
X217309738Y-87542574D01*
X217309737Y-87542573D01*
X216973814Y-87318116D01*
X216688134Y-87032436D01*
X216463677Y-86696513D01*
X216463676Y-86696511D01*
X216309068Y-86323254D01*
X216230250Y-85927007D01*
X216230250Y-85522993D01*
X216309068Y-85126746D01*
X216463676Y-84753489D01*
X216521927Y-84666311D01*
X216688134Y-84417564D01*
X216973814Y-84131884D01*
X217309737Y-83907427D01*
X217309739Y-83907426D01*
X217682996Y-83752818D01*
X218079243Y-83674000D01*
X218483257Y-83674000D01*
X218879504Y-83752818D01*
X218879504Y-83752818D01*
G37*
G36*
X231151000Y-87019750D02*
G01*
X229049000Y-87019750D01*
X229049000Y-83717750D01*
X231151000Y-83717750D01*
X231151000Y-87019750D01*
X231151000Y-87019750D01*
G37*
G36*
X242351000Y-87019750D02*
G01*
X240249000Y-87019750D01*
X240249000Y-83717750D01*
X242351000Y-83717750D01*
X242351000Y-87019750D01*
X242351000Y-87019750D01*
G37*
G36*
X133564794Y-84645155D02*
G01*
X133671150Y-84666311D01*
X133871520Y-84749307D01*
X134051844Y-84869795D01*
X134205205Y-85023156D01*
X134325693Y-85203480D01*
X134408689Y-85403851D01*
X134451000Y-85616560D01*
X134451000Y-85833440D01*
X134408689Y-86046149D01*
X134325693Y-86246520D01*
X134205205Y-86426844D01*
X134051844Y-86580205D01*
X133871520Y-86700693D01*
X133771334Y-86742191D01*
X133671150Y-86783689D01*
X133564794Y-86804845D01*
X133458440Y-86826000D01*
X133241560Y-86826000D01*
X133135206Y-86804845D01*
X133028850Y-86783689D01*
X132928666Y-86742191D01*
X132828480Y-86700693D01*
X132648156Y-86580205D01*
X132494795Y-86426844D01*
X132374307Y-86246520D01*
X132291311Y-86046149D01*
X132249000Y-85833440D01*
X132249000Y-85616560D01*
X132291311Y-85403851D01*
X132374307Y-85203480D01*
X132494795Y-85023156D01*
X132648156Y-84869795D01*
X132828480Y-84749307D01*
X133028850Y-84666311D01*
X133135206Y-84645155D01*
X133241560Y-84624000D01*
X133458440Y-84624000D01*
X133564794Y-84645155D01*
X133564794Y-84645155D01*
G37*
G36*
X166324762Y-84828927D02*
G01*
X166474062Y-84858624D01*
X166638034Y-84926544D01*
X166785604Y-85025147D01*
X166911103Y-85150646D01*
X167009706Y-85298216D01*
X167077626Y-85462188D01*
X167112250Y-85636259D01*
X167112250Y-85813741D01*
X167077626Y-85987812D01*
X167009706Y-86151784D01*
X166911103Y-86299354D01*
X166785604Y-86424853D01*
X166638034Y-86523456D01*
X166474062Y-86591376D01*
X166324762Y-86621073D01*
X166299992Y-86626000D01*
X166122508Y-86626000D01*
X166097738Y-86621073D01*
X165948438Y-86591376D01*
X165784466Y-86523456D01*
X165636896Y-86424853D01*
X165511397Y-86299354D01*
X165412794Y-86151784D01*
X165344874Y-85987812D01*
X165310250Y-85813741D01*
X165310250Y-85636259D01*
X165344874Y-85462188D01*
X165412794Y-85298216D01*
X165511397Y-85150646D01*
X165636896Y-85025147D01*
X165784466Y-84926544D01*
X165948438Y-84858624D01*
X166097738Y-84828927D01*
X166122508Y-84824000D01*
X166299992Y-84824000D01*
X166324762Y-84828927D01*
X166324762Y-84828927D01*
G37*
G36*
X147116012Y-84828927D02*
G01*
X147265312Y-84858624D01*
X147429284Y-84926544D01*
X147576854Y-85025147D01*
X147702353Y-85150646D01*
X147800956Y-85298216D01*
X147868876Y-85462188D01*
X147903500Y-85636259D01*
X147903500Y-85813741D01*
X147868876Y-85987812D01*
X147800956Y-86151784D01*
X147702353Y-86299354D01*
X147576854Y-86424853D01*
X147429284Y-86523456D01*
X147265312Y-86591376D01*
X147116012Y-86621073D01*
X147091242Y-86626000D01*
X146913758Y-86626000D01*
X146888988Y-86621073D01*
X146739688Y-86591376D01*
X146575716Y-86523456D01*
X146428146Y-86424853D01*
X146302647Y-86299354D01*
X146204044Y-86151784D01*
X146136124Y-85987812D01*
X146101500Y-85813741D01*
X146101500Y-85636259D01*
X146136124Y-85462188D01*
X146204044Y-85298216D01*
X146302647Y-85150646D01*
X146428146Y-85025147D01*
X146575716Y-84926544D01*
X146739688Y-84858624D01*
X146888988Y-84828927D01*
X146913758Y-84824000D01*
X147091242Y-84824000D01*
X147116012Y-84828927D01*
X147116012Y-84828927D01*
G37*
G36*
X204424762Y-84828927D02*
G01*
X204574062Y-84858624D01*
X204738034Y-84926544D01*
X204885604Y-85025147D01*
X205011103Y-85150646D01*
X205109706Y-85298216D01*
X205177626Y-85462188D01*
X205212250Y-85636259D01*
X205212250Y-85813741D01*
X205177626Y-85987812D01*
X205109706Y-86151784D01*
X205011103Y-86299354D01*
X204885604Y-86424853D01*
X204738034Y-86523456D01*
X204574062Y-86591376D01*
X204424762Y-86621073D01*
X204399992Y-86626000D01*
X204222508Y-86626000D01*
X204197738Y-86621073D01*
X204048438Y-86591376D01*
X203884466Y-86523456D01*
X203736896Y-86424853D01*
X203611397Y-86299354D01*
X203512794Y-86151784D01*
X203444874Y-85987812D01*
X203410250Y-85813741D01*
X203410250Y-85636259D01*
X203444874Y-85462188D01*
X203512794Y-85298216D01*
X203611397Y-85150646D01*
X203736896Y-85025147D01*
X203884466Y-84926544D01*
X204048438Y-84858624D01*
X204197738Y-84828927D01*
X204222508Y-84824000D01*
X204399992Y-84824000D01*
X204424762Y-84828927D01*
X204424762Y-84828927D01*
G37*
G36*
X136956012Y-84828927D02*
G01*
X137105312Y-84858624D01*
X137269284Y-84926544D01*
X137416854Y-85025147D01*
X137542353Y-85150646D01*
X137640956Y-85298216D01*
X137708876Y-85462188D01*
X137743500Y-85636259D01*
X137743500Y-85813741D01*
X137708876Y-85987812D01*
X137640956Y-86151784D01*
X137542353Y-86299354D01*
X137416854Y-86424853D01*
X137269284Y-86523456D01*
X137105312Y-86591376D01*
X136956012Y-86621073D01*
X136931242Y-86626000D01*
X136753758Y-86626000D01*
X136728988Y-86621073D01*
X136579688Y-86591376D01*
X136415716Y-86523456D01*
X136268146Y-86424853D01*
X136142647Y-86299354D01*
X136044044Y-86151784D01*
X135976124Y-85987812D01*
X135941500Y-85813741D01*
X135941500Y-85636259D01*
X135976124Y-85462188D01*
X136044044Y-85298216D01*
X136142647Y-85150646D01*
X136268146Y-85025147D01*
X136415716Y-84926544D01*
X136579688Y-84858624D01*
X136728988Y-84828927D01*
X136753758Y-84824000D01*
X136931242Y-84824000D01*
X136956012Y-84828927D01*
X136956012Y-84828927D01*
G37*
G36*
X175214762Y-84828927D02*
G01*
X175364062Y-84858624D01*
X175528034Y-84926544D01*
X175675604Y-85025147D01*
X175801103Y-85150646D01*
X175899706Y-85298216D01*
X175967626Y-85462188D01*
X176002250Y-85636259D01*
X176002250Y-85813741D01*
X175967626Y-85987812D01*
X175899706Y-86151784D01*
X175801103Y-86299354D01*
X175675604Y-86424853D01*
X175528034Y-86523456D01*
X175364062Y-86591376D01*
X175214762Y-86621073D01*
X175189992Y-86626000D01*
X175012508Y-86626000D01*
X174987738Y-86621073D01*
X174838438Y-86591376D01*
X174674466Y-86523456D01*
X174526896Y-86424853D01*
X174401397Y-86299354D01*
X174302794Y-86151784D01*
X174234874Y-85987812D01*
X174200250Y-85813741D01*
X174200250Y-85636259D01*
X174234874Y-85462188D01*
X174302794Y-85298216D01*
X174401397Y-85150646D01*
X174526896Y-85025147D01*
X174674466Y-84926544D01*
X174838438Y-84858624D01*
X174987738Y-84828927D01*
X175012508Y-84824000D01*
X175189992Y-84824000D01*
X175214762Y-84828927D01*
X175214762Y-84828927D01*
G37*
G36*
X194264762Y-84828927D02*
G01*
X194414062Y-84858624D01*
X194578034Y-84926544D01*
X194725604Y-85025147D01*
X194851103Y-85150646D01*
X194949706Y-85298216D01*
X195017626Y-85462188D01*
X195052250Y-85636259D01*
X195052250Y-85813741D01*
X195017626Y-85987812D01*
X194949706Y-86151784D01*
X194851103Y-86299354D01*
X194725604Y-86424853D01*
X194578034Y-86523456D01*
X194414062Y-86591376D01*
X194264762Y-86621073D01*
X194239992Y-86626000D01*
X194062508Y-86626000D01*
X194037738Y-86621073D01*
X193888438Y-86591376D01*
X193724466Y-86523456D01*
X193576896Y-86424853D01*
X193451397Y-86299354D01*
X193352794Y-86151784D01*
X193284874Y-85987812D01*
X193250250Y-85813741D01*
X193250250Y-85636259D01*
X193284874Y-85462188D01*
X193352794Y-85298216D01*
X193451397Y-85150646D01*
X193576896Y-85025147D01*
X193724466Y-84926544D01*
X193888438Y-84858624D01*
X194037738Y-84828927D01*
X194062508Y-84824000D01*
X194239992Y-84824000D01*
X194264762Y-84828927D01*
X194264762Y-84828927D01*
G37*
G36*
X223474762Y-84828927D02*
G01*
X223624062Y-84858624D01*
X223788034Y-84926544D01*
X223935604Y-85025147D01*
X224061103Y-85150646D01*
X224159706Y-85298216D01*
X224227626Y-85462188D01*
X224262250Y-85636259D01*
X224262250Y-85813741D01*
X224227626Y-85987812D01*
X224159706Y-86151784D01*
X224061103Y-86299354D01*
X223935604Y-86424853D01*
X223788034Y-86523456D01*
X223624062Y-86591376D01*
X223474762Y-86621073D01*
X223449992Y-86626000D01*
X223272508Y-86626000D01*
X223247738Y-86621073D01*
X223098438Y-86591376D01*
X222934466Y-86523456D01*
X222786896Y-86424853D01*
X222661397Y-86299354D01*
X222562794Y-86151784D01*
X222494874Y-85987812D01*
X222460250Y-85813741D01*
X222460250Y-85636259D01*
X222494874Y-85462188D01*
X222562794Y-85298216D01*
X222661397Y-85150646D01*
X222786896Y-85025147D01*
X222934466Y-84926544D01*
X223098438Y-84858624D01*
X223247738Y-84828927D01*
X223272508Y-84824000D01*
X223449992Y-84824000D01*
X223474762Y-84828927D01*
X223474762Y-84828927D01*
G37*
G36*
X156164762Y-84828927D02*
G01*
X156314062Y-84858624D01*
X156478034Y-84926544D01*
X156625604Y-85025147D01*
X156751103Y-85150646D01*
X156849706Y-85298216D01*
X156917626Y-85462188D01*
X156952250Y-85636259D01*
X156952250Y-85813741D01*
X156917626Y-85987812D01*
X156849706Y-86151784D01*
X156751103Y-86299354D01*
X156625604Y-86424853D01*
X156478034Y-86523456D01*
X156314062Y-86591376D01*
X156164762Y-86621073D01*
X156139992Y-86626000D01*
X155962508Y-86626000D01*
X155937738Y-86621073D01*
X155788438Y-86591376D01*
X155624466Y-86523456D01*
X155476896Y-86424853D01*
X155351397Y-86299354D01*
X155252794Y-86151784D01*
X155184874Y-85987812D01*
X155150250Y-85813741D01*
X155150250Y-85636259D01*
X155184874Y-85462188D01*
X155252794Y-85298216D01*
X155351397Y-85150646D01*
X155476896Y-85025147D01*
X155624466Y-84926544D01*
X155788438Y-84858624D01*
X155937738Y-84828927D01*
X155962508Y-84824000D01*
X156139992Y-84824000D01*
X156164762Y-84828927D01*
X156164762Y-84828927D01*
G37*
G36*
X213314762Y-84828927D02*
G01*
X213464062Y-84858624D01*
X213628034Y-84926544D01*
X213775604Y-85025147D01*
X213901103Y-85150646D01*
X213999706Y-85298216D01*
X214067626Y-85462188D01*
X214102250Y-85636259D01*
X214102250Y-85813741D01*
X214067626Y-85987812D01*
X213999706Y-86151784D01*
X213901103Y-86299354D01*
X213775604Y-86424853D01*
X213628034Y-86523456D01*
X213464062Y-86591376D01*
X213314762Y-86621073D01*
X213289992Y-86626000D01*
X213112508Y-86626000D01*
X213087738Y-86621073D01*
X212938438Y-86591376D01*
X212774466Y-86523456D01*
X212626896Y-86424853D01*
X212501397Y-86299354D01*
X212402794Y-86151784D01*
X212334874Y-85987812D01*
X212300250Y-85813741D01*
X212300250Y-85636259D01*
X212334874Y-85462188D01*
X212402794Y-85298216D01*
X212501397Y-85150646D01*
X212626896Y-85025147D01*
X212774466Y-84926544D01*
X212938438Y-84858624D01*
X213087738Y-84828927D01*
X213112508Y-84824000D01*
X213289992Y-84824000D01*
X213314762Y-84828927D01*
X213314762Y-84828927D01*
G37*
G36*
X185374762Y-84828927D02*
G01*
X185524062Y-84858624D01*
X185688034Y-84926544D01*
X185835604Y-85025147D01*
X185961103Y-85150646D01*
X186059706Y-85298216D01*
X186127626Y-85462188D01*
X186162250Y-85636259D01*
X186162250Y-85813741D01*
X186127626Y-85987812D01*
X186059706Y-86151784D01*
X185961103Y-86299354D01*
X185835604Y-86424853D01*
X185688034Y-86523456D01*
X185524062Y-86591376D01*
X185374762Y-86621073D01*
X185349992Y-86626000D01*
X185172508Y-86626000D01*
X185147738Y-86621073D01*
X184998438Y-86591376D01*
X184834466Y-86523456D01*
X184686896Y-86424853D01*
X184561397Y-86299354D01*
X184462794Y-86151784D01*
X184394874Y-85987812D01*
X184360250Y-85813741D01*
X184360250Y-85636259D01*
X184394874Y-85462188D01*
X184462794Y-85298216D01*
X184561397Y-85150646D01*
X184686896Y-85025147D01*
X184834466Y-84926544D01*
X184998438Y-84858624D01*
X185147738Y-84828927D01*
X185172508Y-84824000D01*
X185349992Y-84824000D01*
X185374762Y-84828927D01*
X185374762Y-84828927D01*
G37*
G36*
X176595799Y-82056116D02*
G01*
X176706984Y-82078232D01*
X176916453Y-82164997D01*
X177104970Y-82290960D01*
X177265290Y-82451280D01*
X177391253Y-82639797D01*
X177478018Y-82849266D01*
X177522250Y-83071636D01*
X177522250Y-83298364D01*
X177478018Y-83520734D01*
X177391253Y-83730203D01*
X177265290Y-83918720D01*
X177104970Y-84079040D01*
X176916453Y-84205003D01*
X176706984Y-84291768D01*
X176595799Y-84313884D01*
X176484615Y-84336000D01*
X176257885Y-84336000D01*
X176146701Y-84313884D01*
X176035516Y-84291768D01*
X175826047Y-84205003D01*
X175637530Y-84079040D01*
X175477210Y-83918720D01*
X175351247Y-83730203D01*
X175264482Y-83520734D01*
X175220250Y-83298364D01*
X175220250Y-83071636D01*
X175264482Y-82849266D01*
X175351247Y-82639797D01*
X175477210Y-82451280D01*
X175637530Y-82290960D01*
X175826047Y-82164997D01*
X176035516Y-82078232D01*
X176146701Y-82056116D01*
X176257885Y-82034000D01*
X176484615Y-82034000D01*
X176595799Y-82056116D01*
X176595799Y-82056116D01*
G37*
G36*
X214695799Y-82056116D02*
G01*
X214806984Y-82078232D01*
X215016453Y-82164997D01*
X215204970Y-82290960D01*
X215365290Y-82451280D01*
X215491253Y-82639797D01*
X215578018Y-82849266D01*
X215622250Y-83071636D01*
X215622250Y-83298364D01*
X215578018Y-83520734D01*
X215491253Y-83730203D01*
X215365290Y-83918720D01*
X215204970Y-84079040D01*
X215016453Y-84205003D01*
X214806984Y-84291768D01*
X214695799Y-84313884D01*
X214584615Y-84336000D01*
X214357885Y-84336000D01*
X214246701Y-84313884D01*
X214135516Y-84291768D01*
X213926047Y-84205003D01*
X213737530Y-84079040D01*
X213577210Y-83918720D01*
X213451247Y-83730203D01*
X213364482Y-83520734D01*
X213320250Y-83298364D01*
X213320250Y-83071636D01*
X213364482Y-82849266D01*
X213451247Y-82639797D01*
X213577210Y-82451280D01*
X213737530Y-82290960D01*
X213926047Y-82164997D01*
X214135516Y-82078232D01*
X214246701Y-82056116D01*
X214357885Y-82034000D01*
X214584615Y-82034000D01*
X214695799Y-82056116D01*
X214695799Y-82056116D01*
G37*
G36*
X195645799Y-82056116D02*
G01*
X195756984Y-82078232D01*
X195966453Y-82164997D01*
X196154970Y-82290960D01*
X196315290Y-82451280D01*
X196441253Y-82639797D01*
X196528018Y-82849266D01*
X196572250Y-83071636D01*
X196572250Y-83298364D01*
X196528018Y-83520734D01*
X196441253Y-83730203D01*
X196315290Y-83918720D01*
X196154970Y-84079040D01*
X195966453Y-84205003D01*
X195756984Y-84291768D01*
X195645799Y-84313884D01*
X195534615Y-84336000D01*
X195307885Y-84336000D01*
X195196701Y-84313884D01*
X195085516Y-84291768D01*
X194876047Y-84205003D01*
X194687530Y-84079040D01*
X194527210Y-83918720D01*
X194401247Y-83730203D01*
X194314482Y-83520734D01*
X194270250Y-83298364D01*
X194270250Y-83071636D01*
X194314482Y-82849266D01*
X194401247Y-82639797D01*
X194527210Y-82451280D01*
X194687530Y-82290960D01*
X194876047Y-82164997D01*
X195085516Y-82078232D01*
X195196701Y-82056116D01*
X195307885Y-82034000D01*
X195534615Y-82034000D01*
X195645799Y-82056116D01*
X195645799Y-82056116D01*
G37*
G36*
X138337049Y-82056116D02*
G01*
X138448234Y-82078232D01*
X138657703Y-82164997D01*
X138846220Y-82290960D01*
X139006540Y-82451280D01*
X139132503Y-82639797D01*
X139219268Y-82849266D01*
X139263500Y-83071636D01*
X139263500Y-83298364D01*
X139219268Y-83520734D01*
X139132503Y-83730203D01*
X139006540Y-83918720D01*
X138846220Y-84079040D01*
X138657703Y-84205003D01*
X138448234Y-84291768D01*
X138337049Y-84313884D01*
X138225865Y-84336000D01*
X137999135Y-84336000D01*
X137887951Y-84313884D01*
X137776766Y-84291768D01*
X137567297Y-84205003D01*
X137378780Y-84079040D01*
X137218460Y-83918720D01*
X137092497Y-83730203D01*
X137005732Y-83520734D01*
X136961500Y-83298364D01*
X136961500Y-83071636D01*
X137005732Y-82849266D01*
X137092497Y-82639797D01*
X137218460Y-82451280D01*
X137378780Y-82290960D01*
X137567297Y-82164997D01*
X137776766Y-82078232D01*
X137887951Y-82056116D01*
X137999135Y-82034000D01*
X138225865Y-82034000D01*
X138337049Y-82056116D01*
X138337049Y-82056116D01*
G37*
G36*
X157545799Y-82056116D02*
G01*
X157656984Y-82078232D01*
X157866453Y-82164997D01*
X158054970Y-82290960D01*
X158215290Y-82451280D01*
X158341253Y-82639797D01*
X158428018Y-82849266D01*
X158472250Y-83071636D01*
X158472250Y-83298364D01*
X158428018Y-83520734D01*
X158341253Y-83730203D01*
X158215290Y-83918720D01*
X158054970Y-84079040D01*
X157866453Y-84205003D01*
X157656984Y-84291768D01*
X157545799Y-84313884D01*
X157434615Y-84336000D01*
X157207885Y-84336000D01*
X157096701Y-84313884D01*
X156985516Y-84291768D01*
X156776047Y-84205003D01*
X156587530Y-84079040D01*
X156427210Y-83918720D01*
X156301247Y-83730203D01*
X156214482Y-83520734D01*
X156170250Y-83298364D01*
X156170250Y-83071636D01*
X156214482Y-82849266D01*
X156301247Y-82639797D01*
X156427210Y-82451280D01*
X156587530Y-82290960D01*
X156776047Y-82164997D01*
X156985516Y-82078232D01*
X157096701Y-82056116D01*
X157207885Y-82034000D01*
X157434615Y-82034000D01*
X157545799Y-82056116D01*
X157545799Y-82056116D01*
G37*
G36*
X144687049Y-79516116D02*
G01*
X144798234Y-79538232D01*
X145007703Y-79624997D01*
X145196220Y-79750960D01*
X145356540Y-79911280D01*
X145482503Y-80099797D01*
X145569268Y-80309266D01*
X145613500Y-80531636D01*
X145613500Y-80758364D01*
X145569268Y-80980734D01*
X145482503Y-81190203D01*
X145356540Y-81378720D01*
X145196220Y-81539040D01*
X145007703Y-81665003D01*
X144798234Y-81751768D01*
X144687049Y-81773884D01*
X144575865Y-81796000D01*
X144349135Y-81796000D01*
X144237951Y-81773884D01*
X144126766Y-81751768D01*
X143917297Y-81665003D01*
X143728780Y-81539040D01*
X143568460Y-81378720D01*
X143442497Y-81190203D01*
X143355732Y-80980734D01*
X143311500Y-80758364D01*
X143311500Y-80531636D01*
X143355732Y-80309266D01*
X143442497Y-80099797D01*
X143568460Y-79911280D01*
X143728780Y-79750960D01*
X143917297Y-79624997D01*
X144126766Y-79538232D01*
X144237951Y-79516116D01*
X144349135Y-79494000D01*
X144575865Y-79494000D01*
X144687049Y-79516116D01*
X144687049Y-79516116D01*
G37*
G36*
X163895799Y-79516116D02*
G01*
X164006984Y-79538232D01*
X164216453Y-79624997D01*
X164404970Y-79750960D01*
X164565290Y-79911280D01*
X164691253Y-80099797D01*
X164778018Y-80309266D01*
X164822250Y-80531636D01*
X164822250Y-80758364D01*
X164778018Y-80980734D01*
X164691253Y-81190203D01*
X164565290Y-81378720D01*
X164404970Y-81539040D01*
X164216453Y-81665003D01*
X164006984Y-81751768D01*
X163895799Y-81773884D01*
X163784615Y-81796000D01*
X163557885Y-81796000D01*
X163446701Y-81773884D01*
X163335516Y-81751768D01*
X163126047Y-81665003D01*
X162937530Y-81539040D01*
X162777210Y-81378720D01*
X162651247Y-81190203D01*
X162564482Y-80980734D01*
X162520250Y-80758364D01*
X162520250Y-80531636D01*
X162564482Y-80309266D01*
X162651247Y-80099797D01*
X162777210Y-79911280D01*
X162937530Y-79750960D01*
X163126047Y-79624997D01*
X163335516Y-79538232D01*
X163446701Y-79516116D01*
X163557885Y-79494000D01*
X163784615Y-79494000D01*
X163895799Y-79516116D01*
X163895799Y-79516116D01*
G37*
G36*
X201995799Y-79516116D02*
G01*
X202106984Y-79538232D01*
X202316453Y-79624997D01*
X202504970Y-79750960D01*
X202665290Y-79911280D01*
X202791253Y-80099797D01*
X202878018Y-80309266D01*
X202922250Y-80531636D01*
X202922250Y-80758364D01*
X202878018Y-80980734D01*
X202791253Y-81190203D01*
X202665290Y-81378720D01*
X202504970Y-81539040D01*
X202316453Y-81665003D01*
X202106984Y-81751768D01*
X201995799Y-81773884D01*
X201884615Y-81796000D01*
X201657885Y-81796000D01*
X201546701Y-81773884D01*
X201435516Y-81751768D01*
X201226047Y-81665003D01*
X201037530Y-81539040D01*
X200877210Y-81378720D01*
X200751247Y-81190203D01*
X200664482Y-80980734D01*
X200620250Y-80758364D01*
X200620250Y-80531636D01*
X200664482Y-80309266D01*
X200751247Y-80099797D01*
X200877210Y-79911280D01*
X201037530Y-79750960D01*
X201226047Y-79624997D01*
X201435516Y-79538232D01*
X201546701Y-79516116D01*
X201657885Y-79494000D01*
X201884615Y-79494000D01*
X201995799Y-79516116D01*
X201995799Y-79516116D01*
G37*
G36*
X221045799Y-79516116D02*
G01*
X221156984Y-79538232D01*
X221366453Y-79624997D01*
X221554970Y-79750960D01*
X221715290Y-79911280D01*
X221841253Y-80099797D01*
X221928018Y-80309266D01*
X221972250Y-80531636D01*
X221972250Y-80758364D01*
X221928018Y-80980734D01*
X221841253Y-81190203D01*
X221715290Y-81378720D01*
X221554970Y-81539040D01*
X221366453Y-81665003D01*
X221156984Y-81751768D01*
X221045799Y-81773884D01*
X220934615Y-81796000D01*
X220707885Y-81796000D01*
X220596701Y-81773884D01*
X220485516Y-81751768D01*
X220276047Y-81665003D01*
X220087530Y-81539040D01*
X219927210Y-81378720D01*
X219801247Y-81190203D01*
X219714482Y-80980734D01*
X219670250Y-80758364D01*
X219670250Y-80531636D01*
X219714482Y-80309266D01*
X219801247Y-80099797D01*
X219927210Y-79911280D01*
X220087530Y-79750960D01*
X220276047Y-79624997D01*
X220485516Y-79538232D01*
X220596701Y-79516116D01*
X220707885Y-79494000D01*
X220934615Y-79494000D01*
X221045799Y-79516116D01*
X221045799Y-79516116D01*
G37*
G36*
X182945799Y-79516116D02*
G01*
X183056984Y-79538232D01*
X183266453Y-79624997D01*
X183454970Y-79750960D01*
X183615290Y-79911280D01*
X183741253Y-80099797D01*
X183828018Y-80309266D01*
X183872250Y-80531636D01*
X183872250Y-80758364D01*
X183828018Y-80980734D01*
X183741253Y-81190203D01*
X183615290Y-81378720D01*
X183454970Y-81539040D01*
X183266453Y-81665003D01*
X183056984Y-81751768D01*
X182945799Y-81773884D01*
X182834615Y-81796000D01*
X182607885Y-81796000D01*
X182496701Y-81773884D01*
X182385516Y-81751768D01*
X182176047Y-81665003D01*
X181987530Y-81539040D01*
X181827210Y-81378720D01*
X181701247Y-81190203D01*
X181614482Y-80980734D01*
X181570250Y-80758364D01*
X181570250Y-80531636D01*
X181614482Y-80309266D01*
X181701247Y-80099797D01*
X181827210Y-79911280D01*
X181987530Y-79750960D01*
X182176047Y-79624997D01*
X182385516Y-79538232D01*
X182496701Y-79516116D01*
X182607885Y-79494000D01*
X182834615Y-79494000D01*
X182945799Y-79516116D01*
X182945799Y-79516116D01*
G37*
G36*
X238506564Y-77358139D02*
G01*
X238697833Y-77437365D01*
X238697835Y-77437366D01*
X238707741Y-77443985D01*
X238869973Y-77552385D01*
X239016365Y-77698777D01*
X239131385Y-77870917D01*
X239210611Y-78062186D01*
X239251000Y-78265234D01*
X239251000Y-78472266D01*
X239210611Y-78675314D01*
X239131385Y-78866583D01*
X239131384Y-78866585D01*
X239016365Y-79038723D01*
X238869973Y-79185115D01*
X238697835Y-79300134D01*
X238697834Y-79300135D01*
X238697833Y-79300135D01*
X238506564Y-79379361D01*
X238303516Y-79419750D01*
X238096484Y-79419750D01*
X237893436Y-79379361D01*
X237702167Y-79300135D01*
X237702166Y-79300135D01*
X237702165Y-79300134D01*
X237530027Y-79185115D01*
X237383635Y-79038723D01*
X237268616Y-78866585D01*
X237268615Y-78866583D01*
X237189389Y-78675314D01*
X237149000Y-78472266D01*
X237149000Y-78265234D01*
X237189389Y-78062186D01*
X237268615Y-77870917D01*
X237383635Y-77698777D01*
X237530027Y-77552385D01*
X237692259Y-77443985D01*
X237702165Y-77437366D01*
X237702167Y-77437365D01*
X237893436Y-77358139D01*
X238096484Y-77317750D01*
X238303516Y-77317750D01*
X238506564Y-77358139D01*
X238506564Y-77358139D01*
G37*
G36*
X233506564Y-77358139D02*
G01*
X233697833Y-77437365D01*
X233697835Y-77437366D01*
X233707741Y-77443985D01*
X233869973Y-77552385D01*
X234016365Y-77698777D01*
X234131385Y-77870917D01*
X234210611Y-78062186D01*
X234251000Y-78265234D01*
X234251000Y-78472266D01*
X234210611Y-78675314D01*
X234131385Y-78866583D01*
X234131384Y-78866585D01*
X234016365Y-79038723D01*
X233869973Y-79185115D01*
X233697835Y-79300134D01*
X233697834Y-79300135D01*
X233697833Y-79300135D01*
X233506564Y-79379361D01*
X233303516Y-79419750D01*
X233096484Y-79419750D01*
X232893436Y-79379361D01*
X232702167Y-79300135D01*
X232702166Y-79300135D01*
X232702165Y-79300134D01*
X232530027Y-79185115D01*
X232383635Y-79038723D01*
X232268616Y-78866585D01*
X232268615Y-78866583D01*
X232189389Y-78675314D01*
X232149000Y-78472266D01*
X232149000Y-78265234D01*
X232189389Y-78062186D01*
X232268615Y-77870917D01*
X232383635Y-77698777D01*
X232530027Y-77552385D01*
X232692259Y-77443985D01*
X232702165Y-77437366D01*
X232702167Y-77437365D01*
X232893436Y-77358139D01*
X233096484Y-77317750D01*
X233303516Y-77317750D01*
X233506564Y-77358139D01*
X233506564Y-77358139D01*
G37*
G36*
X149155728Y-77286703D02*
G01*
X149310600Y-77350853D01*
X149449981Y-77443985D01*
X149568515Y-77562519D01*
X149661647Y-77701900D01*
X149725797Y-77856772D01*
X149758500Y-78021184D01*
X149758500Y-78188816D01*
X149725797Y-78353228D01*
X149661647Y-78508100D01*
X149568515Y-78647481D01*
X149449981Y-78766015D01*
X149310600Y-78859147D01*
X149155728Y-78923297D01*
X148991316Y-78956000D01*
X148823684Y-78956000D01*
X148659272Y-78923297D01*
X148504400Y-78859147D01*
X148365019Y-78766015D01*
X148246485Y-78647481D01*
X148153353Y-78508100D01*
X148089203Y-78353228D01*
X148056500Y-78188816D01*
X148056500Y-78021184D01*
X148089203Y-77856772D01*
X148153353Y-77701900D01*
X148246485Y-77562519D01*
X148365019Y-77443985D01*
X148504400Y-77350853D01*
X148659272Y-77286703D01*
X148823684Y-77254000D01*
X148991316Y-77254000D01*
X149155728Y-77286703D01*
X149155728Y-77286703D01*
G37*
G36*
X159315728Y-77286703D02*
G01*
X159470600Y-77350853D01*
X159609981Y-77443985D01*
X159728515Y-77562519D01*
X159821647Y-77701900D01*
X159885797Y-77856772D01*
X159918500Y-78021184D01*
X159918500Y-78188816D01*
X159885797Y-78353228D01*
X159821647Y-78508100D01*
X159728515Y-78647481D01*
X159609981Y-78766015D01*
X159470600Y-78859147D01*
X159315728Y-78923297D01*
X159151316Y-78956000D01*
X158983684Y-78956000D01*
X158819272Y-78923297D01*
X158664400Y-78859147D01*
X158525019Y-78766015D01*
X158406485Y-78647481D01*
X158313353Y-78508100D01*
X158249203Y-78353228D01*
X158216500Y-78188816D01*
X158216500Y-78021184D01*
X158249203Y-77856772D01*
X158313353Y-77701900D01*
X158406485Y-77562519D01*
X158525019Y-77443985D01*
X158664400Y-77350853D01*
X158819272Y-77286703D01*
X158983684Y-77254000D01*
X159151316Y-77254000D01*
X159315728Y-77286703D01*
X159315728Y-77286703D01*
G37*
G36*
X154235728Y-77286703D02*
G01*
X154390600Y-77350853D01*
X154529981Y-77443985D01*
X154648515Y-77562519D01*
X154741647Y-77701900D01*
X154805797Y-77856772D01*
X154838500Y-78021184D01*
X154838500Y-78188816D01*
X154805797Y-78353228D01*
X154741647Y-78508100D01*
X154648515Y-78647481D01*
X154529981Y-78766015D01*
X154390600Y-78859147D01*
X154235728Y-78923297D01*
X154071316Y-78956000D01*
X153903684Y-78956000D01*
X153739272Y-78923297D01*
X153584400Y-78859147D01*
X153445019Y-78766015D01*
X153326485Y-78647481D01*
X153233353Y-78508100D01*
X153169203Y-78353228D01*
X153136500Y-78188816D01*
X153136500Y-78021184D01*
X153169203Y-77856772D01*
X153233353Y-77701900D01*
X153326485Y-77562519D01*
X153445019Y-77443985D01*
X153584400Y-77350853D01*
X153739272Y-77286703D01*
X153903684Y-77254000D01*
X154071316Y-77254000D01*
X154235728Y-77286703D01*
X154235728Y-77286703D01*
G37*
G36*
X156775728Y-77286703D02*
G01*
X156930600Y-77350853D01*
X157069981Y-77443985D01*
X157188515Y-77562519D01*
X157281647Y-77701900D01*
X157345797Y-77856772D01*
X157378500Y-78021184D01*
X157378500Y-78188816D01*
X157345797Y-78353228D01*
X157281647Y-78508100D01*
X157188515Y-78647481D01*
X157069981Y-78766015D01*
X156930600Y-78859147D01*
X156775728Y-78923297D01*
X156611316Y-78956000D01*
X156443684Y-78956000D01*
X156279272Y-78923297D01*
X156124400Y-78859147D01*
X155985019Y-78766015D01*
X155866485Y-78647481D01*
X155773353Y-78508100D01*
X155709203Y-78353228D01*
X155676500Y-78188816D01*
X155676500Y-78021184D01*
X155709203Y-77856772D01*
X155773353Y-77701900D01*
X155866485Y-77562519D01*
X155985019Y-77443985D01*
X156124400Y-77350853D01*
X156279272Y-77286703D01*
X156443684Y-77254000D01*
X156611316Y-77254000D01*
X156775728Y-77286703D01*
X156775728Y-77286703D01*
G37*
G36*
X161855728Y-77286703D02*
G01*
X162010600Y-77350853D01*
X162149981Y-77443985D01*
X162268515Y-77562519D01*
X162361647Y-77701900D01*
X162425797Y-77856772D01*
X162458500Y-78021184D01*
X162458500Y-78188816D01*
X162425797Y-78353228D01*
X162361647Y-78508100D01*
X162268515Y-78647481D01*
X162149981Y-78766015D01*
X162010600Y-78859147D01*
X161855728Y-78923297D01*
X161691316Y-78956000D01*
X161523684Y-78956000D01*
X161359272Y-78923297D01*
X161204400Y-78859147D01*
X161065019Y-78766015D01*
X160946485Y-78647481D01*
X160853353Y-78508100D01*
X160789203Y-78353228D01*
X160756500Y-78188816D01*
X160756500Y-78021184D01*
X160789203Y-77856772D01*
X160853353Y-77701900D01*
X160946485Y-77562519D01*
X161065019Y-77443985D01*
X161204400Y-77350853D01*
X161359272Y-77286703D01*
X161523684Y-77254000D01*
X161691316Y-77254000D01*
X161855728Y-77286703D01*
X161855728Y-77286703D01*
G37*
G36*
X151695728Y-77286703D02*
G01*
X151850600Y-77350853D01*
X151989981Y-77443985D01*
X152108515Y-77562519D01*
X152201647Y-77701900D01*
X152265797Y-77856772D01*
X152298500Y-78021184D01*
X152298500Y-78188816D01*
X152265797Y-78353228D01*
X152201647Y-78508100D01*
X152108515Y-78647481D01*
X151989981Y-78766015D01*
X151850600Y-78859147D01*
X151695728Y-78923297D01*
X151531316Y-78956000D01*
X151363684Y-78956000D01*
X151199272Y-78923297D01*
X151044400Y-78859147D01*
X150905019Y-78766015D01*
X150786485Y-78647481D01*
X150693353Y-78508100D01*
X150629203Y-78353228D01*
X150596500Y-78188816D01*
X150596500Y-78021184D01*
X150629203Y-77856772D01*
X150693353Y-77701900D01*
X150786485Y-77562519D01*
X150905019Y-77443985D01*
X151044400Y-77350853D01*
X151199272Y-77286703D01*
X151363684Y-77254000D01*
X151531316Y-77254000D01*
X151695728Y-77286703D01*
X151695728Y-77286703D01*
G37*
G36*
X146615728Y-77286703D02*
G01*
X146770600Y-77350853D01*
X146909981Y-77443985D01*
X147028515Y-77562519D01*
X147121647Y-77701900D01*
X147185797Y-77856772D01*
X147218500Y-78021184D01*
X147218500Y-78188816D01*
X147185797Y-78353228D01*
X147121647Y-78508100D01*
X147028515Y-78647481D01*
X146909981Y-78766015D01*
X146770600Y-78859147D01*
X146615728Y-78923297D01*
X146451316Y-78956000D01*
X146283684Y-78956000D01*
X146119272Y-78923297D01*
X145964400Y-78859147D01*
X145825019Y-78766015D01*
X145706485Y-78647481D01*
X145613353Y-78508100D01*
X145549203Y-78353228D01*
X145516500Y-78188816D01*
X145516500Y-78021184D01*
X145549203Y-77856772D01*
X145613353Y-77701900D01*
X145706485Y-77562519D01*
X145825019Y-77443985D01*
X145964400Y-77350853D01*
X146119272Y-77286703D01*
X146283684Y-77254000D01*
X146451316Y-77254000D01*
X146615728Y-77286703D01*
X146615728Y-77286703D01*
G37*
G36*
X144075728Y-77286703D02*
G01*
X144230600Y-77350853D01*
X144369981Y-77443985D01*
X144488515Y-77562519D01*
X144581647Y-77701900D01*
X144645797Y-77856772D01*
X144678500Y-78021184D01*
X144678500Y-78188816D01*
X144645797Y-78353228D01*
X144581647Y-78508100D01*
X144488515Y-78647481D01*
X144369981Y-78766015D01*
X144230600Y-78859147D01*
X144075728Y-78923297D01*
X143911316Y-78956000D01*
X143743684Y-78956000D01*
X143579272Y-78923297D01*
X143424400Y-78859147D01*
X143285019Y-78766015D01*
X143166485Y-78647481D01*
X143073353Y-78508100D01*
X143009203Y-78353228D01*
X142976500Y-78188816D01*
X142976500Y-78021184D01*
X143009203Y-77856772D01*
X143073353Y-77701900D01*
X143166485Y-77562519D01*
X143285019Y-77443985D01*
X143424400Y-77350853D01*
X143579272Y-77286703D01*
X143743684Y-77254000D01*
X143911316Y-77254000D01*
X144075728Y-77286703D01*
X144075728Y-77286703D01*
G37*
G36*
X141535728Y-77286703D02*
G01*
X141690600Y-77350853D01*
X141829981Y-77443985D01*
X141948515Y-77562519D01*
X142041647Y-77701900D01*
X142105797Y-77856772D01*
X142138500Y-78021184D01*
X142138500Y-78188816D01*
X142105797Y-78353228D01*
X142041647Y-78508100D01*
X141948515Y-78647481D01*
X141829981Y-78766015D01*
X141690600Y-78859147D01*
X141535728Y-78923297D01*
X141371316Y-78956000D01*
X141203684Y-78956000D01*
X141039272Y-78923297D01*
X140884400Y-78859147D01*
X140745019Y-78766015D01*
X140626485Y-78647481D01*
X140533353Y-78508100D01*
X140469203Y-78353228D01*
X140436500Y-78188816D01*
X140436500Y-78021184D01*
X140469203Y-77856772D01*
X140533353Y-77701900D01*
X140626485Y-77562519D01*
X140745019Y-77443985D01*
X140884400Y-77350853D01*
X141039272Y-77286703D01*
X141203684Y-77254000D01*
X141371316Y-77254000D01*
X141535728Y-77286703D01*
X141535728Y-77286703D01*
G37*
G36*
X138995728Y-77286703D02*
G01*
X139150600Y-77350853D01*
X139289981Y-77443985D01*
X139408515Y-77562519D01*
X139501647Y-77701900D01*
X139565797Y-77856772D01*
X139598500Y-78021184D01*
X139598500Y-78188816D01*
X139565797Y-78353228D01*
X139501647Y-78508100D01*
X139408515Y-78647481D01*
X139289981Y-78766015D01*
X139150600Y-78859147D01*
X138995728Y-78923297D01*
X138831316Y-78956000D01*
X138663684Y-78956000D01*
X138499272Y-78923297D01*
X138344400Y-78859147D01*
X138205019Y-78766015D01*
X138086485Y-78647481D01*
X137993353Y-78508100D01*
X137929203Y-78353228D01*
X137896500Y-78188816D01*
X137896500Y-78021184D01*
X137929203Y-77856772D01*
X137993353Y-77701900D01*
X138086485Y-77562519D01*
X138205019Y-77443985D01*
X138344400Y-77350853D01*
X138499272Y-77286703D01*
X138663684Y-77254000D01*
X138831316Y-77254000D01*
X138995728Y-77286703D01*
X138995728Y-77286703D01*
G37*
G36*
X136455728Y-77286703D02*
G01*
X136610600Y-77350853D01*
X136749981Y-77443985D01*
X136868515Y-77562519D01*
X136961647Y-77701900D01*
X137025797Y-77856772D01*
X137058500Y-78021184D01*
X137058500Y-78188816D01*
X137025797Y-78353228D01*
X136961647Y-78508100D01*
X136868515Y-78647481D01*
X136749981Y-78766015D01*
X136610600Y-78859147D01*
X136455728Y-78923297D01*
X136291316Y-78956000D01*
X136123684Y-78956000D01*
X135959272Y-78923297D01*
X135804400Y-78859147D01*
X135665019Y-78766015D01*
X135546485Y-78647481D01*
X135453353Y-78508100D01*
X135389203Y-78353228D01*
X135356500Y-78188816D01*
X135356500Y-78021184D01*
X135389203Y-77856772D01*
X135453353Y-77701900D01*
X135546485Y-77562519D01*
X135665019Y-77443985D01*
X135804400Y-77350853D01*
X135959272Y-77286703D01*
X136123684Y-77254000D01*
X136291316Y-77254000D01*
X136455728Y-77286703D01*
X136455728Y-77286703D01*
G37*
G36*
X133915728Y-77286703D02*
G01*
X134070600Y-77350853D01*
X134209981Y-77443985D01*
X134328515Y-77562519D01*
X134421647Y-77701900D01*
X134485797Y-77856772D01*
X134518500Y-78021184D01*
X134518500Y-78188816D01*
X134485797Y-78353228D01*
X134421647Y-78508100D01*
X134328515Y-78647481D01*
X134209981Y-78766015D01*
X134070600Y-78859147D01*
X133915728Y-78923297D01*
X133751316Y-78956000D01*
X133583684Y-78956000D01*
X133419272Y-78923297D01*
X133264400Y-78859147D01*
X133125019Y-78766015D01*
X133006485Y-78647481D01*
X132913353Y-78508100D01*
X132849203Y-78353228D01*
X132816500Y-78188816D01*
X132816500Y-78021184D01*
X132849203Y-77856772D01*
X132913353Y-77701900D01*
X133006485Y-77562519D01*
X133125019Y-77443985D01*
X133264400Y-77350853D01*
X133419272Y-77286703D01*
X133583684Y-77254000D01*
X133751316Y-77254000D01*
X133915728Y-77286703D01*
X133915728Y-77286703D01*
G37*
G36*
X241514794Y-74326405D02*
G01*
X241621150Y-74347561D01*
X241821520Y-74430557D01*
X242001844Y-74551045D01*
X242155205Y-74704406D01*
X242275693Y-74884730D01*
X242358689Y-75085101D01*
X242401000Y-75297810D01*
X242401000Y-75514690D01*
X242358689Y-75727399D01*
X242275693Y-75927770D01*
X242155205Y-76108094D01*
X242001844Y-76261455D01*
X241821520Y-76381943D01*
X241621150Y-76464939D01*
X241514794Y-76486095D01*
X241408440Y-76507250D01*
X241191560Y-76507250D01*
X241085206Y-76486095D01*
X240978850Y-76464939D01*
X240778480Y-76381943D01*
X240598156Y-76261455D01*
X240444795Y-76108094D01*
X240324307Y-75927770D01*
X240241311Y-75727399D01*
X240199000Y-75514690D01*
X240199000Y-75297810D01*
X240241311Y-75085101D01*
X240324307Y-74884730D01*
X240444795Y-74704406D01*
X240598156Y-74551045D01*
X240778480Y-74430557D01*
X240978850Y-74347561D01*
X241085206Y-74326405D01*
X241191560Y-74305250D01*
X241408440Y-74305250D01*
X241514794Y-74326405D01*
X241514794Y-74326405D01*
G37*
G36*
X214527294Y-74326405D02*
G01*
X214633650Y-74347561D01*
X214834020Y-74430557D01*
X215014344Y-74551045D01*
X215167705Y-74704406D01*
X215288193Y-74884730D01*
X215371189Y-75085101D01*
X215413500Y-75297810D01*
X215413500Y-75514690D01*
X215371189Y-75727399D01*
X215288193Y-75927770D01*
X215167705Y-76108094D01*
X215014344Y-76261455D01*
X214834020Y-76381943D01*
X214633650Y-76464939D01*
X214527294Y-76486095D01*
X214420940Y-76507250D01*
X214204060Y-76507250D01*
X214097706Y-76486095D01*
X213991350Y-76464939D01*
X213790980Y-76381943D01*
X213610656Y-76261455D01*
X213457295Y-76108094D01*
X213336807Y-75927770D01*
X213253811Y-75727399D01*
X213211500Y-75514690D01*
X213211500Y-75297810D01*
X213253811Y-75085101D01*
X213336807Y-74884730D01*
X213457295Y-74704406D01*
X213610656Y-74551045D01*
X213790980Y-74430557D01*
X213991350Y-74347561D01*
X214097706Y-74326405D01*
X214204060Y-74305250D01*
X214420940Y-74305250D01*
X214527294Y-74326405D01*
X214527294Y-74326405D01*
G37*
G36*
X170077294Y-74326405D02*
G01*
X170183650Y-74347561D01*
X170384020Y-74430557D01*
X170564344Y-74551045D01*
X170717705Y-74704406D01*
X170838193Y-74884730D01*
X170921189Y-75085101D01*
X170963500Y-75297810D01*
X170963500Y-75514690D01*
X170921189Y-75727399D01*
X170838193Y-75927770D01*
X170717705Y-76108094D01*
X170564344Y-76261455D01*
X170384020Y-76381943D01*
X170183650Y-76464939D01*
X170077294Y-76486095D01*
X169970940Y-76507250D01*
X169754060Y-76507250D01*
X169647706Y-76486095D01*
X169541350Y-76464939D01*
X169340980Y-76381943D01*
X169160656Y-76261455D01*
X169007295Y-76108094D01*
X168886807Y-75927770D01*
X168803811Y-75727399D01*
X168761500Y-75514690D01*
X168761500Y-75297810D01*
X168803811Y-75085101D01*
X168886807Y-74884730D01*
X169007295Y-74704406D01*
X169160656Y-74551045D01*
X169340980Y-74430557D01*
X169541350Y-74347561D01*
X169647706Y-74326405D01*
X169754060Y-74305250D01*
X169970940Y-74305250D01*
X170077294Y-74326405D01*
X170077294Y-74326405D01*
G37*
G36*
X128008544Y-74326405D02*
G01*
X128114900Y-74347561D01*
X128315270Y-74430557D01*
X128495594Y-74551045D01*
X128648955Y-74704406D01*
X128769443Y-74884730D01*
X128852439Y-75085101D01*
X128894750Y-75297810D01*
X128894750Y-75514690D01*
X128852439Y-75727399D01*
X128769443Y-75927770D01*
X128648955Y-76108094D01*
X128495594Y-76261455D01*
X128315270Y-76381943D01*
X128114900Y-76464939D01*
X128008544Y-76486095D01*
X127902190Y-76507250D01*
X127685310Y-76507250D01*
X127578956Y-76486095D01*
X127472600Y-76464939D01*
X127272230Y-76381943D01*
X127091906Y-76261455D01*
X126938545Y-76108094D01*
X126818057Y-75927770D01*
X126735061Y-75727399D01*
X126692750Y-75514690D01*
X126692750Y-75297810D01*
X126735061Y-75085101D01*
X126818057Y-74884730D01*
X126938545Y-74704406D01*
X127091906Y-74551045D01*
X127272230Y-74430557D01*
X127472600Y-74347561D01*
X127578956Y-74326405D01*
X127685310Y-74305250D01*
X127902190Y-74305250D01*
X128008544Y-74326405D01*
X128008544Y-74326405D01*
G37*
M02*
